<svg width="770" height="460" viewBox="0 0 770 460" fill="none" xmlns="http://www.w3.org/2000/svg">
<path d="M562.977 1.35754L558.565 2.24203C558.565 2.24203 555.035 4.89524 554.152 2.24203C551.505 1.35761 542.679 0.473167 542.679 0.473167L514.271 2.24203L480.734 0.473167L480.694 0.453117C478.746 0.467893 477.477 0.467903 477.477 0.467903L473.05 0.369347L472.792 0.473167H464.849L463.419 0.154884L456.464 0H429.449L389.07 0.467926C389.07 0.467926 383.943 0.917931 380.413 0.917931C377.766 0.917931 367.175 1.80253 362.763 2.68694C360.429 3.85597 356.169 3.09335 352.529 2.44176C350.661 2.10749 348.957 1.80242 347.76 1.80242C347.284 1.80242 345.656 1.54573 343.496 1.2052C342.046 0.976508 340.467 0.682893 338.893 0.390146L338.89 0.389636C338.18 0.257558 337.471 0.125666 336.775 0H325.13C322.647 0.192287 319.265 0.330616 315.907 0.467926C310.435 0.691677 305.029 0.912738 303.689 1.3602C301.924 1.80238 297.07 1.8024 292.216 1.80242C287.362 1.80246 282.508 1.8025 280.743 2.24469C280.211 2.77768 275.14 2.13823 267.84 1.21781C264.833 0.838773 261.449 0.412082 257.848 0H181.14L179.584 0.467903H171.641L162.638 4.00555C162.638 4.00555 150.46 2.23666 148.695 2.23666H81.0662C81.0662 2.23666 60.9985 1.35232 60.9985 4.00555C60.116 7.54315 56.5859 7.54317 56.5859 7.54317L28.6238 1.35644L0 30V33.8243C0.46541 36.5962 1.00593 39.6278 1.37194 41.0904C1.37194 42.4692 1.06175 46.0171 0.720227 49.9234C0.45579 52.948 0.172566 56.1875 0 58.8013V68.8211C0.0649865 70.4927 0.142733 72.2791 0.22048 74.0655C0.412388 78.475 0.604296 82.8845 0.604296 85.5685C0.604295 91.7034 0.604295 102.44 1.37193 110.875L1.37193 133.881C2.46044 138.231 2.00543 144.508 1.64845 149.433C1.50193 151.454 1.37193 153.247 1.37193 154.586C2.37213 158.084 2.0691 161.255 1.73639 164.738C1.55841 166.601 1.37193 168.552 1.37193 170.691C1.37193 172.224 0.988105 173.95 0.604285 175.675C0.375903 176.702 0.147521 177.729 0 178.715V181.809C1.03691 188.437 4.44246 201.365 4.44246 201.365L6.74537 210.567L5.97773 219.77L3.67483 214.402L0 207.794V218.023C1.37192 222.948 1.37192 227.158 1.37192 229.739C2.4873 231.41 1.98202 239.558 1.62221 245.36C1.48676 247.544 1.37192 249.396 1.37192 250.444L1.3719 320.719C2.90717 323.787 1.3719 352.928 1.3719 352.928L0.604261 376.67C0.604261 376.67 1.3719 384.338 1.3719 386.639C1.3719 388.369 0.638915 390.1 0 391.28V398.664L1.3719 407.344L1.37189 431.373L21.6135 451.628L74.1987 453.571L153.269 450.918L166.542 453.571L171.837 454.456H180.663L209.954 452.687L238.195 450.918L240.843 453.571L245.255 452.687C245.255 452.687 248.785 450.034 249.668 452.687C252.316 453.571 261.141 454.456 261.141 454.456L289.55 452.687L323.086 454.456L323.126 454.476C325.074 454.461 326.344 454.461 326.344 454.461L330.77 454.56L331.029 454.456H338.971L340.401 454.774L366.058 455.345L414.75 454.461C414.75 454.461 419.162 458.883 422.693 458.883C425.34 458.883 435.931 457.999 440.343 457.114C442.676 455.945 446.937 456.708 450.577 457.359C452.445 457.693 454.149 457.999 455.346 457.999C455.822 457.999 457.45 458.255 459.61 458.596C462.503 459.052 466.35 459.659 469.658 460H476.131C476.303 459.936 476.436 459.859 476.527 459.767C478.271 459.331 483.677 459.109 489.02 458.891C494.492 458.667 499.898 458.446 501.238 457.999C503.003 457.557 507.856 457.556 512.71 457.556H512.711C517.565 457.556 522.419 457.556 524.184 457.114C525.397 455.898 549.129 456.354 570.154 456.758L570.162 456.758C579.721 456.941 588.719 457.114 594.786 457.114L613.509 456.228L622.334 453.575H630.277L640.867 446.5C640.867 446.5 651.458 451.807 653.223 451.807H671.756C674.403 451.807 693.819 454.46 693.819 454.46H704.409L713.235 457.113C713.235 457.113 722.754 457.113 722.754 454.46C723.636 450.922 727.166 450.922 727.166 450.922L743.768 456.228C743.768 456.228 743.768 456.236 743.767 456.251L761.98 438.025C762.004 437.744 762.028 437.441 762.054 437.119L762.096 436.586C762.135 436.103 762.175 435.584 762.219 435.033L762.227 434.931L762.231 434.881L762.231 434.878L762.231 434.876C762.974 425.41 764.41 407.109 766.122 407.109C765.197 405.727 765.419 410.607 766.076 395.528C766.477 386.303 767.041 383.352 767.603 365.248V354.108C768.134 351.991 767.909 348.743 767.735 346.245C767.665 345.237 767.603 344.351 767.603 343.711C767.603 342.677 767.443 340.523 767.271 338.215C767.072 335.549 766.858 332.678 766.858 331.086C766.858 329.683 767.523 327.618 768.224 325.439C769.009 323.002 769.839 320.421 769.839 318.46C769.839 317.058 769.507 344.663 769.156 342.134L769.156 342.13C768.764 339.303 768.349 336.309 768.349 334.35V312.813C768.349 309.269 768.688 302.511 769.043 295.446C769.432 287.706 769.839 279.596 769.839 274.938C769.839 266.768 767.603 236.32 767.603 236.32V198.289C767.603 197.632 767.668 196.782 767.74 195.834C767.913 193.563 768.129 190.73 767.603 188.634C767.603 185.664 768.349 176.752 768.349 176.752L770 171.815V168.515L768.349 164.127V157.443C768.349 156.52 768.801 154.011 769.381 150.793L769.381 150.79C769.577 149.704 769.788 148.536 770 147.322V110.984C768.891 99.8133 767.603 87.4892 767.603 87.4892V38.8256L768.66 28.659L743.323 3.30496L715.655 2.24203L703.3 0.473167L697.122 1.35754L691.827 0.473167H683.002L593.866 2.24203L565.625 4.0107L562.977 1.35754Z" fill="black"/>
<path d="M0 206.195V195.666C0.225399 197.959 0.604286 201.365 0.604286 201.365L0 206.195Z" fill="black"/>
</svg>
