<svg width="570" height="420" viewBox="0 0 570 420" fill="none" xmlns="http://www.w3.org/2000/svg">
<path d="M417.977 1.35754L413.565 2.24203C413.565 2.24203 410.035 4.89524 409.152 2.24203C406.505 1.35761 397.679 0.473167 397.679 0.473167L369.271 2.24203L335.734 0.473167L335.694 0.453117C333.746 0.467893 332.477 0.467903 332.477 0.467903L328.05 0.369347L327.792 0.473167H319.849L318.419 0.154884L311.464 0H284.449L289.07 0.467926C289.07 0.467926 283.943 0.917931 280.413 0.917931C277.766 0.917931 267.175 1.80253 262.763 2.68694C260.429 3.85597 256.169 3.09335 252.529 2.44176C250.661 2.10749 248.957 1.80242 247.76 1.80242C247.284 1.80242 245.656 1.54573 243.496 1.2052C242.045 0.976508 240.467 0.682893 238.893 0.390146L238.89 0.389636C238.18 0.257558 237.471 0.125666 236.775 0H225.13C222.647 0.192287 219.265 0.330616 215.907 0.467926C210.435 0.691677 205.029 0.912738 203.689 1.3602C201.924 1.80238 197.07 1.8024 192.216 1.80242C187.362 1.80246 182.508 1.8025 180.743 2.24469C180.211 2.77768 175.14 2.13823 167.84 1.21781C164.833 0.838773 161.449 0.412082 157.848 0H121.14L119.584 0.467903H111.641L102.638 4.00555C102.638 4.00555 90.4603 2.23666 88.6952 2.23666H81.0662C81.0662 2.23666 60.9985 1.35232 60.9985 4.00555C60.116 7.54315 56.5859 7.54317 56.5859 7.54317L28.6238 1.35644L0 30V33.8243C0.46541 36.5962 1.00593 39.6278 1.37194 41.0904C1.37194 42.4692 1.06175 46.0171 0.720227 49.9234C0.45579 52.948 0.172566 56.1875 0 58.8013V68.8211C0.0649865 70.4927 0.142733 72.2791 0.22048 74.0655C0.412388 78.475 0.604296 82.8845 0.604296 85.5685C0.604295 91.7034 0.604295 102.44 1.37193 110.875L1.37193 133.881C2.46044 138.231 2.00543 144.508 1.64845 149.433C1.50193 151.454 1.37193 153.247 1.37193 154.586C2.37213 158.084 2.0691 161.255 1.73639 164.738C1.55841 166.601 1.37193 168.552 1.37193 170.691C1.37193 172.224 0.988105 173.95 0.604285 175.675C0.375903 176.702 0.147521 177.729 0 178.715V181.809C1.03691 188.437 3.19709 189 3.19709 189L6.26764 202.798L5.5 212H3.19709L0 213.162V218.023C1.37192 222.948 1.37192 227.158 1.37192 229.739C2.4873 231.41 1.98202 239.558 1.62221 245.36C1.48676 247.544 1.37192 249.396 1.37192 250.444L1.3719 280.719C2.90717 283.787 1.3719 312.928 1.3719 312.928L0.604261 336.67C0.604261 336.67 1.3719 344.338 1.3719 346.639C1.3719 348.369 0.638915 350.1 0 351.28V358.664L1.3719 367.344L1.37189 391.373L21.6135 411.628L74.1987 413.571L93.269 410.918L106.542 413.571L111.837 414.456H120.663L149.954 412.687L178.195 410.918L180.843 413.571L185.255 412.687C185.255 412.687 188.785 410.034 189.668 412.687C192.316 413.571 201.141 414.456 201.141 414.456L211.5 410.918L218.086 414.456L218.126 414.476C220.074 414.461 221.344 414.461 221.344 414.461L225.77 414.56L226.029 414.456H233.971L235.401 414.774L261.058 415.345L269.75 414.461C269.75 414.461 274.162 418.883 277.693 418.883C280.34 418.883 290.931 417.999 295.343 417.114C297.676 415.945 301.937 416.708 305.577 417.359C307.445 417.693 309.149 417.999 310.346 417.999C310.822 417.999 312.45 418.255 314.61 418.596C317.503 419.052 321.35 419.659 324.658 420H331.131C331.303 419.936 331.436 419.859 331.527 419.767C333.271 419.331 338.677 419.109 344.02 418.891C349.492 418.667 354.898 418.446 356.238 417.999C358.003 417.557 362.856 417.556 367.71 417.556H367.711C372.565 417.556 370.735 418.442 372.5 418C373.713 416.784 364.129 416.354 385.154 416.758L385.162 416.758C394.721 416.941 393.719 417.114 399.786 417.114L418.509 416.228L427.334 413.575H435.277L445.867 406.5C445.867 406.5 456.458 411.807 458.223 411.807H476.756C479.403 411.807 493.819 414.46 493.819 414.46H504.409L513.235 417.113C513.235 417.113 522.754 417.113 522.754 414.46C523.636 410.922 527.166 410.922 527.166 410.922L543.768 416.228C543.768 416.228 543.768 416.236 543.767 416.251L561.98 398.025C562.004 397.744 562.028 397.441 562.054 397.119L562.096 396.586C562.135 396.103 562.175 395.584 562.219 395.033L562.227 394.931L562.231 394.881L562.231 394.878L562.231 394.876C562.974 385.41 564.41 367.109 566.122 367.109C565.197 365.727 565.419 370.607 566.076 355.528C566.477 346.303 567.041 343.352 567.603 325.248V314.108C568.134 311.991 567.909 308.743 567.735 306.245C567.665 305.237 567.603 304.351 567.603 303.711C567.603 302.677 567.443 300.523 567.271 298.215C567.072 295.549 566.858 292.678 566.858 291.086C566.858 289.683 567.523 287.618 568.224 285.439C569.009 283.002 568.224 284.96 568.224 283C568.224 281.598 569.351 282.029 569 279.5V278.5C568.608 275.673 569 278.459 569 276.5L568.349 272.813C568.349 269.269 568.688 262.511 569.043 255.446C569.432 247.706 569.839 239.596 569.839 234.938C569.839 226.768 566.858 219.5 566.858 219.5L567.603 198.289C567.603 197.632 567.668 196.782 567.74 195.834C567.913 193.563 568.129 190.73 567.603 188.634C567.603 185.664 568.349 176.752 568.349 176.752L570 171.815V168.515L568.349 164.127V157.443C568.349 156.52 568.801 154.011 569.381 150.793L569.381 150.79C569.577 149.704 569.788 148.536 570 147.322V110.984C568.891 99.8133 567.603 87.4892 567.603 87.4892V38.8256L568.66 28.659L543.323 3.30496L515.655 2.24203L503.3 0.473167L497.122 1.35754L491.827 0.473167H483.002L448.866 2.24203L420.625 4.0107L417.977 1.35754Z" fill="black"/>
</svg>
