<svg width="35" height="50" viewBox="0 0 35 50" fill="none" xmlns="http://www.w3.org/2000/svg">
<path d="M26.5912 21.8816C29.4879 23.0244 33.7997 21.6878 34.7876 15.9431C35.7754 10.1985 33.0022 8.54552 33.0022 8.54552C33.0022 8.54552 33.882 5.87728 32.8992 3.02027C31.9165 0.163258 30.7948 0 30.7948 0C30.7948 0 31.5255 1.03056 31.3196 3.33658C31.1138 5.64259 29.4262 6.77519 29.4262 6.77519C29.4262 6.77519 27.9444 5.61708 26.797 8.54552C26.3385 9.7156 26.0386 10.7733 25.7725 11.7117C25.3726 13.1219 25.0491 14.263 24.3787 15.1115C23.2622 16.5196 22.1096 20.1215 26.5912 21.8816Z" fill="white"/>
<path d="M12.7137 40.7481C13.5194 41.8242 14.4376 41.6106 15.3018 41.4095C16.06 41.2331 16.7766 41.0664 17.3392 41.7888C17.8159 42.4008 17.3668 43.3325 16.861 44.3821C16.089 45.984 15.1848 47.8604 17.2363 49.2936C20.6322 51.6659 25.5613 47.661 26.5904 43.248C27.1595 40.8074 26.8521 39.3171 26.5828 38.0117C26.3652 36.9566 26.1724 36.0222 26.4875 34.8045C26.6043 34.3529 26.7699 33.8219 26.9509 33.2417C27.8617 30.321 29.1616 26.1527 26.5904 24.5907C23.5084 22.7183 20.8174 24.106 19.8656 27.0905C18.9137 30.0751 16.7681 33.4168 14.71 34.9116C12.6519 36.4013 11.1186 38.6206 12.7137 40.7481Z" fill="white"/>
<path d="M17.1698 24.5601C14.2834 31.8557 8.93745 40.0798 3.65842 35.983C-2.67539 31.0649 0.103044 18.2032 5.27403 12.8463C10.4553 7.48944 20.1541 1.57645 22.1607 3.59677C24.1674 5.61708 20.0563 17.2645 17.1698 24.5601Z" fill="white"/>
</svg>
