<svg width="60" height="60" viewBox="0 0 60 60" fill="none" xmlns="http://www.w3.org/2000/svg">
<rect width="60" height="60" fill="#121327"/>
<g id="Menu">
<g id="Property 1=Close">
<g id="Bg">
<path d="M4.1028 59.5299C4.33702 59.5987 4.53694 59.6575 4.58329 59.6575L5.03084 60L3.24065 60L2.45743 59.5433C2.45743 59.5433 3.12875 59.315 3.24065 59.315C3.37173 59.315 3.77157 59.4325 4.1028 59.5299Z" fill="#0C0C0C"/>
<path fill-rule="evenodd" clip-rule="evenodd" d="M59.7711 51.0328L59.7711 59.0012L57.514 59.0012L57.3147 59.5433L54.9651 59.4292C54.9651 59.4292 50.3777 59.315 50.042 59.315C49.8183 59.315 49.5945 59.0867 49.5945 59.0867L48.9232 59.5433L40.196 59.4292L34.023 59.4292L32.1492 59.0867L29.4 57L27.6 57.6L25.7435 59.4292L17.1146 59.5433L15.3503 59.0012L14.0937 59.0867L13.0867 59.4292L11.8559 59.4292L11.6462 59.0012L10.9312 59.0012C10.8597 59.0526 10.7917 59.0867 10.7371 59.0867L9.39443 59.0867C9.05877 59.0867 7.9399 59.4292 7.9399 59.4292L6.03782 59.6575L4.58329 59.0867L4.16444 59.0012L1.16389 59.0012L1.16389 58.0209L1.27944e-06 58L0.223776 42.0331L0.671328 40.6631L0.223776 39.9781L0.223776 38.2656L2.30674e-06 34.4981L0.223776 29.7031L0.500003 29.2071C0.506827 26.2987 0.506831 24.0797 0.506831 24.0797C0.506831 24.0797 0.344626 21.7856 0.344626 21.2949C0.344626 21.2358 0.345939 21.1634 0.348224 21.08C-0.00997253 20.7951 0.0562201 20.4073 0.0562201 20.4073L0.232681 10.91L0.310237 10.4391L3.39956e-06 9.49723L0.155121 7.22103L0.600002 1.8L1.8614 0.804053L1.8614 0.313956L3.49012 0.392445C3.49012 0.392445 6.67 0.470935 6.90268 0.470935C6.97075 0.470935 7.03883 0.501173 7.0938 0.535106C7.21002 0.514991 7.3171 0.500295 7.41077 0.494419L7.67825 0.313956L8.50249 0.32465L8.59509 0.303113C9.10125 0.185219 9.58647 0.0722075 9.7677 0.163865C9.92429 0.242904 10.1187 0.302882 10.3326 0.348394L13.1582 0.385055L13.2217 0.37065C13.4432 0.318954 13.6652 0.257504 13.8742 0.19898L13.8766 0.198307C14.2537 0.0932383 14.5885 -1.985e-06 14.8001 -1.97575e-06C14.9523 -1.9691e-06 15.1044 0.0360878 15.2565 0.0916856C15.429 0.154104 15.6021 0.241226 15.7746 0.328026C15.8174 0.349615 15.8603 0.371235 15.903 0.392445L20.293 0.898522C20.293 0.898522 21.2758 0.898522 21.8855 0.527629L26.0488 0.392447C26.2815 0.392447 27.6 0.235468 27.6 0.235468L31.8 0.706405L33.5063 0.706405L33.8165 1.02036L34.437 0.784894L40.2958 0.655468L42.2389 0.327734L43.3753 0.327734L45.6478 -6.27354e-07L46.2982 0.328256L48.3187 0.313958L48.4175 0.714147L49.057 0.655468L49.2494 0.741645L49.2494 0.706405L50.4128 0.627916L51.1108 0.392447L51.9639 0.392447L52.2742 1.02036C52.2742 1.02036 52.5844 0.627916 52.7395 0.627916L53.6702 0.627916C53.9029 0.627916 54.6785 0.392447 54.6785 0.392447L55.9969 0.235468L57.0052 0.627916L57.0052 1.02036L57.9867 1.49821L58.9695 2.49702L59.7711 3.76295L59.9999 3.76295L59.7711 4.99405L59.7711 8.20233L59.7973 11.6164L59.5083 12.4937L59.5018 12.5807L59.7973 13.0293L59.7973 14.2066L59.9524 16.7968L59.7973 20.0933L57.9867 25.2L59.5018 30L59.7711 34.7262L59.5453 35.7142L59.6024 39.2365L59.7711 39.8041L59.7711 44.415L60 45.1156L59.7762 49.4967L59.7711 49.497L59.7711 50.9601L59.7762 50.9808L59.7711 51.0328ZM38.8 59.2795C40.973 59.2283 42.5663 59.164 42.4146 59.0867L40.7363 59.0867C40.4844 59.0867 39.3502 59.2153 38.8 59.2795Z" fill="#0C0C0C"/>
<path d="M57.3383 0.3232C57.1759 0.275868 57.0373 0.235468 57.0052 0.235468L56.695 -1.44468e-07L57.9359 -9.02252e-08L58.4788 0.313958C58.4788 0.313958 58.0134 0.470937 57.9359 0.470937C57.845 0.470937 57.5679 0.390137 57.3383 0.3232Z" fill="#0C0C0C"/>
</g>
<path id="Union" d="M18.8769 39.4062C18.3934 39.8904 18.3934 40.6755 18.8769 41.1597C19.3604 41.644 20.1442 41.644 20.6277 41.1597L30.06 31.7125L32.3691 32.8689L29.7746 32.0239L39.3723 41.6368C39.8558 42.1211 40.6396 42.1211 41.1231 41.6368C41.6066 41.1526 41.6066 40.3675 41.1231 39.8832L31.5126 30.2575L41.6374 20.1168C42.1209 19.6325 42.1209 18.8474 41.6374 18.3632C41.1539 17.8789 40.3701 17.8789 39.8866 18.3632L29.7618 28.504L20.1134 18.8403C19.6299 18.356 18.8461 18.356 18.3626 18.8403C17.8791 19.3245 17.8791 20.1096 18.3626 20.5938L28.011 30.2575L24.567 33.707L24.1293 35.0222L21.0654 37.2142L18.8769 39.4062Z" fill="white"/>
</g>
<rect x="-14.5" y="-84.5" width="89" height="159" rx="4.5" stroke="#9747FF" stroke-dasharray="10 5"/>
</g>
</svg>
