<svg width="340" height="344" viewBox="0 0 340 344" fill="none" xmlns="http://www.w3.org/2000/svg">
<path d="M245.814 0.575809L243.934 0.95097C243.934 0.95097 242.43 2.07634 242.054 0.95097C240.927 0.575836 237.167 0.200696 237.167 0.200696L225.066 0.95097L210.78 0.200696L210.763 0.192192C209.933 0.198459 209.393 0.198463 209.393 0.198463L207.507 0.15666L207.397 0.200696H204.013L203.405 0.0656948L200.442 0H188.934L171.734 0.198473C171.734 0.198473 169.55 0.389344 168.046 0.389344C166.918 0.389344 162.407 0.764551 160.527 1.13968C159.534 1.63553 157.719 1.31206 156.168 1.03568C155.372 0.893904 154.646 0.764505 154.137 0.764505C153.934 0.764505 153.24 0.655629 152.32 0.511191C151.702 0.414191 151.03 0.289652 150.36 0.165483L150.358 0.165266C150.056 0.109245 149.754 0.0533018 149.457 0H144.497C143.439 0.0815594 141.998 0.140232 140.568 0.198473C138.237 0.293378 135.934 0.387142 135.364 0.576935C134.612 0.764489 132.544 0.764497 130.476 0.764505C128.409 0.764523 126.341 0.76454 125.589 0.952095C125.363 1.17816 123.202 0.90694 120.093 0.516541C118.812 0.355769 117.371 0.174787 115.837 0H83.161L82.4981 0.198463H79.1146L75.2794 1.69897C75.2794 1.69897 70.0922 0.948688 69.3403 0.948688H34.5321C34.5321 0.948688 25.9838 0.573595 25.9838 1.69897C25.6079 3.19946 24.1041 3.19947 24.1041 3.19947L12.193 0.57534L0 12.7246V14.3467C0.198253 15.5225 0.4285 16.8083 0.584409 17.4287C0.584409 18.0135 0.452278 19.5183 0.306798 21.1752C0.194155 22.4581 0.0735088 23.8322 0 24.9409V29.1908C0.0276826 29.8998 0.0608006 30.6575 0.0939187 31.4152C0.175667 33.2855 0.257414 35.1558 0.257414 36.2943C0.257414 38.8964 0.257414 43.4502 0.584407 47.0282L0.584406 120.11C1.04809 121.955 0.854262 124.617 0.702195 126.706C0.639783 127.564 0.584405 128.324 0.584405 128.892C1.01047 130.376 0.881383 131.721 0.739657 133.198C0.66384 133.988 0.584405 134.816 0.584405 135.723C0.584404 136.373 0.420907 137.105 0.25741 137.837C0.160125 138.273 0.06284 138.708 0 139.126V140.439C0.441695 143.25 1.89237 148.734 1.89237 148.734L2.87335 152.637L2.54636 156.54L1.56538 154.263L0 151.46V155.799C0.584403 157.888 0.584403 159.674 0.584403 160.769C1.05953 161.478 0.844289 164.933 0.691018 167.394C0.633319 168.321 0.584402 248.391 0.584402 169.551L0.584396 270.682C1.23838 271.983 0.584394 284.343 0.584394 284.343L0.2574 294.414C0.2574 294.414 0.584393 297.666 0.584393 298.642C0.584393 299.376 0.272161 300.11 0 300.61V303.743L0.584392 307.424L0.584391 331.858L9.20678 340.449L31.6067 341.273L71.2886 340.148L76.9427 341.273L79.1983 341.648H82.9576L95.435 340.898L107.465 340.148L108.593 341.273L110.472 340.898C110.472 340.898 111.976 339.773 112.352 340.898C113.48 341.273 117.239 341.648 117.239 341.648L129.341 340.898L143.626 341.648L143.643 341.657C144.473 341.651 145.014 341.651 145.014 341.651L146.899 341.692L147.01 341.648H150.393L151.002 341.783L161.931 342.026L182.673 341.651C182.673 341.651 184.552 343.526 186.056 343.526C187.184 343.526 191.695 343.151 193.575 342.776C194.569 342.28 196.384 342.604 197.934 342.88C198.73 343.022 199.456 343.151 199.966 343.151C200.168 343.151 200.862 343.26 201.782 343.404C203.014 343.598 204.653 343.855 206.062 344H208.82C208.893 343.973 208.949 343.94 208.988 343.901C209.731 343.716 212.034 343.622 214.31 343.53C216.641 343.435 218.944 343.341 219.514 343.151C220.266 342.964 222.333 342.964 224.401 342.964C226.469 342.964 228.537 342.964 229.289 342.776C229.806 342.26 239.915 342.454 248.871 342.625L248.874 342.625C252.946 342.703 256.779 342.776 259.364 342.776L267.339 342.4L271.098 341.275H274.481L278.993 338.274C278.993 338.274 289.504 340.525 290.256 340.525H298.15C299.278 340.525 307.549 341.65 307.549 341.65H312.06L315.819 342.775C315.819 342.775 319.874 342.775 319.874 341.65C320.25 340.15 321.754 340.15 321.754 340.15L328.826 342.4C328.826 342.4 328.826 342.403 328.825 342.41L336.584 334.679C336.594 334.56 336.604 334.432 336.615 334.295L336.633 334.069C336.65 333.864 336.667 333.644 336.685 333.41L336.689 333.367L336.69 333.346L336.691 333.344C337.007 329.329 337.619 321.566 338.348 321.566C337.954 320.98 338.049 318.808 338.328 312.412C338.499 308.5 338.739 297.248 338.979 289.569V284.844C339.205 283.946 339.109 282.568 339.035 281.509C339.005 281.081 338.979 280.705 338.979 280.434C338.979 279.995 338.911 279.082 338.837 278.103C338.753 276.972 338.662 275.754 338.662 275.079C338.662 274.484 338.945 273.608 339.243 272.684C339.578 271.65 339.931 270.555 339.931 269.724C339.931 269.129 339.79 268.113 339.641 267.041L339.64 267.039C339.473 265.84 339.297 264.57 339.297 263.739V231.006C339.297 229.503 339.441 226.637 339.592 223.64C339.758 220.357 339.931 216.918 339.931 214.941C339.931 211.476 338.979 198.561 338.979 198.561V182.431C338.979 182.152 339.007 181.791 339.037 181.389C339.111 180.426 339.203 110.899 338.979 110.01C338.979 108.75 339.297 104.97 339.297 104.97L340 102.876V101.476L339.297 99.6152V96.7802C339.297 96.3887 339.489 95.3243 339.736 93.9596L339.736 93.9584C339.82 93.4975 339.91 93.0024 340 92.4875V47.0744C339.527 42.3363 338.979 37.109 338.979 37.109V16.4681L339.429 12.1559L328.636 1.40181L316.85 0.95097L311.587 0.200696L308.956 0.575809L306.7 0.200696H302.941L258.972 0.95097L246.942 1.70116L245.814 0.575809Z" fill="black"/>
<path d="M0 150.782V146.316C0.0960141 147.289 0.25741 148.734 0.25741 148.734L0 150.782Z" fill="black"/>
</svg>
