<svg width="340" height="430" viewBox="0 0 340 430" fill="none" xmlns="http://www.w3.org/2000/svg">
<path d="M245.814 0.575809L243.934 0.95097C243.934 0.95097 242.43 2.07634 242.054 0.95097C240.927 0.575836 237.167 0.200696 237.167 0.200696L225.066 0.95097L210.78 0.200696L210.763 0.192192C209.933 0.198459 209.393 0.198463 209.393 0.198463L207.507 0.15666L207.397 0.200696H204.013L203.405 0.0656948L200.442 0H188.934L171.734 0.198473C171.734 0.198473 169.55 0.389344 168.046 0.389344C166.918 0.389344 162.407 0.764551 160.527 1.13968C159.534 1.63553 157.719 1.31206 156.168 1.03568C155.372 0.893904 154.646 0.764505 154.137 0.764505C153.934 0.764505 153.24 0.655629 152.32 0.511191C151.702 0.414191 151.03 0.289652 150.36 0.165483L150.358 0.165266C150.056 0.109245 149.754 0.0533018 149.457 0H144.497C143.439 0.0815594 141.998 0.140232 140.568 0.198473C138.237 0.293378 135.934 0.387142 135.364 0.576935C134.612 0.764489 132.544 0.764497 130.476 0.764505C128.409 0.764523 126.341 0.76454 125.589 0.952095C125.363 1.17816 123.202 0.90694 120.093 0.516541C118.812 0.355769 117.371 0.174787 115.837 0H83.161L82.4981 0.198463H79.1146L75.2794 1.69897C75.2794 1.69897 70.0922 0.948688 69.3403 0.948688H34.5321C34.5321 0.948688 25.9838 0.573595 25.9838 1.69897C25.6079 3.19946 24.1041 3.19947 24.1041 3.19947L12.193 0.57534L0 12.7246V14.3467C0.198253 15.5225 0.4285 16.8083 0.584409 17.4287C0.584409 18.0135 0.452278 19.5183 0.306798 21.1752C0.194155 22.4581 0.0735088 23.8322 0 24.9409V29.1908C0.0276826 29.8998 0.0608006 30.6575 0.0939187 31.4152C0.175667 33.2855 0.257414 35.1558 0.257414 36.2943C0.257414 38.8964 0.257414 43.4502 0.584407 47.0282L0.584406 120.11C1.04809 121.955 0.854262 124.617 0.702195 126.706C0.639783 127.564 0.584405 128.324 0.584405 128.892C1.01047 130.376 0.881383 131.721 0.739657 133.198C0.66384 133.988 0.584405 134.816 0.584405 135.723C0.584404 136.373 0.420907 137.105 0.25741 137.837C0.160125 138.273 0.06284 138.708 0 139.126V140.439C0.441695 143.25 1.89237 148.734 1.89237 148.734L2.87335 152.637L2.54636 156.54L1.56538 154.263L0 151.46V155.799C0.584403 157.888 0.584403 159.674 0.584403 160.769C1.05953 161.478 0.844289 164.933 0.691018 167.394C0.633319 168.321 0.584402 248.391 0.584402 169.551L0.584396 336.682C1.23838 337.983 0.584394 350.343 0.584394 350.343L0.2574 360.414C0.2574 360.414 0.584393 363.666 0.584393 364.642C0.584393 365.376 0.272161 366.11 0 366.61V389.743L0.584392 393.424L0.584391 417.858L9.20678 426.449L31.6067 427.273L71.2886 426.148L76.9427 427.273L79.1983 427.648H82.9576L95.435 426.898L107.465 426.148L108.593 427.273L110.472 426.898C110.472 426.898 111.976 425.773 112.352 426.898C113.48 427.273 117.239 427.648 117.239 427.648L129.341 426.898L143.626 427.648L143.643 427.657C144.473 427.651 145.014 427.651 145.014 427.651L146.899 427.692L147.01 427.648H150.393L151.002 427.783L161.931 428.026L182.673 427.651C182.673 427.651 184.552 429.526 186.056 429.526C187.184 429.526 191.695 429.151 193.575 428.776C194.569 428.28 196.384 428.604 197.934 428.88C198.73 429.022 199.456 429.151 199.966 429.151C200.168 429.151 200.862 429.26 201.782 429.404C203.014 429.598 204.653 429.855 206.062 430H208.82C208.893 429.973 208.949 429.94 208.988 429.901C209.731 429.716 212.034 429.622 214.31 429.53C216.641 429.435 218.944 429.341 219.514 429.151C220.266 428.964 222.333 428.964 224.401 428.964C226.469 428.964 228.537 428.964 229.289 428.776C229.806 428.26 239.915 428.454 248.871 428.625L248.874 428.625C252.946 428.703 256.779 428.776 259.364 428.776L267.339 428.4L271.098 427.275H274.481L278.993 424.274C278.993 424.274 289.504 426.525 290.256 426.525H298.15C299.278 426.525 307.549 427.65 307.549 427.65H312.06L315.819 428.775C315.819 428.775 319.874 428.775 319.874 427.65C320.25 426.15 321.754 426.15 321.754 426.15L328.826 428.4C328.826 428.4 328.826 428.403 328.825 428.41L336.584 420.679C336.594 420.56 336.604 420.432 336.615 420.295L336.633 420.069C336.65 419.864 336.667 419.644 336.685 419.41L336.689 419.367L336.69 419.346L336.691 419.344C337.007 415.329 337.619 407.566 338.348 407.566C337.954 406.98 338.049 404.808 338.328 398.412C338.499 394.5 338.739 363.248 338.979 355.569V350.844C339.205 349.946 339.109 348.568 339.035 347.509C339.005 347.081 338.979 346.705 338.979 346.434C338.979 345.995 338.911 345.082 338.837 344.103C338.753 342.972 338.662 341.754 338.662 341.079C338.662 340.484 338.945 339.608 339.243 338.684C339.578 337.65 339.931 336.555 339.931 335.724C339.931 335.129 339.79 334.113 339.641 333.041L339.64 333.039C339.473 331.84 339.297 330.57 339.297 329.739V231.006C339.297 229.503 339.441 226.637 339.592 223.64C339.758 220.357 339.931 216.918 339.931 214.941C339.931 211.476 338.979 198.561 338.979 198.561V182.431C338.979 182.152 339.007 181.791 339.037 181.389C339.111 180.426 339.203 110.899 338.979 110.01C338.979 108.75 339.297 104.97 339.297 104.97L340 102.876V101.476L339.297 99.6152V96.7802C339.297 96.3887 339.489 95.3243 339.736 93.9596L339.736 93.9584C339.82 93.4975 339.91 93.0024 340 92.4875V47.0744C339.527 42.3363 338.979 37.109 338.979 37.109V16.4681L339.429 12.1559L328.636 1.40181L316.85 0.95097L311.587 0.200696L308.956 0.575809L306.7 0.200696H302.941L258.972 0.95097L246.942 1.70116L245.814 0.575809Z" fill="black"/>
<path d="M0 150.782V146.316C0.0960141 147.289 0.25741 148.734 0.25741 148.734L0 150.782Z" fill="black"/>
</svg>
