<svg width="60" height="60" viewBox="0 0 60 60" fill="none" xmlns="http://www.w3.org/2000/svg">
<g id="Bg">
<path d="M59.5299 55.8972C59.5987 55.663 59.6575 55.4631 59.6575 55.4167L60 54.9692V56.7594L59.5433 57.5426C59.5433 57.5426 59.315 56.8712 59.315 56.7594C59.315 56.6283 59.4325 56.2284 59.5299 55.8972Z" fill="#DD34DD"/>
<path fill-rule="evenodd" clip-rule="evenodd" d="M51.0328 0.228867H59.0012V2.48604L59.5433 2.68529L59.4292 5.03492C59.4292 5.03492 59.315 9.62229 59.315 9.95796C59.315 10.1817 59.0867 10.4055 59.0867 10.4055L59.5433 11.0768L59.4292 19.804V25.977L59.5433 30.4524V32.9139L59.0867 33.3614L59.4292 34.2565L59.5433 42.8854L57.5 38.5L59.0012 44.6497L59.0867 45.9063L59.4292 46.9133V48.1441L59.0012 48.3538V49.0688C59.0526 49.1403 59.0867 49.2083 59.0867 49.2629V50.6056C59.0867 50.9412 59.4292 52.0601 59.4292 52.0601L59.6575 53.9622L59.0867 55.4167L59.0012 55.8356V58.8361H58.0209L58 60L42.0331 59.7762L40.6631 59.3287L39.9781 59.7762H38.2656L34.4981 60L29.7031 59.7762L29.2071 59.5C26.2987 59.4932 24.0797 59.4932 24.0797 59.4932C24.0797 59.4932 21.7856 59.6554 21.2949 59.6554C21.2358 59.6554 21.1634 59.6541 21.08 59.6518C20.7951 60.01 20.4073 59.9438 20.4073 59.9438L10.91 59.7673L10.4391 59.6898L9.49723 60L7.22103 59.8449L9.49723 55L6 57L2 57.5L0.804056 58.1386H0.313958L0.392447 56.5099C0.392447 56.5099 0.470937 53.33 0.470937 53.0973C0.470937 53.0293 0.501175 52.9612 0.535109 52.9062C0.514993 52.79 0.500297 52.6829 0.494422 52.5892L0.313958 52.3218L0.324652 51.4975L0.303115 51.4049C0.185221 50.8988 0.0722097 50.4135 0.163867 50.2323C0.242906 50.0757 0.302884 49.8813 0.348397 49.6674L0.385057 46.8418L0.370652 46.7783C0.318956 46.5568 0.257506 46.3348 0.198982 46.1258L0.198309 46.1234C0.0932403 45.7463 0 45.4115 0 45.1999C0 45.0478 0.0360898 44.8956 0.0916876 44.7435C0.154106 44.571 0.241228 44.3979 0.328028 44.2254C0.349617 44.1826 0.371237 44.1397 0.392447 44.097L0.99881 35.9208C0.99881 35.9208 0.99881 34.938 0.627916 34.3283V33.1649C0.627916 32.9322 0.470937 31.6137 0.470937 31.6137L0.313958 25.4091V23.7028L0.627916 23.3926L0.392447 22.7721L0.655469 19.7042L0.327734 17.7611V16.6247L0 14.3522L0.328257 13.7018L0.313958 11.6813L0.714148 11.5825L0.655469 10.943L0.741645 10.7506L0.706406 10.7506L0.627916 9.58725L0.392447 8.88922V8.03608L1.02036 7.72585C1.02036 7.72585 0.627916 7.41562 0.627916 7.2605V6.32981C0.627916 6.09713 0.392447 5.32155 0.392447 5.32155L0.235468 4.00306L0.627916 2.99481H1.02036L1.49821 2.01325L2.49702 1.03046L3.76296 0.2289V0.000102416L4.99405 0.228867H8.20233L11.6164 0.202714L12.4937 0.491663L12.5807 0.498189L13.0293 0.202714H14.2066L16.7968 0.0475997L20.0933 0.202714L20.5 2L26 0.228867H34.7262L35.7142 0.454664L39.2365 0.397605L39.8041 0.228867H44.415L45.1156 0L49.4967 0.223774L49.497 0.228867H50.9601L50.9808 0.223774L51.0328 0.228867ZM59.2795 21.2C59.2283 19.027 59.164 17.4337 59.0867 17.5854V19.2637C59.0867 19.5156 59.2153 20.6498 59.2795 21.2Z" fill="#DD34DD"/>
<path d="M0.3232 2.66174C0.275868 2.8241 0.235468 2.96268 0.235468 2.99481L0 3.30504V2.06411L0.313958 1.5212C0.313958 1.5212 0.470937 1.98655 0.470937 2.06411C0.470937 2.15498 0.390137 2.43214 0.3232 2.66174Z" fill="#DD34DD"/>
</g>
</svg>
