<svg width="194" height="60" viewBox="0 0 194 60" fill="none" xmlns="http://www.w3.org/2000/svg">
<g id="Union">
<path fill-rule="evenodd" clip-rule="evenodd" d="M8.96719 59.7711H0.998816V57.514L0.456663 57.3147L0.570833 54.9651C0.570833 54.9651 0.684998 50.3777 0.684998 50.0421C0.684998 49.8183 0.91333 49.5945 0.91333 49.5945L0.456661 48.9232L0.570831 40.196V34.0231L0.456663 29.5476V27.0861L0.913332 26.6386L0.570833 25.7435L0.456667 17.1146L2.5 21.5L0.998812 15.3503L0.913336 14.0937L0.570833 13.0867V11.856L0.998812 11.6462V10.9312C0.947367 10.8597 0.913336 10.7917 0.913336 10.7371V9.39444C0.913336 9.05877 0.570835 7.93991 0.570835 7.93991L0.342499 6.03782L0.913334 4.58329L0.99881 4.16444V1.16389H1.97913L2 4.23938e-06L17.9669 0.223773L19.3369 0.671325L20.0219 0.223777L21.7344 0.223776L25.5019 2.18302e-06L30.2969 0.223776L31.9979 0.000269264L31.9991 6.32554e-06C32.2481 0.000590586 32.4842 0.00478238 32.7059 0.0119752L39.2019 0.121965C39.4092 0.0248903 39.5927 0.0562181 39.5927 0.0562181L47.85 0.209637C48.6179 0.0608228 49.648 -0.123194 50.1577 0.113643L50.5028 0L52.779 0.155117L52.7245 0.271076C57.8006 0.349448 68.9917 0.349448 68.9917 0.349448C68.9917 0.349448 71.2909 0.18441 71.7826 0.18441C71.961 0.18441 72.2605 0.196581 72.6152 0.210999C72.9601 0.225021 73.3577 0.241182 73.7465 0.250327C74.4308 0.266441 75.0897 0.261069 75.3947 0.18441C75.5179 0.18441 75.7544 0.174155 76.0496 0.161216C76.9343 0.122398 78.3498 0.0603867 78.8425 0.18441H92.1393L92.0445 0.616049L127.837 0.352378L125 5.50001C125 5.50001 130.873 0.847737 131.341 0.803548C131.598 0.779134 131.873 0.741293 132.106 0.682699C132.445 0.511801 132.653 0.429282 132.888 0.389487C133.107 0.352378 133.35 0.352378 133.747 0.352378H137.687L171.581 0.517417L172.013 0.588462L172.633 0.68685C173.158 0.767904 173.718 0.847737 173.879 0.847737C174.207 0.847737 174.535 0.765218 174.863 0.682669C175.192 0.600058 175.52 0.517417 175.849 0.517417C176.31 0.517417 176.772 0.360615 177.175 0.223616L177.177 0.222681C177.49 0.116282 177.768 0.0218126 177.983 0.0218126C178.17 0.0218126 178.479 0.0488028 178.831 0.079647C179.712 0.156746 180.868 0.257921 181.102 0.0218126C181.759 -0.143226 192.43 0.682699 192.43 0.682699L191.609 2.00398L193.086 3.49055L193.414 4.97712V5.00007H193.575L193.604 6.33063L193.498 6.72004L193.743 8.44562L193.552 8.82892L193.604 8.98419L193.999 26.7715L193.802 27.656L193.999 28.4421L192.879 41.0525L192.895 41.1745L192.914 41.3347C192.919 41.3921 192.922 41.4406 192.922 41.4787C192.922 41.8327 193.016 42.2817 193.104 42.6984C193.18 43.0593 193.25 43.396 193.25 43.6259C193.25 43.9184 193.347 44.3403 193.441 44.7482C193.558 45.2619 193.671 45.7544 193.579 45.9384C193.25 46.5991 193.25 47.9204 193.25 48.5812C193.25 49.0466 193.407 49.6169 193.544 50.1147L193.544 50.1167C193.649 50.5014 193.743 50.8428 193.743 51.0588C193.743 51.3891 193.579 51.7194 193.414 52.0497L193.319 52.246C193.279 52.3278 193.241 52.4096 193.209 52.4914C193.137 52.6745 193.086 52.8576 193.086 53.0407C193.086 53.2397 193.096 53.4578 193.105 53.6836L193.105 53.6846C193.137 54.3957 193.171 55.1823 192.922 55.6835C192.803 56.1647 192.856 56.7336 192.894 57.1347L192.896 57.1508C192.91 57.2932 192.922 57.4139 192.922 57.5004C192.922 57.7096 192.776 58.0956 192.607 58.4716C192.375 58.9862 192.102 59.4826 192.102 59.4826L179.461 59.3173C179.461 59.3173 178.036 59.2489 176.844 59.2443C176.181 59.2416 175.591 59.2585 175.356 59.3173C175.196 59.3979 174.608 59.3608 173.971 59.3205L175.499 57L173.212 59.2785C173.016 59.2707 172.829 59.267 172.666 59.2714C172.493 59.2763 172.344 59.2902 172.237 59.3173C171.745 59.4826 168.626 59.3173 168.626 59.3173C168.626 59.3173 167.979 59.2582 167.25 59.2109L166.847 59.1864C166.484 59.1664 166.124 59.1523 165.835 59.1523C165.522 59.1972 165.233 59.2177 164.963 59.227C164.775 59.2333 164.596 59.2345 164.423 59.2348L164.315 59.2348C163.864 59.2348 163.454 59.2347 163.044 59.3173C162.387 59.4826 160.089 59.4826 160.089 59.4826L154.671 59.3173L95.984 59.6476L92.9991 59C92.9991 59 97.4399 52.4614 96.9991 52.5C96.854 52.5126 95.539 54.3057 94.2926 56.0052C93.1779 57.525 92.1181 58.97 91.9991 59C91.8589 59.0704 91.6984 59.1736 91.5396 59.2758C91.2895 59.4366 91.0438 59.5946 90.889 59.6171C90.7866 59.6321 90.6593 59.604 90.5124 59.5716C90.3604 59.5382 90.1874 59.5 89.9991 59.5L86.9991 59C87.133 59.0442 89.3366 59.7328 89.4676 59.767L89.5967 59.7983L89.6768 59.8156H62.529C62.2621 59.9054 62.0256 59.9782 61.8369 59.9782C61.6492 59.9782 61.3403 59.9513 60.9864 59.9203L60.6453 59.8908C59.8319 59.8232 58.9228 59.7719 58.7175 59.9782C58.5324 60.0247 57.5509 59.9925 56.237 59.9222V59.9999L55.6405 59.8891C55.0409 59.8546 54.3928 59.8142 53.7325 59.7711H53.3796L53.2324 59.8156L44.3605 59.8831L43.2032 59.9524L42.0966 59.9003L29 60L24.2858 59.5453L20.7635 59.6024L20.1959 59.7711H15.585L14.8844 60L10.5033 59.7762L10.503 59.7711H9.03995L9.01916 59.7762L8.96719 59.7711ZM0.720547 38.8C0.771702 40.973 0.835964 42.5663 0.913334 42.4147V40.7363C0.913334 40.4844 0.784725 39.3503 0.720547 38.8Z" fill="#DD34DD"/>
<path d="M0.470108 4.10281C0.401262 4.33703 0.342499 4.53695 0.342499 4.58329L0 5.03084V3.24065L0.456665 2.45743C0.456665 2.45743 0.684998 3.12876 0.684998 3.24065C0.684998 3.37172 0.567465 3.77159 0.470108 4.10281Z" fill="#DD34DD"/>
</g>
</svg>
