<svg aria-hidden="true" style="position: absolute; width: 0; height: 0; overflow: hidden;" version="1.1" xmlns="http://www.w3.org/2000/svg" xmlns:xlink="http://www.w3.org/1999/xlink">
<defs>
    <symbol id="pinkBasketBtn" viewBox="0 0 32 32">
        <path  d="M31.749 29.812c0.037-0.125 0.068-0.232 0.068-0.256l0.183-0.239v0.955l-0.244 0.418c0 0-0.122-0.358-0.122-0.418 0-0.070 0.063-0.283 0.115-0.46z"></path>
        <path  d="M27.218 0.122h4.25v1.204l0.289 0.106-0.061 1.253c0 0-0.061 2.447-0.061 2.626 0 0.119-0.122 0.239-0.122 0.239l0.244 0.358-0.061 4.654v3.292l0.061 2.387v1.313l-0.244 0.239 0.183 0.477 0.061 4.602-1.090-2.339 0.801 3.28 0.046 0.67 0.183 0.537v0.656l-0.228 0.112v0.381c0.027 0.038 0.046 0.074 0.046 0.104v0.716c0 0.179 0.183 0.776 0.183 0.776l0.122 1.014-0.304 0.776-0.046 0.223v1.6h-0.523l-0.011 0.621-8.516-0.119-0.731-0.239-0.365 0.239h-0.913l-2.009 0.119-2.557-0.119-0.265-0.147c-1.551-0.004-2.735-0.004-2.735-0.004s-1.224 0.087-1.485 0.087c-0.032 0-0.070-0.001-0.115-0.002-0.152 0.191-0.359 0.156-0.359 0.156l-5.065-0.094-0.251-0.041-0.502 0.165-1.214-0.083 1.214-2.584-1.865 1.067-2.133 0.267-0.638 0.341h-0.261l0.042-0.869c0 0 0.042-1.696 0.042-1.82 0-0.036 0.016-0.073 0.034-0.102-0.011-0.062-0.019-0.119-0.022-0.169l-0.096-0.143 0.006-0.44-0.012-0.049c-0.063-0.27-0.123-0.529-0.074-0.625 0.042-0.084 0.074-0.187 0.098-0.301l0.020-1.507-0.008-0.034c-0.028-0.118-0.060-0.237-0.092-0.348l-0-0.001c-0.056-0.201-0.106-0.38-0.106-0.493 0-0.081 0.019-0.162 0.049-0.243 0.033-0.092 0.080-0.184 0.126-0.276 0.012-0.023 0.023-0.046 0.034-0.068l0.323-4.361c0 0 0-0.524-0.198-0.849v-0.62c0-0.124-0.084-0.827-0.084-0.827l-0.084-3.309v-0.91l0.167-0.165-0.126-0.331 0.14-1.636-0.175-1.036v-0.606l-0.175-1.212 0.175-0.347-0.008-1.078 0.213-0.053-0.031-0.341 0.046-0.103h-0.019l-0.042-0.62-0.126-0.372v-0.455l0.335-0.165c0 0-0.209-0.165-0.209-0.248v-0.496c0-0.124-0.126-0.538-0.126-0.538l-0.084-0.703 0.209-0.538h0.209l0.255-0.524 0.533-0.524 0.675-0.427v-0.122l0.657 0.122h1.711l1.821-0.014 0.468 0.154 0.046 0.003 0.239-0.158h0.628l1.381-0.083 1.758 0.083 0.217 0.959 2.933-0.945h4.654l0.527 0.12 1.879-0.030 0.303-0.090h2.459l0.374-0.122 2.337 0.119 0 0.003h0.78l0.011-0.003 0.028 0.003zM31.616 11.307c-0.027-1.159-0.062-2.009-0.103-1.928v0.895c0 0.134 0.069 0.739 0.103 1.033z"></path>
        <path  d="M0.172 1.42c-0.025 0.087-0.047 0.161-0.047 0.178l-0.126 0.165v-0.662l0.167-0.29c0 0 0.084 0.248 0.084 0.29 0 0.048-0.043 0.196-0.079 0.319z"></path>
        <path fill="#fff" style="fill: var(--color2, #fff)" d="M14.4 21.279c0 0.303-0.106 0.566-0.317 0.788s-0.461 0.333-0.75 0.333-0.539-0.111-0.75-0.333c-0.211-0.222-0.317-0.484-0.317-0.788s0.106-0.566 0.317-0.788c0.211-0.222 0.461-0.333 0.75-0.333s0.539 0.111 0.75 0.333c0.211 0.222 0.317 0.484 0.317 0.788zM21.867 21.279c0 0.303-0.106 0.566-0.317 0.788s-0.461 0.333-0.75 0.333-0.539-0.111-0.75-0.333c-0.211-0.222-0.317-0.484-0.317-0.788s0.106-0.566 0.317-0.788c0.211-0.222 0.461-0.333 0.75-0.333s0.539 0.111 0.75 0.333c0.211 0.222 0.317 0.484 0.317 0.788zM22.933 11.281v2.586l-0.137 0.446 0.137 0.62v0.83c0 0.14-0.046 0.264-0.137 0.372s-0.204 0.171-0.337 0.188l-8.7 1.068c0.072 0.35 0.108 0.554 0.108 0.613 0 0.093-0.067 0.28-0.2 0.56h7.667c0.144 0 0.269 0.055 0.375 0.166s0.158 0.242 0.158 0.394-0.053 0.283-0.158 0.394c-0.106 0.111-0.231 0.166-0.375 0.166h-8.533c-0.144 0-0.269-0.055-0.375-0.166s-0.158-0.242-0.158-0.394c0-0.064 0.022-0.156 0.067-0.276s0.089-0.225 0.133-0.315 0.104-0.207 0.179-0.35c0.075-0.143 0.118-0.229 0.129-0.258l-0.508-2.483 0.8-1.042-0.874 0.683-0.893-4.362h-1.7c-0.144 0-0.269-0.055-0.375-0.166s-0.158-0.242-0.158-0.394 0.053-0.283 0.158-0.394c0.106-0.111 0.231-0.166 0.375-0.166h2.133c0.089 0 0.168 0.019 0.238 0.057s0.124 0.083 0.162 0.136c0.039 0.053 0.075 0.124 0.108 0.214s0.056 0.166 0.067 0.228c0.011 0.061 0.026 0.147 0.046 0.258s0.032 0.187 0.037 0.228h8.408l-0.267 0.213-0.267 0.8 0.267-0.533 0.8-0.479h1.067c0.144 0 0.269 0.055 0.375 0.166s0.158 0.242 0.158 0.394z"></path>
    </symbol>

    <symbol id="pinkSendBtn" viewBox="0 0 103 32">
        <path  d="M4.782 31.878h-4.25v-1.204l-0.289-0.106 0.061-1.253c0 0 0.061-2.447 0.061-2.626 0-0.119 0.122-0.239 0.122-0.239l-0.244-0.358 0.061-4.654v-3.292l-0.061-2.387v-1.313l0.244-0.239-0.183-0.477-0.061-4.602 1.090 2.339-0.801-3.28-0.046-0.67-0.183-0.537v-0.656l0.228-0.112v-0.381c-0.027-0.038-0.046-0.074-0.046-0.104v-0.716c0-0.179-0.183-0.776-0.183-0.776l-0.122-1.014 0.304-0.776 0.046-0.223v-1.6h0.523l0.011-0.621 8.516 0.119 0.731 0.239 0.365-0.239h0.913l2.009-0.119 2.557 0.119 0.908-0.119c0.133 0 0.259 0.003 0.377 0.006l3.465 0.059c0.111-0.052 0.208-0.035 0.208-0.035l4.404 0.082c0.41-0.079 0.959-0.177 1.231-0.051l0.184-0.061 1.214 0.083-0.029 0.062c2.707 0.042 8.676 0.042 8.676 0.042s1.226-0.088 1.488-0.088c0.095 0 0.255 0.007 0.444 0.014 0.184 0.007 0.396 0.016 0.603 0.021 0.365 0.009 0.716 0.006 0.879-0.035 0.066 0 0.192-0.005 0.349-0.012 0.472-0.021 1.227-0.054 1.49 0.012h7.092l-0.051 0.23 19.089-0.141-1.513 2.745c0 0 3.132-2.481 3.382-2.505 0.137-0.013 0.284-0.033 0.408-0.064 0.181-0.091 0.292-0.135 0.417-0.156 0.117-0.020 0.246-0.020 0.458-0.020h2.101l18.077 0.088 0.23 0.038 0.331 0.052c0.28 0.043 0.579 0.086 0.665 0.086 0.175 0 0.35-0.044 0.525-0.088s0.35-0.088 0.526-0.088c0.246 0 0.492-0.084 0.707-0.157l0.001-0.001c0.167-0.057 0.315-0.107 0.43-0.107 0.1 0 0.265 0.014 0.452 0.031 0.47 0.041 1.086 0.095 1.211-0.031 0.35-0.088 6.042 0.352 6.042 0.352l-0.438 0.705 0.788 0.793 0.175 0.793v0.012h0.086l0.015 0.71-0.057 0.208 0.131 0.92-0.102 0.204 0.028 0.083 0.211 9.487-0.105 0.472 0.105 0.419-0.597 6.726 0.009 0.065 0.010 0.085c0.003 0.031 0.004 0.056 0.004 0.077 0 0.189 0.050 0.428 0.097 0.651 0.041 0.192 0.078 0.372 0.078 0.495 0 0.156 0.052 0.381 0.102 0.599 0.062 0.274 0.123 0.537 0.074 0.635-0.175 0.352-0.175 1.057-0.175 1.41 0 0.248 0.084 0.552 0.157 0.818v0.001c0.056 0.205 0.106 0.387 0.106 0.502 0 0.176-0.087 0.352-0.175 0.528l-0.051 0.105c-0.021 0.044-0.042 0.087-0.059 0.131-0.038 0.098-0.066 0.195-0.066 0.293 0 0.106 0.005 0.222 0.010 0.343v0.001c0.017 0.379 0.035 0.799-0.098 1.066-0.063 0.257-0.035 0.56-0.015 0.774l0.001 0.009c0.007 0.076 0.014 0.14 0.014 0.186 0 0.112-0.078 0.317-0.168 0.518-0.124 0.274-0.269 0.539-0.269 0.539l-6.742-0.088c0 0-0.76-0.036-1.396-0.039-0.354-0.001-0.668 0.008-0.794 0.039-0.085 0.043-0.399 0.023-0.739 0.002l0.815-1.238-1.22 1.215c-0.105-0.004-0.204-0.006-0.291-0.004-0.092 0.003-0.172 0.010-0.229 0.024-0.262 0.088-1.926 0-1.926 0s-0.345-0.032-0.734-0.057l-0.215-0.013c-0.194-0.011-0.386-0.018-0.54-0.018-0.167 0.024-0.321 0.035-0.465 0.040-0.1 0.003-0.196 0.004-0.288 0.004h-0.058c-0.241 0-0.459-0-0.678 0.044-0.35 0.088-1.576 0.088-1.576 0.088l-2.89-0.088-31.3 0.176-1.592-0.345c0 0 2.368-3.487 2.133-3.467-0.077 0.007-0.779 0.963-1.443 1.869-0.594 0.811-1.16 1.581-1.223 1.597-0.075 0.038-0.16 0.093-0.245 0.147-0.133 0.086-0.264 0.17-0.347 0.182-0.055 0.008-0.123-0.007-0.201-0.024-0.081-0.018-0.173-0.038-0.274-0.038l-1.6-0.267c0.071 0.024 1.247 0.391 1.317 0.409l0.069 0.017 0.043 0.009h-14.479c-0.142 0.048-0.268 0.087-0.369 0.087s-0.265-0.014-0.454-0.031l-0.182-0.016c-0.434-0.036-0.919-0.063-1.028 0.047-0.099 0.025-0.622 0.008-1.323-0.030v0.041l-0.318-0.059c-0.32-0.018-0.665-0.040-1.018-0.063h-0.188l-0.078 0.024-4.732 0.036-0.617 0.037-0.59-0.028-6.985 0.053-2.514-0.242-1.879 0.030-0.303 0.090h-2.459l-0.374 0.122-2.337-0.119-0-0.003h-0.78l-0.011 0.003-0.028-0.003zM0.384 20.693c0.027 1.159 0.062 2.009 0.103 1.928v-0.895c0-0.134-0.069-0.739-0.103-1.033z"></path>
        <path  d="M0.251 2.188c-0.037 0.125-0.068 0.232-0.068 0.256l-0.183 0.239v-0.955l0.244-0.418c0 0 0.122 0.358 0.122 0.418 0 0.070-0.063 0.283-0.115 0.46z"></path>
    </symbol>

    <symbol id="mask" viewBox="0 0 51 32">
        <path d="M0 0h51.2v32h-51.2zM3.2 3.2h44.8v25.6h-44.8z"></path>
    </symbol>

    <symbol id="menuOpen" viewBox="0 0 32 32">
        <path fill="#fff" style="fill: var(--color1, #fff)" d="M2.188 31.749c0.125 0.037 0.232 0.068 0.256 0.068l0.239 0.183h-0.955l-0.418-0.244c0 0 0.358-0.122 0.418-0.122 0.070 0 0.283 0.063 0.46 0.115z"></path>
        <path fill="#fff" style="fill: var(--color1, #fff)" d="M31.878 27.218v4.25h-1.204l-0.106 0.289-1.253-0.061c0 0-2.447-0.061-2.626-0.061-0.119 0-0.239-0.122-0.239-0.122l-0.358 0.244-4.654-0.061h-3.292l-0.999-0.183-1.466-1.113-0.96 0.32-0.99 0.976-4.602 0.061-0.941-0.289-0.67 0.046-0.537 0.183h-0.656l-0.112-0.228h-0.381c-0.038 0.027-0.074 0.046-0.104 0.046h-0.716c-0.179 0-0.776 0.183-0.776 0.183l-1.014 0.122-0.776-0.304-0.223-0.046h-1.6v-0.523l-0.621-0.011 0.119-8.516 0.239-0.731-0.239-0.365v-0.913l-0.119-2.009 0.119-2.557 0.147-0.265c0.004-1.551 0.004-2.735 0.004-2.735s-0.086-1.224-0.086-1.485c0-0.032 0.001-0.070 0.002-0.115-0.191-0.152-0.156-0.359-0.156-0.359l0.094-5.065 0.041-0.251-0.165-0.502 0.083-1.214 0.237-2.891 0.673-0.531v-0.261l0.869 0.042c0 0 1.696 0.042 1.82 0.042 0.036 0 0.073 0.016 0.102 0.034 0.062-0.011 0.119-0.019 0.169-0.022l0.143-0.096 0.44 0.006 0.049-0.012c0.27-0.063 0.529-0.123 0.625-0.074 0.083 0.042 0.187 0.074 0.301 0.098l1.507 0.020 0.034-0.008c0.118-0.028 0.237-0.060 0.348-0.092l0.001-0c0.201-0.056 0.38-0.106 0.493-0.106 0.081 0 0.162 0.019 0.243 0.049 0.092 0.033 0.184 0.080 0.276 0.126 0.023 0.012 0.046 0.023 0.068 0.034l2.341 0.27c0 0 0.524 0 0.849-0.198l2.22-0.072c0.124 0 0.827-0.084 0.827-0.084l2.24 0.251h0.91l0.165 0.167 0.331-0.126 3.125-0.069 1.036-0.175h0.606l1.212-0.175 0.347 0.175 1.078-0.008 0.053 0.213 0.341-0.031 0.103 0.046v-0.019l0.62-0.042 0.372-0.126h0.455l0.166 0.335c0 0 0.165-0.209 0.248-0.209h0.496c0.124 0 0.538-0.126 0.538-0.126l0.703-0.084 0.538 0.209v0.209l0.523 0.255 0.524 0.533 0.428 0.675h0.122l-0.122 0.657v1.711l0.014 1.821-0.154 0.468-0.003 0.046 0.158 0.239v0.628l0.083 1.381-0.083 1.758-0.966 2.724 0.808 2.56 0.144 2.521-0.12 0.527 0.030 1.879 0.090 0.303v2.459l0.122 0.374-0.119 2.337-0.003 0v0.78l0.003 0.011-0.003 0.028zM20.693 31.616c1.159-0.027 2.009-0.062 1.928-0.103h-0.895c-0.134 0-0.739 0.069-1.033 0.103z"></path>
        <path fill="#fff" style="fill: var(--color1, #fff)" d="M30.58 0.172c-0.087-0.025-0.161-0.047-0.178-0.047l-0.165-0.126h0.662l0.29 0.167c0 0-0.248 0.084-0.29 0.084-0.048 0-0.196-0.043-0.319-0.079z"></path>
        <path fill="#000" style="fill: var(--color2, #000)" d="M6.933 10.667c0-0.442 0.358-0.8 0.8-0.8h1.734l2.4 0.4 0.8-0.4h11.599c0.442 0 0.8 0.358 0.8 0.8s-0.358 0.8-0.8 0.8h-16.533c-0.442 0-0.8-0.358-0.8-0.8z"></path>
        <path fill="#000" style="fill: var(--color2, #000)" d="M6.933 16c0-0.442 0.358-0.8 0.8-0.8h16.533c0.442 0 0.8 0.358 0.8 0.8s-0.358 0.8-0.8 0.8h-6.104l1.571-0.8-2.4 0.8h-9.6c-0.442 0-0.8-0.358-0.8-0.8z"></path>
        <path fill="#000" style="fill: var(--color2, #000)" d="M7.733 20.533c-0.442 0-0.8 0.358-0.8 0.8s0.358 0.8 0.8 0.8h7.333v-0.4l1.2 0.4h8c0.442 0 0.8-0.358 0.8-0.8s-0.358-0.8-0.8-0.8h-5.6l-0.8 1.2 0.4-1.2h-10.533z"></path>
    </symbol>

    <symbol id="menuClose" viewBox="0 0 32 32">
        <path fill="#121327" style="fill: var(--color1, #121327)" d="M0 0h32v32h-32v-32z"></path>
        <path fill="#0c0c0c" style="fill: var(--color2, #0c0c0c)" d="M2.188 31.749c0.125 0.037 0.232 0.068 0.256 0.068l0.239 0.183h-0.955l-0.418-0.244c0 0 0.358-0.122 0.418-0.122 0.070 0 0.283 0.063 0.46 0.115z"></path>
        <path fill="#0c0c0c" style="fill: var(--color2, #0c0c0c)" d="M31.878 27.218v4.25h-1.204l-0.106 0.289-1.253-0.061c0 0-2.447-0.061-2.626-0.061-0.119 0-0.239-0.122-0.239-0.122l-0.358 0.244-4.654-0.061h-3.292l-0.999-0.183-1.466-1.113-0.96 0.32-0.99 0.976-4.602 0.061-0.941-0.289-0.67 0.046-0.537 0.183h-0.656l-0.112-0.228h-0.381c-0.038 0.027-0.074 0.046-0.104 0.046h-0.716c-0.179 0-0.776 0.183-0.776 0.183l-1.014 0.122-0.776-0.304-0.223-0.046h-1.6v-0.523l-0.621-0.011 0.119-8.516 0.239-0.731-0.239-0.365v-0.913l-0.119-2.009 0.119-2.557 0.147-0.265c0.004-1.551 0.004-2.735 0.004-2.735s-0.086-1.224-0.086-1.485c0-0.032 0.001-0.070 0.002-0.115-0.191-0.152-0.156-0.359-0.156-0.359l0.094-5.065 0.041-0.251-0.165-0.502 0.083-1.214 0.237-2.891 0.673-0.531v-0.261l0.869 0.042c0 0 1.696 0.042 1.82 0.042 0.036 0 0.073 0.016 0.102 0.034 0.062-0.011 0.119-0.019 0.169-0.022l0.143-0.096 0.44 0.006 0.049-0.012c0.27-0.063 0.529-0.123 0.625-0.074 0.083 0.042 0.187 0.074 0.301 0.098l1.507 0.020 0.034-0.008c0.118-0.028 0.237-0.060 0.348-0.092l0.001-0c0.201-0.056 0.38-0.106 0.493-0.106 0.081 0 0.162 0.019 0.243 0.049 0.092 0.033 0.184 0.080 0.276 0.126 0.023 0.012 0.046 0.023 0.068 0.034l2.341 0.27c0 0 0.524 0 0.849-0.198l2.22-0.072c0.124 0 0.827-0.084 0.827-0.084l2.24 0.251h0.91l0.165 0.167 0.331-0.126 3.125-0.069 1.036-0.175h0.606l1.212-0.175 0.347 0.175 1.078-0.008 0.053 0.213 0.341-0.031 0.103 0.046v-0.019l0.62-0.042 0.372-0.126h0.455l0.166 0.335c0 0 0.165-0.209 0.248-0.209h0.496c0.124 0 0.538-0.126 0.538-0.126l0.703-0.084 0.538 0.209v0.209l0.523 0.255 0.524 0.533 0.428 0.675h0.122l-0.122 0.657v1.711l0.014 1.821-0.154 0.468-0.003 0.046 0.158 0.239v0.628l0.083 1.381-0.083 1.758-0.966 2.724 0.808 2.56 0.144 2.521-0.12 0.527 0.030 1.879 0.090 0.303v2.459l0.122 0.374-0.119 2.337-0.003 0v0.78l0.003 0.011-0.003 0.028zM20.693 31.616c1.159-0.027 2.009-0.062 1.928-0.103h-0.895c-0.134 0-0.739 0.069-1.033 0.103z"></path>
        <path fill="#0c0c0c" style="fill: var(--color2, #0c0c0c)" d="M30.58 0.172c-0.087-0.025-0.161-0.047-0.178-0.047l-0.165-0.126h0.662l0.29 0.167c0 0-0.248 0.084-0.29 0.084-0.048 0-0.196-0.043-0.319-0.079z"></path>
        <path fill="#fff" style="fill: var(--color3, #fff)" d="M10.068 21.017c-0.258 0.258-0.258 0.677 0 0.935s0.676 0.258 0.934 0l5.031-5.038 1.232 0.617-1.384-0.451 5.119 5.127c0.258 0.258 0.676 0.258 0.934 0s0.258-0.677 0-0.935l-5.126-5.134 5.4-5.408c0.258-0.258 0.258-0.677 0-0.935s-0.676-0.258-0.934 0l-5.4 5.408-5.146-5.154c-0.258-0.258-0.676-0.258-0.934 0s-0.258 0.677 0 0.935l5.146 5.154-1.837 1.84-0.233 0.701-1.634 1.169-1.167 1.169z"></path>
        <path fill="none" stroke="#9747ff" style="stroke: var(--color4, #9747ff)" stroke-linejoin="miter" stroke-linecap="butt" stroke-miterlimit="4" stroke-width="0.5333" d="M-5.333-45.067h42.667c1.325 0 2.4 1.075 2.4 2.4v80c0 1.325-1.075 2.4-2.4 2.4h-42.667c-1.325 0-2.4-1.075-2.4-2.4v-80c0-1.325 1.075-2.4 2.4-2.4z"></path>
    </symbol>

    <symbol id="mob-subscribe-logo" viewBox="0 0 23 32">
        <path fill="#fff" style="fill: var(--color1, #fff)" d="M17.474 14.004c1.904 0.731 4.737-0.124 5.386-3.801s-1.173-4.734-1.173-4.734 0.578-1.708-0.068-3.536c-0.646-1.829-1.383-1.933-1.383-1.933s0.48 0.66 0.345 2.135c-0.135 1.476-1.244 2.201-1.244 2.201s-0.974-0.741-1.728 1.133c-0.301 0.749-0.498 1.426-0.673 2.026-0.263 0.903-0.475 1.633-0.916 2.176-0.734 0.901-1.491 3.206 1.454 4.333z"></path>
        <path fill="#fff" style="fill: var(--color1, #fff)" d="M8.355 26.079c0.53 0.689 1.133 0.552 1.701 0.423 0.498-0.113 0.969-0.22 1.339 0.243 0.313 0.392 0.018 0.988-0.314 1.66-0.507 1.025-1.101 2.226 0.247 3.143 2.232 1.518 5.471-1.045 6.147-3.869 0.374-1.562 0.172-2.516-0.005-3.351-0.143-0.675-0.27-1.273-0.063-2.053 0.077-0.289 0.186-0.629 0.305-1 0.599-1.869 1.453-4.537-0.237-5.537-2.025-1.198-3.794-0.31-4.419 1.6s-2.035 4.049-3.388 5.005c-1.352 0.953-2.36 2.374-1.312 3.735z"></path>
        <path fill="#fff" style="fill: var(--color1, #fff)" d="M11.283 15.718c-1.897 4.669-5.41 9.933-8.879 7.311-4.162-3.148-2.336-11.379 1.062-14.807 3.405-3.428 9.778-7.213 11.097-5.92s-1.383 8.747-3.28 13.417z"></path>
    </symbol>

    <symbol id="logoHeader" viewBox="0 0 22 32">
        <path  d="M17.018 14.004c1.854 0.731 4.613-0.124 5.246-3.801s-1.143-4.734-1.143-4.734 0.563-1.708-0.066-3.536c-0.629-1.829-1.347-1.933-1.347-1.933s0.468 0.66 0.336 2.135c-0.132 1.476-1.212 2.201-1.212 2.201s-0.948-0.741-1.683 1.133c-0.293 0.749-0.485 1.426-0.656 2.026-0.256 0.903-0.463 1.633-0.892 2.176-0.715 0.901-1.452 3.206 1.416 4.333z"></path>
        <path  d="M8.137 26.079c0.516 0.689 1.103 0.552 1.656 0.423 0.485-0.113 0.944-0.22 1.304 0.243 0.305 0.392 0.018 0.988-0.306 1.66-0.494 1.025-1.073 2.226 0.24 3.143 2.173 1.518 5.328-1.045 5.987-3.869 0.364-1.562 0.168-2.516-0.005-3.351-0.139-0.675-0.263-1.273-0.061-2.053 0.075-0.289 0.181-0.629 0.297-1 0.583-1.869 1.415-4.537-0.231-5.537-1.972-1.198-3.695-0.31-4.304 1.6s-1.982 4.049-3.3 5.006c-1.317 0.953-2.299 2.374-1.278 3.735z"></path>
        <path  d="M10.989 15.718c-1.847 4.669-5.269 9.933-8.647 7.311-4.054-3.148-2.275-11.379 1.034-14.807 3.316-3.428 9.523-7.213 10.807-5.92s-1.347 8.747-3.194 13.417z"></path>
    </symbol>

    <symbol id="footerLogoMob" viewBox="0 0 22 32">
        <path d="M16.714 14.004c1.821 0.731 4.531-0.124 5.152-3.801s-1.122-4.734-1.122-4.734c0 0 0.553-1.708-0.065-3.536s-1.323-1.933-1.323-1.933c0 0 0.459 0.66 0.33 2.135s-1.19 2.201-1.19 2.201c0 0-0.931-0.741-1.653 1.133-0.288 0.749-0.477 1.426-0.644 2.026-0.251 0.903-0.455 1.633-0.876 2.176-0.702 0.901-1.426 3.206 1.391 4.333z"></path>
        <path d="M7.991 26.079c0.506 0.689 1.084 0.552 1.627 0.423 0.477-0.113 0.927-0.22 1.281 0.243 0.3 0.392 0.017 0.988-0.301 1.66-0.485 1.025-1.054 2.226 0.236 3.143 2.135 1.518 5.233-1.045 5.88-3.869 0.358-1.562 0.164-2.516-0.005-3.351-0.137-0.675-0.258-1.273-0.060-2.053 0.073-0.289 0.178-0.629 0.291-1 0.573-1.869 1.39-4.537-0.227-5.537-1.937-1.198-3.629-0.31-4.227 1.6s-1.947 4.049-3.241 5.005c-1.294 0.953-2.257 2.374-1.255 3.735z"></path>
        <path d="M10.792 15.718c-1.814 4.669-5.175 9.933-8.493 7.311-3.981-3.148-2.235-11.379 1.016-14.807 3.257-3.428 9.353-7.213 10.614-5.92s-1.323 8.747-3.137 13.416z"></path>
    </symbol>

    <symbol id="pegi18" viewBox="0 0 27 32">
        <path fill="#e2011a" style="fill: var(--color1, #e2011a)" d="M27.062 0h-27.062v26.229h27.062v-26.229z"></path>
        <path fill="#fff" style="fill: var(--color2, #fff)" d="M9.526 22.504h-4.222v-14.217h-2.76v-2.413c1.895 0.026 3.14-0.735 3.816-2.518h3.166v19.149z"></path>
        <path fill="#fff" style="fill: var(--color2, #fff)" d="M13.422 17.048c0-1.889 0.433-3.226 2.029-4.407-1.326-1.285-1.813-2.413-1.813-4.144 0-3.017 1.976-5.142 5.223-5.142s5.223 2.125 5.223 5.142c0 1.731-0.487 2.859-1.813 4.144 1.597 1.181 2.029 2.518 2.029 4.407 0 3.436-1.109 5.771-5.439 5.771-4.33 0-5.439-2.335-5.439-5.771zM18.862 14.373c-0.974 0-1.218 0.656-1.218 2.44 0 1.809 0.244 2.439 1.218 2.439s1.218-0.63 1.218-2.439c0-1.784-0.244-2.44-1.218-2.44zM18.862 6.818c-0.893 0-1.11 0.42-1.11 2.23s0.217 2.229 1.11 2.229c0.893 0 1.11-0.42 1.11-2.229s-0.217-2.23-1.11-2.23z"></path>
        <path fill="#000" style="fill: var(--color3, #000)" d="M0 32h27.062v-32h-27.062zM26.52 25.704h-25.979v-25.18h25.979l0 25.18z"></path>
        <path fill="#000" style="fill: var(--color3, #000)" d="M24.235 1.049v0.195h-0.428v1.314h-0.252v-1.314h-0.428v-0.195h1.108zM25.979 2.558h-0.252v-1.188h-0.007l-0.431 1.188h-0.205l-0.41-1.188h-0.007v1.188h-0.252v-1.509h0.4l0.388 1.123h0.007l0.377-1.123h0.392l-0 1.509z"></path>
        <path fill="#fff" style="fill: var(--color2, #fff)" d="M1.718 30.033h0.459l0.422-1.989h0.009l0.44 1.989h0.431l0.594-2.435h-0.412l-0.389 1.991h-0.010l-0.417-1.991h-0.464l-0.427 1.991h-0.009l-0.403-1.991h-0.413l0.586 2.435z"></path>
        <path fill="#fff" style="fill: var(--color2, #fff)" d="M4.757 30.033h0.459l0.422-1.989h0.010l0.441 1.989h0.43l0.596-2.435h-0.413l-0.389 1.991h-0.010l-0.417-1.991h-0.464l-0.426 1.991h-0.009l-0.403-1.991h-0.412l0.586 2.435z"></path>
        <path fill="#fff" style="fill: var(--color2, #fff)" d="M7.794 30.033h0.46l0.422-1.989h0.009l0.441 1.989h0.431l0.595-2.435h-0.412l-0.389 1.991h-0.009l-0.417-1.991h-0.463l-0.427 1.991h-0.009l-0.403-1.991h-0.413l0.586 2.435z"></path>
        <path fill="#fff" style="fill: var(--color2, #fff)" d="M10.806 29.552h-0.431v0.481h0.431v-0.481z"></path>
        <path fill="#fff" style="fill: var(--color2, #fff)" d="M11.779 28.816c0-0.555 0.071-0.954 0.507-0.954 0.366 0 0.459 0.373 0.459 0.908 0 0.627-0.094 0.999-0.459 0.999-0.422 0-0.507-0.482-0.507-0.953zM11.409 30.833h0.393v-1.076h0.010c0.089 0.209 0.3 0.34 0.525 0.34 0.651 0 0.82-0.773 0.82-1.327 0-0.722-0.225-1.236-0.82-1.236-0.272 0-0.492 0.183-0.544 0.364h-0.009v-0.301h-0.375v3.235z"></path>
        <path fill="#fff" style="fill: var(--color2, #fff)" d="M13.924 28.561v-0.091c0-0.144 0.047-0.635 0.459-0.635 0.347 0 0.436 0.322 0.436 0.595v0.132h-0.896zM15.231 28.861v-0.154c0-0.523-0.071-1.172-0.839-1.172-0.773 0-0.895 0.704-0.895 1.314 0 0.836 0.258 1.249 0.872 1.249 0.684 0 0.843-0.604 0.843-0.863h-0.392c0 0.181-0.052 0.563-0.427 0.563-0.482 0-0.482-0.563-0.482-0.936l1.321-0z"></path>
        <path fill="#fff" style="fill: var(--color2, #fff)" d="M16.44 27.862c0.422 0 0.506 0.481 0.506 0.954 0 0.499-0.084 0.89-0.511 0.89-0.392 0-0.455-0.496-0.455-0.89-0-0.581 0.094-0.954 0.459-0.954zM17.317 27.598h-0.374v0.31h-0.010c-0.051-0.191-0.271-0.373-0.544-0.373-0.637 0-0.82 0.623-0.82 1.282 0 0.322 0.046 1.217 0.778 1.217 0.249 0 0.483-0.123 0.568-0.327h0.010v0.318c0 0.168 0.018 0.545-0.489 0.545-0.206 0-0.385-0.086-0.402-0.308h-0.394c0.065 0.608 0.67 0.608 0.823 0.608 0.506 0 0.854-0.263 0.854-0.99v-2.281z"></path>
        <path fill="#fff" style="fill: var(--color2, #fff)" d="M17.857 30.033h0.393v-2.435h-0.393v2.435zM17.857 27.226h0.393v-0.437h-0.393v0.437z"></path>
        <path fill="#fff" style="fill: var(--color2, #fff)" d="M19.309 29.552h-0.431v0.481h0.431v-0.481z"></path>
        <path fill="#fff" style="fill: var(--color2, #fff)" d="M19.936 30.033h0.394v-2.435h-0.394v2.435zM19.936 27.226h0.394v-0.437h-0.394v0.437z"></path>
        <path fill="#fff" style="fill: var(--color2, #fff)" d="M20.871 30.033h0.392v-1.68c0-0.354 0.287-0.491 0.498-0.491 0.356 0 0.37 0.305 0.37 0.491v1.68h0.394v-1.726c0-0.285 0-0.772-0.661-0.772-0.242 0-0.505 0.128-0.608 0.351h-0.010v-0.288h-0.374v2.435z"></path>
        <path fill="#fff" style="fill: var(--color2, #fff)" d="M23.158 30.033h0.395v-2.135h0.43v-0.301h-0.43v-0.285c0-0.168 0.083-0.232 0.253-0.232h0.182v-0.327h-0.286c-0.38 0-0.544 0.191-0.544 0.559v0.285h-0.365v0.301h0.365v2.135z"></path>
        <path fill="#fff" style="fill: var(--color2, #fff)" d="M24.131 28.816c0 0.685 0.179 1.281 0.905 1.281 0.722 0 0.904-0.595 0.904-1.281 0-0.687-0.178-1.282-0.904-1.282-0.721 0-0.905 0.595-0.905 1.282zM25.027 29.798c-0.403 0-0.481-0.456-0.481-0.982 0-0.528 0.084-0.982 0.481-0.982 0.422 0 0.503 0.454 0.503 0.982 0 0.526-0.085 0.982-0.503 0.982z"></path>
    </symbol>

    <symbol id="youtube" viewBox="0 0 45 32">
        <path fill="#f00" style="fill: var(--color1, #f00)" d="M43.863 4.997c-0.516-1.968-2.032-3.515-3.961-4.041-3.492-0.956-17.502-0.956-17.502-0.956s-14.010 0-17.502 0.956c-1.929 0.527-3.444 2.073-3.961 4.041-0.937 3.563-0.937 11.003-0.937 11.003s0 7.439 0.937 11.003c0.516 1.968 2.032 3.515 3.961 4.041 3.492 0.956 17.502 0.956 17.502 0.956s14.010 0 17.502-0.956c1.929-0.527 3.445-2.073 3.961-4.041 0.937-3.564 0.937-11.003 0.937-11.003s-0.004-7.439-0.937-11.003z"></path>
        <path fill="#fff" style="fill: var(--color2, #fff)" d="M17.92 22.4l11.52-6.4-11.52-6.4v12.8z"></path>
    </symbol>

    <symbol id="xbox" viewBox="0 0 136 32">
        <path fill="#fff" style="fill: var(--color1, #fff)" d="M15.999 0c-3.232 0-5.905 0.877-8.338 2.351-0.040 0-0.041 0.040-0.041 0.079s0.040 0.040 0.080 0.040c3.112-0.677 7.82 1.992 8.259 2.271h0.080c0.439-0.279 5.147-2.949 8.259-2.271 0.040 0 0.079-0.001 0.079-0.040v-0c0-0.040 0-0.079-0.040-0.079-2.434-1.474-5.107-2.351-8.339-2.351zM26.701 4.492c-0.791 0.047-2.631 0.659-6.312 4.275l-0.040 0.040c0 0-0 0.040 0.040 0.040 3.232 3.826 9.457 12.951 8.26 16.737v0.079h0.001c0.040 0 0.079 0 0.079-0.040 2.035-2.67 3.272-6.058 3.272-9.684 0-4.423-1.796-8.448-4.748-11.357-0.040-0.040-0.040-0.040-0.080-0.040h-0c-0.060-0.020-0.207-0.067-0.471-0.051zM5.282 4.509c-0.269-0.011-0.424 0.044-0.494 0.074-0.020 0-0.030 0.010-0.040 0.020s-0.020 0.020-0.040 0.020c-2.913 2.909-4.708 6.934-4.708 11.357 0 3.626 1.237 7.014 3.272 9.684 0 0.040 0.039 0.040 0.079 0.040h0c0.040 0 0.040-0.039 0-0.079-1.237-3.786 5.027-12.911 8.259-16.737l0.041-0.040c0-0.040-0.001-0.040-0.041-0.040-3.681-3.646-5.521-4.266-6.329-4.298zM15.999 12.832c0 0-0.040-0-0.040 0.040-4.788 3.626-13.007 12.632-10.493 15.183 2.793 2.471 6.503 3.945 10.533 3.945s7.701-1.475 10.533-3.945c2.474-2.55-5.705-11.556-10.493-15.183 0-0.040-0.040-0.040-0.040-0.040zM56.998 25.218h-3.118l-5.362-7.443-5.4 7.443h-3.118l6.921-9.581-6.35-8.818h3.118l4.829 6.68 4.829-6.68h3.118l-6.388 8.818 6.921 9.581zM73.197 19.989c0 1.603-0.532 2.901-1.597 3.817s-2.586 1.412-4.563 1.412h-8.556v-8.207h-4.107l1.711-2.367h2.396v-7.825h8.214c1.863 0 3.27 0.458 4.259 1.336s1.483 2.061 1.483 3.474c0 1.756-0.799 3.13-2.396 4.008 1.027 0.382 1.787 0.992 2.32 1.718 0.57 0.725 0.837 1.641 0.837 2.634zM61.257 14.683h5.248c1.065 0 1.863-0.229 2.396-0.725 0.532-0.458 0.799-1.183 0.799-2.138 0-0.802-0.266-1.45-0.837-1.909-0.532-0.458-1.331-0.687-2.358-0.687h-5.248v5.458zM70.383 19.912c0-0.954-0.304-1.718-0.875-2.176-0.57-0.496-1.445-0.725-2.586-0.725h-5.666v5.764h5.628c1.103 0 1.977-0.267 2.586-0.725 0.608-0.496 0.913-1.221 0.913-2.138zM92.058 16.019c0 1.412-0.19 2.748-0.608 3.893s-1.027 2.176-1.825 3.054c-0.837 0.878-1.787 1.565-2.852 1.985-1.065 0.458-2.282 0.649-3.651 0.649-1.331 0-2.586-0.229-3.651-0.649-1.065-0.458-2.015-1.107-2.852-1.985s-1.445-1.909-1.863-3.054c-0.418-1.145-0.608-2.481-0.608-3.893s0.19-2.748 0.608-3.893 1.027-2.214 1.863-3.092c0.799-0.878 1.749-1.527 2.852-1.985 1.065-0.42 2.32-0.649 3.651-0.649s2.548 0.229 3.651 0.649c1.065 0.42 2.053 1.107 2.852 1.985s1.445 1.947 1.825 3.092 0.608 2.443 0.608 3.893zM77.038 16.019c0 2.176 0.57 3.893 1.673 5.153s2.548 1.909 4.411 1.909c1.825 0 3.308-0.649 4.411-1.909s1.635-2.977 1.635-5.153-0.532-3.932-1.635-5.191c-1.103-1.26-2.586-1.909-4.411-1.909s-3.308 0.649-4.411 1.909c-1.103 1.298-1.673 3.015-1.673 5.191zM100.88 15.637l6.389-8.818h-3.118l-4.829 6.68-4.829-6.68h-3.118l6.388 8.818-6.921 9.581h3.118l5.362-7.443 5.4 7.443h3.118l-6.959-9.581zM116.55 7.054c-0.162-0.216-0.386-0.323-0.68-0.323-0.247 0-0.44 0.085-0.564 0.246-0.139 0.154-0.247 0.408-0.317 0.754l-0.054 0.262c-0.046 0.216-0.1 0.37-0.162 0.454s-0.155 0.123-0.27 0.123-0.209-0.046-0.27-0.139c-0.062-0.092-0.093-0.223-0.093-0.393 0-0.223 0.046-0.385 0.124-0.485s0.201-0.162 0.371-0.169h0.008v-0.554h-0.008c-0.301 0.015-0.541 0.123-0.711 0.323s-0.255 0.5-0.255 0.893c0 0.346 0.077 0.624 0.232 0.816s0.363 0.293 0.618 0.293c0.247 0 0.44-0.077 0.595-0.239 0.147-0.162 0.255-0.408 0.317-0.724l0.054-0.254c0.046-0.231 0.1-0.393 0.162-0.477s0.147-0.131 0.263-0.131c0.139 0 0.247 0.054 0.317 0.154s0.108 0.254 0.108 0.447c0 0.239-0.046 0.423-0.139 0.547-0.093 0.115-0.247 0.185-0.456 0.185h-0.008v0.562h0.008c0.332 0 0.595-0.115 0.78-0.339 0.178-0.216 0.27-0.539 0.27-0.939 0-0.385-0.077-0.685-0.239-0.893zM114.974 23.767c0.069-0.346 0.178-0.6 0.317-0.754s0.332-0.231 0.564-0.246c0.286 0 0.517 0.108 0.68 0.323 0.155 0.216 0.239 0.516 0.239 0.893 0 0.4-0.085 0.716-0.27 0.939-0.178 0.223-0.44 0.339-0.78 0.339h-0.008v-0.562h0.008c0.209 0 0.363-0.062 0.456-0.185s0.139-0.308 0.139-0.547c0-0.192-0.039-0.346-0.108-0.446s-0.178-0.154-0.317-0.154c-0.116 0-0.201 0.046-0.263 0.131s-0.116 0.246-0.162 0.477l-0.054 0.254c-0.062 0.323-0.162 0.562-0.317 0.724-0.155 0.154-0.355 0.239-0.595 0.239-0.255 0-0.463-0.1-0.618-0.293-0.154-0.2-0.232-0.47-0.232-0.816 0-0.393 0.085-0.693 0.255-0.893s0.409-0.316 0.711-0.323h0.008v0.554h-0.008c-0.162 0.015-0.293 0.069-0.371 0.169-0.085 0.1-0.124 0.262-0.124 0.485 0 0.169 0.031 0.3 0.093 0.393s0.155 0.139 0.27 0.139c0.116 0 0.209-0.039 0.27-0.123s0.116-0.239 0.162-0.454l0.054-0.262zM116.72 16.331v-0.593c-0.093 0.062-0.209 0.092-0.355 0.1l-0.448 0.023c-0.178 0.008-0.317 0.038-0.417 0.108-0.1 0.062-0.178 0.169-0.224 0.316-0.116-0.323-0.355-0.485-0.711-0.485-0.255 0-0.463 0.092-0.618 0.277-0.023 0.031-0.046 0.062-0.070 0.1 0.008-0.008 0.015-0.023 0.023-0.031-0.1 0.146-0.155 0.339-0.17 0.57v-0.062c-0.008 0.062-0.008 0.123-0.008 0.192v1.355h2.997v-0.57h-1.166v-0.731c0-0.162 0.039-0.285 0.108-0.354 0.070-0.077 0.201-0.115 0.379-0.123l0.324-0.015c0.147 0 0.27-0.023 0.355-0.077zM114.31 16.515c0.077-0.085 0.185-0.131 0.324-0.131 0.155 0 0.27 0.039 0.348 0.131s0.116 0.216 0.116 0.37v0.747h-0.904v-0.731c0-0.169 0.039-0.293 0.116-0.385zM116.72 14.537h-2.997v-0.57h2.997v0.57zM113.723 10.372h0.517v1.632h0.703v-1.478h0.494v1.478h0.765v-1.632h0.518v2.202h-2.997v-2.202zM113.723 19.425h0.517v1.64h0.703v-1.478h0.494v1.478h0.765v-1.632h0.518v2.202h-2.997v-2.209zM122.003 25.269h-3.978l5.013-6.867 1.985 2.725-3.020 4.142zM131.472 6.823h3.977l-4.464 6.113-1.985-2.725 2.472-3.387zM118.574 6.823h3.978l13.447 18.446h-3.978l-13.447-18.446z"></path>
    </symbol>

    <symbol id="playstation" viewBox="0 0 261 32">
        <path fill="#fff" style="fill: var(--color1, #fff)" d="M15.321 0c1.782 0.333 3.533 0.81 5.275 1.306 0.997 0.291 1.991 0.591 2.979 0.912 1.552 0.496 3.097 1.058 4.502 1.896 0.629 0.384 1.234 0.817 1.751 1.346 0.56 0.549 1.018 1.201 1.355 1.91 0.613 1.285 0.823 2.72 0.885 4.132 0.029 0.921 0.027 1.85-0.144 2.759-0.142 0.79-0.395 1.569-0.816 2.255-0.372 0.606-0.888 1.13-1.515 1.468-0.602 0.325-1.29 0.481-1.973 0.467-1.035 0.011-2.039-0.32-2.967-0.754-0.010-1.917-0.009-3.833-0.007-5.75v-0.002c0.001-1.183 0.002-2.366 0-3.549-0.002-0.128-0.001-0.256 0-0.385v-0.001c0.003-0.434 0.005-0.868-0.081-1.295-0.079-0.429-0.253-0.861-0.589-1.152-0.222-0.201-0.51-0.315-0.8-0.376-0.293-0.056-0.605 0.069-0.786 0.305-0.301 0.378-0.381 0.88-0.394 1.351-0.001 3.474-0.001 6.949-0 10.423v0.019c0.001 4.819 0.001 9.638-0.002 14.457-2.224-0.708-4.448-1.416-6.671-2.125-0.002-9.872-0.001-19.744-0-29.617zM55.079 27.028h4.009c0.054-0.019 0.1-0.077 0.1-0.152v-5.833c0-1.867 1.050-3.159 2.581-3.159h16.514c3.723 0 5.528-2.305 5.528-5.326 0-2.707-1.477-4.824-4.505-5.211h-24.302c-0.002 0.005-0.005 0.009-0.007 0.013-0.006 0.010-0.012 0.020-0.012 0.033v1.821c0 0.092 0.046 0.139 0.137 0.139h21.767c1.85 0 2.718 1.337 2.718 3.204s-0.868 3.205-2.718 3.205h-17.222c-2.672 0-4.682 2.283-4.682 5.28v5.833c-0 0.075 0.032 0.133 0.093 0.152zM101.994 21.711v-9.153c0-1.867 0.868-3.204 2.719-3.204h11.419c0.070 0 0.137-0.070 0.137-0.139v-1.821c0-0.016-0.005-0.031-0.011-0.046h-13.962c-3.026 0.386-4.505 2.504-4.505 5.211v9.153c0 1.867-0.892 3.205-2.719 3.205h-12.059c-0.068 0-0.137 0.046-0.137 0.138v1.821c0 0.075 0.046 0.133 0.1 0.152h13.691c3.569-0.094 5.325-2.381 5.325-5.317zM258.027 27.22h0.284l0.003-1.952h0.652v-0.273h-1.591v0.273h0.652v1.952zM260.281 26.703l0.608-1.709h0.444v2.227h-0.296v-1.861l-0.673 1.86h-0.18l-0.671-1.86v1.86h-0.281v-2.227h0.444l0.605 1.71zM227.279 8h27.244v2.050h-23.217v4.716c0 0.748 0.388 1.128 0.74 1.32 0.244 0.127 0.516 0.192 0.791 0.189h16.505c1.011-0.004 2.012 0.213 2.931 0.637 1.423 0.659 3.004 2.004 3.004 4.719 0 5.34-5.181 5.551-5.181 5.551h-22.816v-2.078h20.461c0.723 0.006 1.431-0.201 2.037-0.594 0.733-0.487 1.473-1.357 1.473-2.889 0-1.707-1.045-2.553-1.975-2.969-0.6-0.261-1.247-0.393-1.9-0.387h-16.653c-3.527 0-3.444-2.859-3.444-2.859v-7.405zM192.989 25.096v2.078h11.564c1.381 0.015 2.723-0.472 3.775-1.37 0.543-0.462 0.976-1.040 1.268-1.691s0.435-1.36 0.417-2.074v-8.834c-0.005-0.483 0.097-0.961 0.303-1.398s0.507-0.822 0.881-1.125c0.533-0.418 1.192-0.64 1.868-0.631h10.081v-2.050h-12.007c0 0-5.183 0.083-5.183 5.579v8.249c0.009 0.676-0.172 1.34-0.524 1.917-0.253 0.426-0.617 0.777-1.052 1.015s-0.925 0.356-1.42 0.34l-9.972-0.004zM166.289 10.050v-2.050h22.885c0 0 5.089 0.062 5.089 5.188 0 3.299-2.36 4.465-3.776 4.869-0.499 0.14-1.016 0.209-1.533 0.206h-15.415c-1.935 0-2.763 1.351-3.089 2.193-0.131 0.341-0.197 0.703-0.195 1.069v5.616h-3.967v-5.641c0-2.485 1.415-3.992 2.687-4.632 0.812-0.399 1.707-0.602 2.612-0.594h15.285c0.583 0.005 1.159-0.119 1.688-0.362 0.817-0.386 1.736-1.165 1.736-2.724 0-1.605-0.919-2.396-1.736-2.78-0.52-0.241-1.088-0.363-1.661-0.358h-20.611zM149.456 27.014h0.299v-1.96h0.705v-0.254h-1.711v0.254h0.707v1.96zM151.035 25.215l0.593 1.799h0.295l0.595-1.799v1.799h0.245v-2.213h-0.359l-0.619 1.89-0.639-1.89h-0.411v2.213h0.299v-1.799zM116.203 24.916h21.928c0.067 0 0.112 0.046 0.112 0.092v1.868c0 0.092 0.071 0.138 0.137 0.138h3.952c0.071 0 0.137-0.046 0.137-0.138v-1.822c0-0.069 0.069-0.138 0.137-0.138h3.928c0.091 0 0.137-0.069 0.137-0.138v-1.845c0-0.069-0.047-0.138-0.137-0.138h-3.928c-0.068 0-0.137-0.069-0.137-0.138v-13.303c0-1.086-0.401-1.777-1.077-2.006h-1.144c-0.356 0.092-0.744 0.256-1.159 0.507l-23.617 14.64c-0.914 0.576-1.234 1.221-1.005 1.706 0.182 0.415 0.706 0.715 1.736 0.715zM119.628 22.472l18.296-11.366c0.115-0.092 0.344-0.069 0.344 0.184v11.367c0 0.069-0.071 0.138-0.137 0.138h-18.389c-0.158 0-0.229-0.046-0.25-0.092-0.025-0.092 0.021-0.162 0.137-0.231zM9.025 19.684c-1.233 0.44-2.467 0.881-3.701 1.32-0.212 0.077-0.424 0.152-0.637 0.227-0.498 0.176-0.996 0.351-1.481 0.559-0.804 0.339-1.597 0.719-2.316 1.218-0.311 0.212-0.593 0.485-0.755 0.831-0.168 0.347-0.177 0.762-0.043 1.121 0.161 0.424 0.476 0.769 0.829 1.043 0.641 0.489 1.404 0.787 2.171 1.010 2.34 0.773 4.81 1.156 7.273 1.1 1.223-0.019 2.442-0.167 3.645-0.384 0.013-0.13 0.012-0.261 0.010-0.392v0 0 0-0c-0.001-0.063-0.001-0.126-0-0.188-0.001-0.359-0-0.718 0-1.077v-0.001c0.001-0.608 0.001-1.216-0.003-1.823-0.733 0.263-1.466 0.53-2.198 0.797l-0.739 0.269c-0.377 0.142-0.757 0.276-1.152 0.354-0.585 0.129-1.184 0.174-1.78 0.184-0.535-0.025-1.085-0.054-1.587-0.259-0.181-0.079-0.377-0.184-0.455-0.377-0.062-0.164 0.030-0.332 0.144-0.447 0.245-0.243 0.571-0.38 0.888-0.5 0.883-0.317 1.766-0.635 2.649-0.953 1.407-0.507 2.814-1.013 4.222-1.515 0.014-0.11 0.013-0.221 0.012-0.331v-0c-0-0.045-0.001-0.089-0-0.133-0.001-0.471-0-0.942-0-1.413v-0.001c0.001-0.672 0.001-1.344-0.002-2.016-1.666 0.59-3.33 1.184-4.995 1.779zM30.45 19.59c-0.601 0.021-1.202 0.042-1.8 0.112-1.833 0.212-3.653 0.584-5.395 1.198-0.001 0.854-0.001 1.707-0.001 2.561v1.464c1.336-0.469 2.671-0.941 4.006-1.414l0.002-0.001 0.001-0 0.001-0 0.001-0 0.001-0.001 0.001-0 0.001-0c1.068-0.378 2.137-0.757 3.206-1.133 0.801-0.271 1.652-0.376 2.495-0.381 0.538 0.015 1.089 0.054 1.595 0.255 0.179 0.078 0.373 0.182 0.454 0.369 0.078 0.215-0.078 0.414-0.236 0.539-0.306 0.246-0.678 0.375-1.045 0.503l-0 0c-0.098 0.034-0.196 0.068-0.292 0.104l-1.039 0.372c-3.034 1.087-6.068 2.174-9.103 3.258-0.052 0.010-0.051 0.060-0.049 0.106v0c0.001 0.016 0.001 0.031-0.001 0.044 0.001 0.749 0.001 1.499 0.001 2.249v0c-0 0.5-0 1 0 1.5 3.52-1.271 7.041-2.54 10.561-3.809l2.77-0.999c0.181-0.067 0.362-0.132 0.544-0.196 0.551-0.196 1.102-0.392 1.625-0.659 0.652-0.332 1.302-0.712 1.793-1.265 0.258-0.295 0.439-0.678 0.418-1.078-0.004-0.491-0.305-0.922-0.653-1.241-0.58-0.523-1.306-0.845-2.031-1.111-0.187-0.060-0.372-0.126-0.557-0.193l-0-0c-0.217-0.078-0.433-0.156-0.653-0.223-2.080-0.655-4.266-0.927-6.441-0.935l-0.18 0.006zM38.529 28.947c0.526-0.066 1.075 0.171 1.39 0.599 0.344 0.442 0.407 1.079 0.164 1.583-0.245 0.523-0.806 0.89-1.387 0.871-0.534 0.012-1.052-0.301-1.315-0.763-0.238-0.408-0.266-0.93-0.082-1.363 0.207-0.5 0.694-0.866 1.23-0.926zM38.415 29.229c-0.294 0.067-0.562 0.246-0.738 0.493-0.211 0.29-0.291 0.673-0.211 1.024 0.068 0.326 0.273 0.617 0.55 0.797 0.427 0.282 1.025 0.266 1.433-0.043 0.421-0.299 0.621-0.872 0.477-1.369-0.089-0.336-0.328-0.622-0.629-0.788-0.268-0.143-0.587-0.184-0.881-0.114zM38.544 29.587c-0.165-0-0.329-0-0.494 0.001 0 0.164-0 0.328-0.001 0.493-0.001 0.403-0.001 0.807 0.002 1.211 0.097-0.002 0.194-0.002 0.29-0 0.008-0.148 0.007-0.296 0.006-0.445-0.001-0.084-0.001-0.167-0-0.251 0.056 0 0.112-0 0.167-0.001 0.13-0.001 0.259-0.002 0.389 0.003 0.075-0.002 0.153 0.045 0.172 0.121 0.021 0.082 0.022 0.167 0.022 0.253 0.001 0.109 0.002 0.217 0.045 0.319 0.049-0.001 0.099-0.001 0.148-0.001 0.064 0 0.129-0 0.193-0.002-0.002-0.065-0.035-0.121-0.066-0.175l-0.001-0.001c-0.029-0.088-0.030-0.179-0.032-0.271-0.001-0.071-0.003-0.142-0.017-0.211-0.011-0.070-0.065-0.115-0.116-0.157-0.010-0.008-0.019-0.016-0.029-0.025 0.016-0.017 0.033-0.034 0.050-0.051 0.055-0.054 0.111-0.108 0.124-0.187 0.030-0.157 0.022-0.34-0.089-0.465-0.11-0.119-0.281-0.156-0.436-0.158-0.11 0-0.219 0-0.329 0zM38.348 30.328c0-0.157 0-0.314 0-0.471 0.044-0 0.088-0 0.132-0.001 0.132-0.001 0.263-0.001 0.395 0.002 0.074 0.005 0.164 0.012 0.207 0.083 0.051 0.091 0.052 0.21-0.004 0.3-0.053 0.070-0.149 0.086-0.232 0.086-0.15 0.001-0.299 0.001-0.449-0l-0.049-0z"></path>
    </symbol>

    <symbol id="epic" viewBox="0 0 27 32">
        <svg xmlns="http://www.w3.org/2000/svg" viewBox="0 0 20 24" fill="none">
        <path d="M8.5505 7.81672C8.89209 7.81672 9.05638 7.64572 9.05638 7.27761V4.96391C9.05638 4.59588 8.89209 4.42505 8.5505 4.42505H7.99378V7.81672H8.5505Z" fill="white"/>
        <path d="M7.54287 16.2342L7.55395 16.2688L7.5687 16.3032H6.94724L6.96179 16.2688L6.97287 16.2342L6.98767 16.196L7.00246 16.1616L7.0133 16.127L7.02805 16.0926L7.04284 16.0544L7.05743 16.0198L7.06847 15.9854L7.08326 15.9511L7.09801 15.9165L7.10889 15.8783L7.12368 15.8439L7.13844 15.8093L7.14956 15.7749L7.16411 15.7405L7.1789 15.7021L7.19365 15.6677L7.20453 15.6333L7.21932 15.5987L7.23411 15.5605L7.24516 15.5259L7.2597 15.4915L7.2745 15.5259L7.28558 15.5605L7.30013 15.5987L7.31492 15.6333L7.326 15.6677L7.34075 15.7021L7.35534 15.7405L7.36638 15.7749L7.38118 15.8093L7.39597 15.8439L7.40681 15.8783L7.4216 15.9165L7.43272 15.9511L7.44723 15.9854L7.46202 16.0198L7.47315 16.0544L7.4879 16.0926L7.50244 16.127L7.51353 16.1616L7.52832 16.196L7.54287 16.2342Z" fill="white"/>
        <path fill-rule="evenodd" clip-rule="evenodd" d="M18.1838 0H1.81625C0.489601 0 0 0.506305 0 1.87885V18.4407C0 18.5961 0.00605693 18.7403 0.019325 18.874C0.0218428 18.899 0.0241902 18.9239 0.0265342 18.9488C0.0523093 19.2223 0.0776757 19.4915 0.324656 19.7945C0.350986 19.8268 0.626073 20.0385 0.626073 20.0385C0.652618 20.052 0.677653 20.0648 0.701828 20.0772C0.812411 20.1339 0.905014 20.1813 1.04196 20.2383L9.10154 23.7302C9.51994 23.9285 9.69489 24.0059 9.99879 23.9997H9.99998L10.0012 23.9996C10.3051 24.0058 10.48 23.9285 10.8985 23.7302L18.958 20.2383C19.0948 20.1814 19.1873 20.134 19.2977 20.0774L19.3278 20.062L19.3739 20.0385C19.3739 20.0385 19.649 19.8268 19.6753 19.7945C19.9223 19.4915 19.9477 19.2223 19.9734 18.9488L19.9777 18.9042L19.9806 18.874C19.9939 18.7403 20 18.5961 20 18.4407V1.87885C20 0.506305 19.5104 0 18.1838 0ZM15.7211 8.61853V10.6956C15.7211 11.0637 15.5566 11.2345 15.2152 11.2345H14.962C14.6078 11.2345 14.4433 11.0637 14.4433 10.6956V4.88503C14.4433 4.51696 14.6078 4.34617 14.962 4.34617H15.1897C15.5313 4.34617 15.6959 4.51696 15.6959 4.88503V6.68616H17.024V4.80616C17.024 3.66261 16.4927 3.11045 15.3923 3.11045H14.7343C13.6339 3.11045 13.0897 3.67564 13.0897 4.81941V10.7612C13.0897 11.905 13.6339 12.4701 14.7343 12.4701H15.4049C16.5056 12.4701 17.0494 11.905 17.0494 10.7612V8.61853H15.7211ZM12.3744 12.3913H11.0206V3.18933H12.3744V12.3913ZM8.76543 3.18933H6.64019V12.3913H7.99378V9.05219H8.76543C9.86606 9.05219 10.41 8.48704 10.41 7.34348V4.89829C10.41 3.75452 9.86606 3.18933 8.76543 3.18933ZM5.89805 8.34233H4.3041V11.1162H5.98672V12.3913H2.95055V3.18937H5.9615V4.46438H4.3041V7.06732H5.89805V8.34233ZM17.0875 16.6508L17.0838 16.6891L17.0801 16.731L17.0727 16.7693L17.0617 16.8074L17.0545 16.8418L17.0434 16.88L17.0286 16.9144L17.0138 16.945L16.9993 16.9794L16.9623 17.0405L16.9404 17.0711L16.9219 17.1016L16.9 17.1283L16.8741 17.1551L16.8521 17.178L16.8226 17.2048L16.7969 17.2277L16.7674 17.2506L16.7381 17.2695L16.7087 17.2924L16.6755 17.3115L16.6424 17.3268L16.6094 17.3459L16.5725 17.3612L16.5357 17.3765L16.499 17.3879L16.4623 17.3994L16.4291 17.4108L16.3924 17.4185L16.3263 17.4337L16.2893 17.4414L16.2526 17.4452L16.2196 17.449L16.1826 17.4529L16.1422 17.4567L16.1055 17.4605H15.951L15.9143 17.4567H15.8739L15.8002 17.449L15.7598 17.4452L15.7231 17.4376L15.6863 17.4337L15.6494 17.4261L15.6126 17.4185L15.5759 17.4108L15.5392 17.4032L15.5023 17.3918L15.4692 17.3841L15.3958 17.3612L15.3626 17.3459L15.3258 17.3344L15.2928 17.323L15.256 17.3077L15.2228 17.2924L15.1898 17.2771L15.1567 17.2583L15.1235 17.243L15.0905 17.2238L15.0611 17.2048L15.0279 17.1856L14.9985 17.1666L14.969 17.1475L14.9103 17.1016L14.8808 17.0787L14.8514 17.0558L14.8256 17.0328L14.7962 17.0061L14.8184 16.9756L14.844 16.9488L14.8662 16.9182L14.8919 16.8877L14.914 16.861L14.936 16.8304L14.9618 16.7998L14.9838 16.7731L15.0096 16.7425L15.0316 16.7158L15.0574 16.6852L15.0794 16.6546L15.1016 16.6279L15.1272 16.5974L15.1494 16.5668L15.175 16.54L15.1972 16.5095L15.2265 16.5324L15.2595 16.5553L15.2891 16.5783L15.3221 16.6012L15.3517 16.6203L15.3847 16.6432L15.414 16.6623L15.4473 16.6776L15.4766 16.6967L15.5097 16.712L15.5429 16.7272L15.5759 16.7425L15.609 16.754L15.6422 16.7693L15.7157 16.7922L15.7487 16.8036L15.8591 16.8266L15.8995 16.8304L15.9364 16.838H15.9732L16.0136 16.8418H16.0944L16.1348 16.838L16.1718 16.8304L16.2048 16.8227L16.2378 16.8151L16.2674 16.8036L16.2931 16.7884L16.3226 16.7655L16.3445 16.7387L16.3593 16.7081L16.3704 16.6738L16.3741 16.6355V16.6279L16.3704 16.5821L16.3556 16.5438L16.3371 16.5171L16.3115 16.4942L16.2819 16.4713L16.2526 16.456L16.2196 16.4407L16.1826 16.4254L16.1385 16.4064L16.1129 16.3987L16.0836 16.3911L16.0503 16.3796L16.0173 16.3719L15.9805 16.3605L15.9436 16.3529L15.9032 16.3414L15.8665 16.3338L15.826 16.3223L15.7893 16.3147L15.7524 16.3032L15.7157 16.2955L15.6789 16.2841L15.6457 16.2727L15.609 16.265L15.5429 16.2421L15.5097 16.2306L15.4692 16.2153L15.4325 16.2L15.3588 16.1695L15.3258 16.1504L15.2891 16.1313L15.2595 16.1122L15.2265 16.0931L15.1972 16.0702L15.1676 16.0511L15.142 16.0281L15.1161 16.0014L15.0905 15.9746L15.0683 15.9479L15.0464 15.9212L15.0279 15.8944L15.0096 15.8639L14.9912 15.8295L14.9764 15.803L14.9653 15.7724L14.9545 15.738L14.9434 15.7075L14.936 15.6692L14.9286 15.6349L14.9249 15.5967L14.9212 15.5585L14.9175 15.5165V15.4286L14.9212 15.3904L14.9249 15.356L14.9286 15.3178L14.9434 15.2491L14.9545 15.2146L14.9618 15.1803L14.9764 15.1459L15.0059 15.0772L15.0242 15.0427L15.0426 15.0084L15.0646 14.9778L15.0868 14.9472L15.1124 14.9167L15.1383 14.89L15.1639 14.8594L15.1935 14.8326L15.2191 14.8135L15.2487 14.7906L15.278 14.7677L15.3073 14.7486L15.3406 14.7295L15.3736 14.7142L15.4066 14.6951L15.4399 14.6799L15.4766 14.6684L15.5133 14.6531L15.5466 14.6416L15.5759 14.634L15.6422 14.6187L15.6789 14.6111L15.712 14.6034L15.8591 14.5882H16.0173L16.0981 14.5958H16.1348L16.1754 14.5996L16.2122 14.6073L16.2526 14.6111L16.2893 14.6187L16.3226 14.6263L16.3593 14.634L16.396 14.6416L16.4291 14.6493L16.466 14.6607L16.499 14.6722L16.5321 14.6799L16.569 14.6951L16.602 14.7066L16.6681 14.7371L16.705 14.7524L16.7381 14.7715L16.7674 14.7868L16.8007 14.8059L16.8337 14.825L16.863 14.8441L16.8963 14.8671L16.9256 14.8861L16.9552 14.9091L17.0138 14.9549L16.9919 14.9855L16.9734 15.016L16.9515 15.0466L16.9293 15.0772L16.9074 15.1115L16.8889 15.1421L16.8667 15.1727L16.8447 15.2032L16.8263 15.2338L16.8043 15.2644L16.7822 15.2949L16.7637 15.3255L16.7418 15.3598L16.7196 15.3904L16.6976 15.421L16.6792 15.4515L16.6572 15.4821L16.6277 15.4592L16.5947 15.44L16.5653 15.421L16.5357 15.398L16.5027 15.3828L16.4732 15.3636L16.4402 15.3483L16.4108 15.3331L16.3776 15.3178L16.3482 15.3025L16.3152 15.2911L16.2857 15.2758L16.2452 15.2644L16.2085 15.2529L16.1718 15.2414L16.0981 15.2261L16.0614 15.2185L16.0247 15.2146L15.9877 15.2108L15.9547 15.207H15.8739L15.8334 15.2146L15.7965 15.2223L15.7635 15.2299L15.7341 15.2452L15.7083 15.2605L15.6752 15.2911L15.653 15.3255L15.6385 15.3598L15.6348 15.398V15.4057L15.6385 15.4553L15.6568 15.4974L15.6716 15.5203L15.6972 15.547L15.7304 15.5661L15.7598 15.5852L15.7965 15.6005L15.8371 15.6158L15.8812 15.6311L15.9106 15.6387L15.9399 15.6502L15.9732 15.6578L16.0062 15.6692L16.0429 15.6769L16.124 15.6998L16.1644 15.7113L16.2048 15.7189L16.2415 15.7304L16.2819 15.7419L16.3189 15.7495L16.3924 15.7724L16.4254 15.7839L16.4623 15.7953L16.5284 15.8183L16.569 15.8333L16.6057 15.8524L16.6424 15.8677L16.6792 15.8868L16.7124 15.9059L16.7455 15.925L16.7748 15.9441L16.8043 15.967L16.8337 15.9861L16.863 16.0129L16.8926 16.0396L16.9182 16.0702L16.9441 16.0969L16.966 16.1275L16.9882 16.1618L17.0064 16.1924L17.0249 16.2268L17.0397 16.2574L17.0508 16.2917L17.0617 16.3261L17.069 16.3605L17.0838 16.4369L17.0875 16.4751L17.0912 16.5171V16.6088L17.0875 16.6508ZM14.545 16.7845V17.4147H12.4009V14.634H14.5266V15.2644H13.1032V15.7189H14.3831V16.3108H13.1032V16.7845H14.545ZM11.8578 14.634V17.4147H11.1481V15.7704L11.1297 15.8009L11.1077 15.8356L11.0892 15.8661L11.0673 15.8967L11.0489 15.9311L11.0266 15.9616L11.0084 15.9922L10.9899 16.0268L10.968 16.0574L10.9495 16.0879L10.9274 16.1185L10.9091 16.1531L10.887 16.1837L10.8687 16.2142L10.8502 16.2486L10.828 16.2794L10.8098 16.3099L10.7876 16.3443L10.7694 16.3749L10.7472 16.4054L10.729 16.44L10.7105 16.4706L10.6884 16.5012L10.6701 16.5356L10.6479 16.5663L10.6297 16.5969L10.6075 16.6275L10.589 16.6618L10.5708 16.6926L10.5486 16.7232L10.5304 16.7576L10.5082 16.7881L10.4897 16.8187L10.4678 16.8533L10.4493 16.8839H10.4347L10.4126 16.8495L10.3941 16.8187L10.3721 16.7843L10.3537 16.7537L10.3317 16.7194L10.3133 16.6886L10.2913 16.6542L10.2728 16.6236L10.2507 16.5893L10.2324 16.5587L10.2102 16.5241L10.192 16.4935L10.1699 16.4591L10.1514 16.4286L10.1294 16.394L10.1109 16.3634L10.089 16.329L10.0669 16.2985L10.0484 16.2639L10.0264 16.2333L10.008 16.1989L9.98601 16.1684L9.96755 16.1338L9.94559 16.1032L9.92713 16.0688L9.90496 16.0383L9.8867 16.0039L9.86454 15.9731L9.84628 15.9387L9.82411 15.9081L9.80565 15.8737L9.78373 15.8432L9.76519 15.8086L9.74327 15.778V17.4147H9.04443V14.634H9.79848L9.81674 14.6646L9.8352 14.6989L9.85712 14.7292L9.87562 14.7636L9.89408 14.7942L9.91233 14.8286L9.93079 14.8589L9.9528 14.8933L9.97121 14.9239L9.98972 14.9544L10.008 14.9886L10.0264 15.0192L10.0484 15.0535L10.0669 15.0841L10.0853 15.1182L10.1036 15.1488L10.1257 15.1793L10.1442 15.2136L10.1624 15.2441L10.1809 15.2785L10.1992 15.3091L10.2214 15.3432L10.2398 15.3738L10.258 15.4081L10.2765 15.4385L10.2948 15.469L10.317 15.5034L10.3354 15.534L10.3537 15.5684L10.3721 15.5987L10.3904 15.6331L10.4126 15.6637L10.4311 15.6978L10.4493 15.7284L10.4678 15.6978L10.4862 15.6637L10.5082 15.6331L10.5266 15.5987L10.5449 15.5684L10.5634 15.534L10.5853 15.5034L10.6038 15.469L10.6223 15.4385L10.6405 15.4081L10.6627 15.3738L10.6809 15.3432L10.6994 15.3091L10.7179 15.2785L10.7398 15.2441L10.7583 15.2136L10.7768 15.1793L10.795 15.1488L10.8135 15.1182L10.8355 15.0841L10.8539 15.0535L10.8724 15.0192L10.8907 14.9886L10.9128 14.9544L10.9311 14.9239L10.9495 14.8933L10.968 14.8589L10.9899 14.8286L11.0084 14.7942L11.0266 14.7636L11.0451 14.7292L11.0673 14.6989L11.0856 14.6646L11.104 14.634H11.8578ZM8.73085 17.3803L8.74561 17.4147H7.98792L7.97334 17.3803L7.96225 17.3459L7.9475 17.3115L7.93271 17.2733L7.92183 17.2391L7.89229 17.1704L7.88141 17.136L7.86666 17.1016L7.85186 17.0672L7.84082 17.0328L7.82623 16.9947L7.81144 16.9603L7.80036 16.9259L7.78556 16.8915H6.73013L6.71559 16.9259L6.7045 16.9603L6.68971 16.9947L6.67496 17.0328L6.66408 17.0672L6.64933 17.1016L6.63454 17.136L6.62345 17.1704L6.60891 17.2048L6.59411 17.2391L6.58303 17.2733L6.56844 17.3115L6.55369 17.3459L6.54261 17.3803L6.52782 17.4147H5.78509L5.79964 17.3803L5.81443 17.3459L5.82918 17.3115L5.84377 17.2733L5.85485 17.2391L5.86964 17.2048L5.88439 17.1704L5.89894 17.136L5.91373 17.1016L5.92853 17.0634L5.94307 17.029L5.95786 16.9947L5.96891 16.9603L5.9837 16.9259L5.99824 16.8915L6.01304 16.8533L6.02779 16.8189L6.04238 16.7845L6.05717 16.7502L6.07192 16.7158L6.083 16.6814L6.09755 16.6432L6.12714 16.5744L6.14168 16.54L6.17127 16.4713L6.18581 16.4331L6.1969 16.3987L6.21169 16.3643L6.22644 16.3299L6.24103 16.2955L6.25578 16.2612L6.27053 16.223L6.28512 16.1886L6.29987 16.1542L6.31095 16.1198L6.32574 16.0855L6.34029 16.0511L6.35508 16.0129L6.36988 15.9785L6.38442 15.9441L6.39917 15.9097L6.41397 15.8754L6.42505 15.8409L6.43964 15.8068L6.45439 15.7686L6.46914 15.7342L6.48373 15.6998L6.49848 15.6654L6.51327 15.6311L6.52782 15.5967L6.5389 15.5585L6.55369 15.5241L6.56844 15.4897L6.58303 15.4553L6.59782 15.421L6.61257 15.3866L6.62716 15.3483L6.64191 15.314L6.653 15.2796L6.66775 15.2452L6.68233 15.2108L6.69709 15.1765L6.71188 15.1383L6.72642 15.1039L6.75601 15.0351L6.76685 15.0008L6.78164 14.9663L6.79643 14.9282L6.81122 14.8938L6.82577 14.8594L6.84056 14.825L6.85531 14.7906L6.86986 14.7563L6.88099 14.718L6.89574 14.6837L6.91053 14.6493L6.92508 14.6149H7.60546L7.62021 14.6493L7.635 14.6837L7.64959 14.718L7.66434 14.7563L7.67542 14.7906L7.68997 14.825L7.70476 14.8594L7.71951 14.8938L7.73431 14.9282L7.74885 14.9663L7.77844 15.0351L7.78927 15.0695L7.81886 15.1383L7.83365 15.1765L7.8482 15.2108L7.86295 15.2452L7.87774 15.2796L7.89229 15.314L7.90337 15.3483L7.91812 15.3866L7.93271 15.421L7.9475 15.4553L7.96225 15.4897L7.97705 15.5241L7.99159 15.5585L8.00634 15.5967L8.01747 15.6311L8.03201 15.6654L8.07635 15.7686L8.0909 15.8068L8.10569 15.8409L8.12044 15.8754L8.13132 15.9097L8.14607 15.9441L8.16086 15.9785L8.17545 16.0129L8.1902 16.0511L8.21979 16.1198L8.23433 16.1542L8.24541 16.1886L8.26017 16.223L8.27475 16.2612L8.2895 16.2955L8.3043 16.3299L8.31905 16.3643L8.33364 16.3987L8.34843 16.4331L8.35947 16.4713L8.37406 16.5057L8.38881 16.54L8.4036 16.5744L8.41815 16.6088L8.43294 16.6432L8.44773 16.6814L8.46253 16.7158L8.47336 16.7502L8.50295 16.8189L8.51749 16.8533L8.53224 16.8915L8.54704 16.9259L8.56179 16.9603L8.57633 16.9947L8.58746 17.029L8.60225 17.0634L8.6168 17.1016L8.6463 17.1704L8.66089 17.2048L8.67564 17.2391L8.69043 17.2733L8.70156 17.3115L8.71606 17.3459L8.73085 17.3803ZM5.48697 17.0596L5.45743 17.0825L5.43176 17.1016L5.40221 17.1245L5.37287 17.1436L5.34354 17.1666L5.31399 17.1856L5.28465 17.2048L5.2514 17.2238L5.18531 17.2621L5.1521 17.2771L5.11905 17.2962L5.08233 17.3115L5.04933 17.3268L5.01237 17.342L4.97936 17.3573L4.94627 17.3688L4.91306 17.3803L4.88002 17.3918L4.8433 17.4032L4.8103 17.4147L4.77334 17.4223L4.74029 17.4299L4.70358 17.4376L4.66666 17.4452L4.6299 17.449L4.58948 17.4529L4.55276 17.4567L4.51234 17.4605L4.47538 17.4643L4.435 17.4681H4.27677L4.24006 17.4643L4.19964 17.4605L4.08925 17.449L4.01578 17.4337L3.98277 17.4261L3.94585 17.4185L3.91281 17.407L3.87609 17.3994L3.84284 17.3879L3.80979 17.3726L3.77675 17.3612L3.74007 17.3459L3.70682 17.3306L3.67377 17.3154L3.64077 17.3001L3.60748 17.281L3.57818 17.2621L3.54513 17.243L3.51559 17.2238L3.48625 17.2048L3.45671 17.1818L3.39799 17.136L3.37215 17.1131L3.34652 17.0902L3.32065 17.0634L3.29502 17.0405L3.26914 17.0138L3.24351 16.987L3.22134 16.9603L3.19938 16.9297L3.17721 16.903L3.15875 16.8724L3.13679 16.8418L3.11837 16.8113L3.10007 16.7807L3.08161 16.7463L3.06315 16.7158L3.04861 16.6814L3.03382 16.647L3.01906 16.6126L3.00448 16.5783L2.99339 16.5477L2.9786 16.5133L2.97122 16.4789L2.96035 16.4446L2.95297 16.4064L2.94189 16.3719L2.93451 16.3338L2.9308 16.2994L2.92339 16.2612L2.91976 16.2268L2.91601 16.1886L2.91255 16.1504L2.90888 16.1122V15.9861L2.91255 15.9441V15.9059L2.91601 15.8677L2.91976 15.8257L2.92714 15.7877L2.9308 15.7495L2.93818 15.7151L2.94926 15.6769L2.95668 15.6387L2.96752 15.6043L2.9786 15.5661L2.98969 15.5317L3.00448 15.4935L3.01906 15.4592L3.03382 15.4248L3.04861 15.3904L3.06315 15.356L3.08161 15.3216L3.10007 15.2911L3.11837 15.2605L3.13679 15.2299L3.15529 15.1994L3.17721 15.1688L3.19938 15.1383L3.22134 15.1077L3.24351 15.0809L3.26914 15.0542L3.29131 15.0274L3.34281 14.974L3.36844 14.9511L3.39799 14.9243L3.42366 14.9014L3.453 14.8785L3.48254 14.8594L3.51188 14.8365L3.54146 14.8174L3.57076 14.7983L3.60381 14.7791L3.63706 14.7601L3.67007 14.741L3.70311 14.7257L3.73632 14.7104L3.77308 14.6913L3.80242 14.6799L3.83913 14.6684L3.87242 14.6531L3.90543 14.6454L3.93844 14.634L3.97536 14.6263L4.0084 14.6149L4.04512 14.6073L4.08187 14.6034L4.11879 14.5958L4.26594 14.5805H4.42388L4.50497 14.5882H4.54168L4.57839 14.592L4.61882 14.5996L4.65207 14.6034L4.68878 14.6111L4.72554 14.6187L4.75875 14.6263L4.82484 14.6416L4.8581 14.6531L4.8911 14.6607L4.92044 14.6722L4.95369 14.6837L4.98674 14.6989L5.01974 14.7142L5.053 14.7295L5.08604 14.7486L5.11905 14.7639L5.14863 14.783L5.18164 14.8021L5.21098 14.8212L5.24423 14.8403L5.27357 14.8632L5.30291 14.8823L5.33245 14.9052L5.36179 14.9282L5.39133 14.9549L5.42067 14.9778L5.3985 15.0084L5.37287 15.0351L5.3507 15.0657L5.32507 15.0962L5.30291 15.1268L5.28094 15.1535L5.25507 15.1841L5.23315 15.2146L5.21098 15.2414L5.18531 15.272L5.16318 15.3025L5.13751 15.3331L5.11534 15.3598L5.09342 15.3904L5.06758 15.421L5.04558 15.4515L5.01974 15.4783L4.99778 15.5088L4.96824 15.4859L4.9389 15.4592L4.90936 15.44L4.88002 15.4171L4.85068 15.398L4.79176 15.3598L4.75875 15.3407L4.72921 15.3255L4.69987 15.3102L4.67032 15.2987L4.60427 15.2758L4.57102 15.2682L4.53431 15.2605L4.49759 15.2529L4.46084 15.2491L4.42041 15.2452L4.37979 15.2414H4.30265L4.26594 15.2452L4.23268 15.2491L4.19597 15.2567L4.16292 15.2644L4.12967 15.2758L4.09666 15.2872L4.06362 15.3025L4.03057 15.3178L4.00103 15.3369L3.97173 15.356L3.94214 15.3751L3.91651 15.398L3.89064 15.421L3.86501 15.4439L3.84284 15.4706L3.81721 15.4974L3.79504 15.5279L3.77675 15.5547L3.75829 15.5852L3.74007 15.6196L3.72157 15.6502L3.70682 15.6845L3.69574 15.7189L3.68115 15.7533L3.67007 15.7915L3.66269 15.8295L3.65531 15.8639L3.6479 15.9059L3.64423 15.9441L3.64077 15.9823V16.0702L3.64423 16.1084L3.6479 16.1427L3.65161 16.181L3.67377 16.2841L3.68486 16.3185L3.69574 16.349L3.71053 16.3872L3.72528 16.4216L3.74353 16.456L3.78045 16.5171L3.80242 16.5477L3.82459 16.5744L3.85021 16.6012L3.87242 16.6279L3.89801 16.6508L3.9276 16.6738L3.95694 16.6967L3.98623 16.7158L4.01578 16.7349L4.08187 16.7655L4.11508 16.7807L4.18855 16.8036L4.26223 16.8189L4.29894 16.8227L4.33936 16.8266H4.42388L4.50497 16.8189L4.54168 16.8151L4.57839 16.8074L4.61536 16.7998L4.65207 16.7884L4.68508 16.7807L4.71816 16.7655L4.74771 16.7502L4.78071 16.7349L4.80655 16.7196L4.83593 16.7005V16.3529H4.29894V15.7953H5.5126V17.0367L5.48697 17.0596ZM13.8927 20.7116H6.14386L9.93754 22.0604L13.8927 20.7116Z" fill="white"/>
        </svg>
    </symbol>

    <symbol id="steamLogo" viewBox="0 0 101 32">
        <path fill="#fff" style="fill: var(--color1, #fff)" d="M0.341 14.745c0.62-8.054 7.15-14.392 15.12-14.392 8.379 0 15.172 7.005 15.172 15.647 0 8.641-6.793 15.646-15.172 15.646-6.945 0-12.796-4.815-14.597-11.382l5.816 2.478c0.394 2.026 2.132 3.556 4.211 3.556 2.368 0 4.295-1.986 4.295-4.429 0-0.070-0.002-0.14-0.005-0.209l5.158-3.795c0.043 0.003 0.086 0.003 0.13 0.003 3.155 0 5.721-2.647 5.721-5.901s-2.566-5.901-5.721-5.901c-3.155 0-5.722 2.647-5.722 5.901v0.076l-3.616 5.406c-0.079-0.004-0.159-0.007-0.239-0.007-0.896 0-1.728 0.285-2.417 0.771l-8.132-3.467zM7.987 23.3l1.864 0.794c1.21 0.52 2.6-0.070 3.103-1.318 0.504-1.247-0.068-2.68-1.278-3.2l-1.925-0.821c0.742-0.289 1.587-0.301 2.375 0.037 0.795 0.342 1.413 0.982 1.74 1.803s0.326 1.724-0.005 2.543c-0.684 1.693-2.574 2.495-4.214 1.791-0.759-0.326-1.33-0.92-1.66-1.629zM24.279 11.967c0-2.168-1.71-3.932-3.812-3.932s-3.813 1.764-3.813 3.932c0 2.168 1.71 3.931 3.813 3.931s3.812-1.763 3.812-3.931zM17.609 11.961c0-1.631 1.282-2.953 2.864-2.953s2.864 1.322 2.864 2.953-1.282 2.953-2.864 2.953c-1.582 0-2.864-1.323-2.864-2.953zM46.836 11.059l-1.017 1.843c-0.783-0.564-1.844-0.904-2.771-0.904-1.059 0-1.714 0.452-1.714 1.262 0 0.832 0.832 1.124 2.134 1.581l0 0c0.238 0.084 0.492 0.173 0.759 0.271 1.859 0.678 2.928 1.475 2.928 3.231 0 2.403-1.832 3.752-4.465 3.752-1.283 0-2.832-0.342-4.022-1.088l0.741-2.043c0.967 0.527 2.123 0.839 3.154 0.839 1.39 0 2.050-0.529 2.050-1.311 0-0.828-0.863-1.12-2.282-1.599l-0-0c-0.114-0.038-0.231-0.078-0.351-0.119-1.853-0.638-3.137-1.475-3.137-3.419 0-2.192 1.702-3.451 4.151-3.451 1.707 0 3.079 0.558 3.84 1.154zM52.388 21.894v-9.67h-3.474v-2.117h9.332v2.117h-3.464v9.67h-2.394zM67.872 16.991v-2.117h-4.581v-2.656h5.315v-2.111h-7.708v11.787h7.708v-2.137h-5.315v-2.766h4.581zM73.948 19.605l-0.757 2.289h-2.509l4.285-11.787h2.409l4.407 11.787h-2.594l-0.773-2.289-4.469 0zM76.159 12.918l-1.561 4.719h3.154l-1.593-4.719zM86.513 14.724l3.077 6.826h1.351l3.128-6.887v7.231h2.292v-11.787h-2.307l-3.705 8.509-3.841-8.509h-2.287v11.787h2.292v-7.169zM101.33 11.594c0 1.013-0.736 1.644-1.581 1.644-0.848 0-1.586-0.631-1.586-1.644s0.738-1.64 1.586-1.64c0.845 0 1.581 0.627 1.581 1.64zM98.43 11.594c0 0.847 0.592 1.38 1.32 1.38 0.725 0 1.315-0.532 1.315-1.38 0-0.85-0.59-1.374-1.315-1.374s-1.32 0.531-1.32 1.374zM99.772 10.756c0.41 0 0.548 0.224 0.548 0.465 0 0.221-0.127 0.37-0.282 0.446l0.367 0.71h-0.301l-0.31-0.629h-0.319v0.629h-0.25v-1.621h0.547zM99.477 11.51h0.279c0.181 0 0.287-0.117 0.287-0.264 0-0.149-0.077-0.244-0.288-0.244h-0.279l0 0.508z"></path>
    </symbol>

    <symbol id="DDoD" viewBox="0 0 120 32">
        <path fill="#fff" style="fill: var(--color1, #fff)" d="M23.090 4.633c-2.837-3.089-6.414-4.633-10.73-4.633h-12.36v31.796h12.36c4.316 0 7.893-1.529 10.73-4.588 2.867-3.089 4.301-6.859 4.301-11.31s-1.434-8.206-4.301-11.265zM20.283 24.392c-2.052 2.271-4.693 3.407-7.923 3.407h-8.149v-23.802h8.149c3.23 0 5.871 1.136 7.923 3.407s3.079 5.103 3.079 8.494c0 3.392-1.026 6.223-3.079 8.494z"></path>
        <path fill="#fff" style="fill: var(--color1, #fff)" d="M55.586 4.633c-2.837-3.089-6.414-4.633-10.73-4.633h-12.36v31.796h12.36c4.316 0 7.893-1.529 10.73-4.588 2.867-3.089 4.301-6.859 4.301-11.31s-1.434-8.206-4.301-11.265zM52.779 24.392c-2.053 2.271-4.694 3.407-7.923 3.407h-8.149v-23.802h8.149c3.229 0 5.87 1.136 7.923 3.407s3.078 5.103 3.078 8.494c0 3.392-1.026 6.223-3.078 8.494z"></path>
        <path fill="#fff" style="fill: var(--color1, #fff)" d="M72.058 32c0.267-0.866 1.004-2.081 2.626-2.67 2.016-0.732 3.214 0.375 3.711 0.835 0.134 0.124 0.217 0.2 0.251 0.182 0.401-0.061 0.185-0.584-0.074-0.903-0.050-0.061-0.099-0.13-0.15-0.2-0.216-0.298-0.462-0.64-0.898-0.671-0.429-0.031-0.504-0.105-0.483-0.241-0.504 0.090-1.271 0.196-1.816 0.196-2.234 0-4.12-0.772-5.659-2.317s-2.309-3.467-2.309-5.769c0-2.301 0.77-4.224 2.309-5.769s3.426-2.317 5.659-2.317c2.264 0 4.165 0.772 5.704 2.317s2.309 3.467 2.309 5.769c0 2.301-0.77 4.224-2.309 5.769-0.545 0.547-1.135 0.997-1.771 1.35 0.079 0.251 0.224 0.551 0.475 0.786 0.466 0.437 1.43 1.467 1.718 2.419 0.829-0.496 1.609-1.106 2.34-1.829 2.324-2.301 3.486-5.133 3.486-8.494s-1.162-6.193-3.486-8.494c-2.324-2.301-5.146-3.452-8.466-3.452s-6.142 1.151-8.466 3.452c-2.294 2.301-3.441 5.133-3.441 8.494s1.147 6.193 3.441 8.494c1.546 1.531 3.312 2.553 5.299 3.065z"></path>
        <path fill="#fff" style="fill: var(--color1, #fff)" d="M115.318 4.633c-2.837-3.089-6.414-4.633-10.73-4.633h-12.36v31.796h12.36c4.316 0 7.893-1.529 10.73-4.588 2.867-3.089 4.301-6.859 4.301-11.31s-1.434-8.206-4.301-11.265zM112.511 24.392c-2.052 2.271-4.693 3.407-7.923 3.407h-8.149v-23.802h8.149c3.229 0 5.87 1.136 7.923 3.407s3.079 5.103 3.079 8.494c0 3.392-1.026 6.223-3.079 8.494z"></path>
    </symbol>

    <symbol id="logoMobAdventure" viewBox="0 0 23 32">
        <path d="M17.322 14.004c1.887 0.731 4.696-0.124 5.339-3.801s-1.163-4.734-1.163-4.734c0 0 0.573-1.708-0.067-3.536s-1.371-1.933-1.371-1.933c0 0 0.476 0.66 0.342 2.135s-1.233 2.201-1.233 2.201-0.965-0.741-1.713 1.133c-0.299 0.749-0.494 1.426-0.667 2.026-0.261 0.903-0.471 1.633-0.908 2.176-0.727 0.901-1.478 3.206 1.441 4.333z"></path>
        <path d="M8.282 26.079c0.525 0.689 1.123 0.552 1.686 0.423 0.494-0.113 0.961-0.22 1.327 0.243 0.31 0.392 0.018 0.988-0.312 1.66-0.503 1.025-1.092 2.226 0.245 3.143 2.212 1.518 5.423-1.045 6.093-3.869 0.371-1.562 0.17-2.516-0.005-3.351-0.142-0.675-0.267-1.273-0.062-2.053 0.076-0.289 0.184-0.629 0.302-1 0.593-1.869 1.44-4.537-0.235-5.537-2.008-1.198-3.761-0.31-4.381 1.6s-2.018 4.049-3.358 5.005c-1.341 0.953-2.34 2.374-1.3 3.735z"></path>
        <path d="M11.185 15.718c-1.88 4.669-5.363 9.933-8.802 7.311-4.126-3.148-2.316-11.379 1.052-14.808 3.375-3.428 9.693-7.213 11-5.92s-1.371 8.747-3.251 13.416z"></path>
    </symbol>

    <symbol id="leftBtn" viewBox="0 0 32 32">
        <path   stroke-linejoin="miter" stroke-linecap="butt" stroke-miterlimit="4" stroke-width="0.6957" d="M6.817 0.696l-1.224 1.53-1.837 1.53-3.061 3.061v24.487l3.061-0.306 1.224-0.306 3.061 0.612h23.263v-30.609h-24.487z"></path>
        <path   stroke-linejoin="bevel" stroke-linecap="butt" stroke-miterlimit="4" stroke-width="1.3913" d="M18.783 21.565l-5.565-5.565 5.565-5.565"></path>
    </symbol>

    <symbol id="rightBtn" viewBox="0 0 32 32">
        <path  stroke-linejoin="miter" stroke-linecap="butt" stroke-miterlimit="4" stroke-width="0.6957" d="M25.183 31.304l6.122-6.122v-23.875l-1.224-0.612h-29.384v30.609l11.937-0.306 3.367 0.306 2.755-0.918 0.306-0.306v1.224h6.122z"></path>
        <path  stroke-linejoin="bevel" stroke-linecap="butt" stroke-miterlimit="4" stroke-width="1.3913" d="M13.217 10.435l5.565 5.565-2.473 2.164-3.092 3.401"></path>
    </symbol>

    <symbol id="closeModalBtn" viewBox="0 0 32 32">
        <path d="M2.73074 19.8385C2.32785 20.242 2.32785 20.8962 2.73074 21.2998C3.13363 21.7033 3.78685 21.7033 4.18975 21.2998L12.05 13.4271L13.9742 14.3908L11.8122 13.6866L19.8103 21.6973C20.2131 22.1009 20.8664 22.1009 21.2693 21.6973C21.6722 21.2938 21.6722 20.6396 21.2693 20.236L13.2605 12.2146L21.6978 3.76397C22.1007 3.36043 22.1007 2.70618 21.6978 2.30265C21.2949 1.89912 20.6417 1.89912 20.2388 2.30265L11.8015 10.7533L3.76118 2.70022C3.35828 2.29669 2.70506 2.29669 2.30217 2.70022C1.89928 3.10375 1.89928 3.758 2.30217 4.16154L10.3425 12.2146L7.47251 15.0892L7.10776 16.1852L4.5545 18.0118L2.73074 19.8385Z" fill="white"/>
    </symbol>

    <symbol id="successIcon" viewBox="0 0 41 32">
        <path  d="M20.986 27.909c0.071-0.078 0.127-0.141 0.158-0.172 0.090-0.152 0.441-0.482 0.689-0.714 0.093-0.087 0.171-0.16 0.215-0.205 0.123-0.125 0.658-0.752 0.658-0.752s4.606-4.682 4.729-4.723c0.207-0.030 0.456-0.405 0.626-0.66 0.067-0.1 0.121-0.182 0.156-0.217 0.088-0.090 0.164-0.215 0.235-0.332 0.061-0.101 0.119-0.195 0.176-0.253 0.123-0.125 0.658-0.418 0.658-0.418l1.809-1.959 0.576-0.585 0.288-0.543 0.329-0.334 0.658-0.418 7.855-7.984c-0.087 0.059-0.184 0.107-0.286 0.158-0.188 0.094-0.392 0.196-0.578 0.385l-0.946 0.961c0 0-0.617 0.46-0.781 0.711-0.078 0.079-0.238 0.223-0.407 0.375-0.189 0.17-0.389 0.35-0.498 0.461-0.084 0.085-0.177 0.161-0.269 0.235-0.178 0.144-0.349 0.283-0.43 0.476l-0.535 0.543c-0.164 0.167-0.864 0.878-0.905 1.003-0.037 0.038-0.074 0.092-0.115 0.152-0.050 0.073-0.105 0.155-0.173 0.224 0 0.084-0.247 0.167-0.247 0.167l-0.494 0.418-0.576 0.585c0 0.062-0.361 0.399-0.599 0.621-0.083 0.077-0.151 0.141-0.183 0.173-0.123 0.125-0.411 0.251-0.411 0.251s0.699-0.794 0.822-0.92c0.041-0.042 0.195-0.219 0.35-0.397s0.308-0.355 0.35-0.397l0.946-0.961c0.082-0.084 0.195-0.24 0.308-0.397s0.226-0.313 0.308-0.397l1.357-1.379 0.658-0.836c0 0 0.987-0.92 1.151-1.003 0.082-0.084 0.864-0.961 0.864-0.961l0.329-0.418 0.576-0.752-0.699-0.794-0.535-0.543-0.165-0.669-0.206-0.543-0.493-0.418-0.206-0.627-0.658-0.502-0.288-0.293-0.452-0.293-2.056-1.492-0.123-0.543c0 0-2.879 2.508-3.002 2.717 0 0.119-0.315 0.388-0.554 0.593-0.096 0.082-0.18 0.154-0.227 0.201-0.054 0.055-0.1 0.149-0.152 0.256-0.067 0.138-0.144 0.295-0.259 0.413-0.082 0.084-0.144 0.188-0.206 0.293s-0.123 0.209-0.206 0.293-0.658 0.502-0.658 0.502l-4.524 4.514-0.987 1.003c-0.206 0.209-0.247 0.251-0.329 0.502-0.123 0.209-0.37 0.46-0.37 0.46l-0.781 0.543-1.54 1.795-1.398 1.338c0 0-0.576 0.585-0.699 0.794-0.082 0.125-0.185 0.23-0.298 0.345s-0.236 0.24-0.36 0.408c-0.247 0.251-0.74 0.669-0.74 0.669s-0.231 0.211-0.461 0.435c-1.434-1.428-3.121-2.843-3.121-2.843l-2.84-2.651-3.29-3.344-0.987 0.167-0.411 0.167-0.452 0.042c0 0-0.576 0.502-0.74 0.669s-0.493 0.585-0.493 0.585l-0.206 0.293c0 0-0.329 0.251-0.493 0.418s-0.535 0.125-0.535 0.125l-2.325 2.42-0.864 0.961 1.151 0.92 2.673 2.717 1.010 0.874 0.452 0.46 0.699 0.46 0.288 0.543 0.637 0.648 0.401 0.492 0.946 0.961c0.3 0.305 0.447 0.473 0.548 0.589 0.205 0.235 0.225 0.258 0.94 0.761 0 0 0.576 0.334 0.864 0.543 0.144 0.104 0.206 0.167 0.252 0.214s0.077 0.078 0.159 0.12c0.155 0.094 0.24 0.212 0.482 0.55 0.039 0.055 0.083 0.115 0.132 0.182l-0.073 0.072c0 0 0.164 0.585 0.288 0.711 0.022 0.023 0.057 0.052 0.098 0.086 0.11 0.092 0.265 0.222 0.355 0.374 0.062 0.19 0.267 0.381 0.452 0.553 0.059 0.055 0.116 0.108 0.165 0.158 0.082 0.084 0.123 0.209 0.164 0.334s0.082 0.251 0.165 0.334c0.054 0.055 0.163 0.117 0.285 0.188 0.158 0.091 0.339 0.196 0.455 0.314 0.165 0.167 0.493 0.502 0.576 0.752 0.023 0.070 0.174 0.166 0.331 0.266 0.125 0.080 0.254 0.162 0.327 0.236 0.057 0.058 0.159 0.125 0.268 0.197 0.126 0.083 0.261 0.173 0.349 0.262 0.123 0.125 0.822 0.585 0.822 0.585l0.288 0.46 3.331-3.386c0.154-0.094 0.493-0.47 0.706-0.705z"></path>
    </symbol>

    <symbol id="whiteBtn" viewBox="0 0 89 32">
        <path d="M0.533 32l-0.533-31.467 1.602-0.41 0.531-0.123 5.808 0.098c0 0 0.312 0.094 0.62 0.17 0.101 0.025 0.201 0.048 0.29 0.065 0.093 0.018 0.174 0.029 0.228 0.029 0.062 0 0.133-0.010 0.21-0.024 0.074-0.014 0.154-0.033 0.237-0.053l0.017-0.004c0.085-0.020 0.173-0.041 0.26-0.058l0.096-0.017 0.089-0.012 0.079-0.007 0.063-0.002c0.074 0 0.218-0.028 0.393-0.062 0.448-0.087 1.106-0.216 1.358-0.026 0.175 0.088 9.981 0.088 9.981 0.088s1.226-0.088 1.488-0.088c0.095 0 0.255 0.007 0.444 0.014 0.184 0.007 0.396 0.016 0.603 0.021 0.365 0.009 0.716 0.006 0.879-0.035 0.066 0 0.192-0.005 0.349-0.012 0.472-0.021 1.227-0.054 1.49 0.012h7.092l-0.051 0.23 27.622-0.141-1.513 2.745c0 0 3.132-2.481 3.382-2.505 0.137-0.013 0.284-0.033 0.408-0.064 0.181-0.091 0.292-0.135 0.417-0.156 0.117-0.020 0.246-0.020 0.458-0.020h2.101l9.544 0.088 0.23 0.038 0.331 0.052c0.28 0.043 0.579 0.086 0.665 0.086 0.175 0 0.35-0.044 0.525-0.088s0.35-0.088 0.526-0.088c0.246 0 0.492-0.084 0.707-0.157l0.001-0.001c0.167-0.057 0.315-0.107 0.43-0.107 0.1 0 0.265 0.014 0.452 0.031 0.47 0.041 1.086 0.095 1.211-0.031 0.35-0.088 6.042 0.352 6.042 0.352l-0.438 0.705 0.788 0.793 0.175 0.793v0.012h0.086l0.015 0.71-0.057 0.208 0.131 0.92-0.102 0.204 0.028 0.083 0.211 9.487-0.105 0.472 0.105 0.419-0.597 6.726 0.009 0.065 0.010 0.085c0.003 0.031 0.004 0.056 0.004 0.077 0 0.189 0.050 0.428 0.097 0.651 0.041 0.192 0.078 0.372 0.078 0.495 0 0.156 0.052 0.381 0.102 0.599 0.062 0.274 0.123 0.537 0.074 0.635-0.175 0.352-0.175 1.057-0.175 1.41 0 0.248 0.084 0.552 0.157 0.818v0.001c0.056 0.205 0.106 0.387 0.106 0.502 0 0.176-0.087 0.352-0.175 0.528l-0.051 0.105c-0.021 0.044-0.042 0.087-0.059 0.131-0.038 0.098-0.066 0.195-0.066 0.293 0 0.106 0.005 0.223 0.010 0.343 0.017 0.379 0.035 0.799-0.098 1.066-0.063 0.257-0.035 0.56-0.015 0.774l0.001 0.009c0.007 0.076 0.014 0.14 0.014 0.186 0 0.112-0.078 0.317-0.168 0.518-0.124 0.274-0.269 0.539-0.269 0.539l-6.742-0.088c0 0-0.76-0.036-1.396-0.039-0.354-0.001-0.668 0.008-0.794 0.039-0.085 0.043-0.399 0.023-0.739 0.002l0.815-1.238-1.22 1.215c-0.105-0.004-0.204-0.006-0.291-0.004-0.092 0.003-0.172 0.010-0.229 0.024-0.262 0.088-1.926 0-1.926 0s-0.345-0.032-0.734-0.057l-0.215-0.013c-0.194-0.011-0.386-0.018-0.54-0.018-0.167 0.024-0.321 0.035-0.465 0.040-0.1 0.003-0.196 0.004-0.288 0.004h-0.058c-0.241-0-0.459-0-0.678 0.044-0.35 0.088-1.576 0.088-1.576 0.088l-2.89-0.088-31.3 0.176-1.592-0.345c0 0 2.368-3.487 2.133-3.467-0.147 0.013-2.532 3.433-2.667 3.467-0.192 0.097-0.457 0.309-0.592 0.329-0.111 0.016-0.277-0.062-0.475-0.062l-1.6-0.267c0.071 0.024 1.247 0.391 1.317 0.409l0.069 0.017 0.043 0.009h-14.479c-0.142 0.048-0.268 0.087-0.369 0.087s-0.265-0.014-0.454-0.031l-0.182-0.016c-0.434-0.036-0.919-0.063-1.028 0.047-0.162 0.041-1.461-0.031-2.813-0.121l-0.112 0.034-12.924 0.098z"></path>
    </symbol>

    <symbol id="pinkSteamBtn" viewBox="0 0 32 32">
        <path  d="M31.749 29.812c0.037-0.125 0.068-0.232 0.068-0.256l0.183-0.239v0.955l-0.244 0.418c0 0-0.122-0.358-0.122-0.418 0-0.070 0.063-0.283 0.115-0.46z"></path>
        <path  d="M27.218 0.122h4.25v1.204l0.289 0.106-0.061 1.253c0 0-0.061 2.447-0.061 2.626 0 0.119-0.122 0.239-0.122 0.239l0.244 0.358-0.061 4.654v3.292l0.061 2.387v1.313l-0.244 0.239 0.183 0.477 0.061 4.602-1.090-2.339 0.801 3.28 0.046 0.67 0.183 0.537v0.656l-0.228 0.112v0.381c0.027 0.038 0.046 0.074 0.046 0.104v0.716c0 0.179 0.183 0.776 0.183 0.776l0.122 1.014-0.304 0.776-0.046 0.223v1.6h-0.523l-0.011 0.621-8.516-0.119-0.731-0.239-0.365 0.239h-0.913l-2.009 0.119-2.557-0.119-0.265-0.147c-1.551-0.004-2.735-0.004-2.735-0.004s-1.224 0.087-1.485 0.087c-0.032 0-0.070-0.001-0.115-0.002-0.152 0.191-0.359 0.156-0.359 0.156l-5.065-0.094-0.251-0.041-0.502 0.165-1.214-0.083 1.214-2.584-1.865 1.067-2.133 0.267-0.638 0.341h-0.261l0.042-0.869c0 0 0.042-1.696 0.042-1.82 0-0.036 0.016-0.073 0.034-0.102-0.011-0.062-0.019-0.119-0.022-0.169l-0.096-0.143 0.006-0.44-0.012-0.049c-0.063-0.27-0.123-0.529-0.074-0.625 0.042-0.084 0.074-0.187 0.098-0.301l0.020-1.507-0.008-0.034c-0.028-0.118-0.060-0.237-0.092-0.348l-0-0.001c-0.056-0.201-0.106-0.38-0.106-0.493 0-0.081 0.019-0.162 0.049-0.243 0.033-0.092 0.080-0.184 0.126-0.276 0.012-0.023 0.023-0.046 0.034-0.068l0.323-4.361c0 0 0-0.524-0.198-0.849v-0.62c0-0.124-0.084-0.827-0.084-0.827l-0.084-3.309v-0.91l0.167-0.165-0.126-0.331 0.14-1.636-0.175-1.036v-0.606l-0.175-1.212 0.175-0.347-0.008-1.078 0.213-0.053-0.031-0.341 0.046-0.103h-0.019l-0.042-0.62-0.126-0.372v-0.455l0.335-0.165c0 0-0.209-0.165-0.209-0.248v-0.496c0-0.124-0.126-0.538-0.126-0.538l-0.084-0.703 0.209-0.538h0.209l0.255-0.524 0.533-0.524 0.675-0.427v-0.122l0.657 0.122h1.711l1.821-0.014 0.468 0.154 0.046 0.003 0.239-0.158h0.628l1.381-0.083 1.758 0.083 0.217 0.959 2.933-0.945h4.654l0.527 0.12 1.879-0.030 0.303-0.090h2.459l0.374-0.122 2.337 0.119 0 0.003h0.78l0.011-0.003 0.028 0.003zM31.616 11.307c-0.027-1.159-0.062-2.009-0.103-1.928v0.895c0 0.134 0.069 0.739 0.103 1.033z"></path>
        <path  d="M0.172 1.42c-0.025 0.087-0.047 0.161-0.047 0.178l-0.126 0.165v-0.662l0.167-0.29c0 0 0.084 0.248 0.084 0.29 0 0.048-0.043 0.196-0.079 0.319z"></path>
        <path fill="#fff" style="fill: var(--color2, #fff)" d="M24.866 14.038c-0 0.405-0.156 0.793-0.432 1.079s-0.652 0.447-1.043 0.447c-0.815 0-1.467-0.684-1.467-1.527 0-0.405 0.156-0.793 0.432-1.080s0.652-0.447 1.043-0.447c0.391 0 0.767 0.161 1.044 0.447s0.432 0.675 0.432 1.080h-0.010zM23.381 11.2c-0.725-0.002-1.42 0.294-1.935 0.823s-0.805 1.246-0.808 1.996l-1.711 2.538c-0.072-0.009-0.145-0.009-0.208-0.009-0.37 0.002-0.732 0.105-1.050 0.3l-7.748-3.222c-0.1-0.472-0.352-0.895-0.716-1.198s-0.817-0.469-1.284-0.469c-0.545 0.001-1.067 0.226-1.452 0.624s-0.602 0.939-0.603 1.502c0.001 0.563 0.218 1.103 0.603 1.502s0.907 0.623 1.452 0.624c0.37-0.002 0.732-0.105 1.050-0.3l7.748 3.222c0.1 0.472 0.352 0.895 0.716 1.198s0.817 0.469 1.284 0.469c1.059 0 1.938-0.843 2.037-1.91l2.634-1.995c0.36 0 0.717-0.073 1.050-0.216s0.635-0.352 0.89-0.615c0.255-0.264 0.457-0.576 0.594-0.921s0.209-0.713 0.208-1.086c0-0.373-0.070-0.742-0.208-1.086s-0.34-0.657-0.594-0.921c-0.255-0.264-0.557-0.473-0.89-0.615s-0.69-0.216-1.050-0.215l-0.010-0.019zM23.381 12.136c0.487 0 0.954 0.201 1.299 0.557s0.538 0.84 0.539 1.344c-0 0.504-0.194 0.988-0.539 1.344s-0.812 0.557-1.299 0.557c-0.487-0-0.954-0.201-1.299-0.557s-0.538-0.84-0.538-1.344c0-0.504 0.194-0.987 0.538-1.344s0.812-0.557 1.299-0.557zM7.912 12.511c0.579 0 1.077 0.337 1.331 0.824l-0.751-0.309c-0.606-0.225-1.276 0.084-1.511 0.702-0.245 0.618 0.036 1.321 0.624 1.592l0.634 0.262c-0.107 0.026-0.216 0.039-0.326 0.038-0.199 0-0.395-0.040-0.579-0.118s-0.35-0.194-0.491-0.339c-0.14-0.145-0.252-0.318-0.328-0.508s-0.115-0.394-0.114-0.599c-0-0.206 0.038-0.409 0.114-0.599s0.187-0.363 0.328-0.508c0.14-0.145 0.307-0.261 0.491-0.339s0.38-0.119 0.579-0.118v0.019zM18.711 17.101c0.199-0 0.395 0.040 0.579 0.118s0.35 0.194 0.491 0.339c0.14 0.145 0.252 0.318 0.328 0.508s0.115 0.394 0.114 0.599c0 0.206-0.038 0.409-0.114 0.599s-0.187 0.363-0.328 0.508c-0.14 0.145-0.307 0.26-0.491 0.339s-0.38 0.119-0.579 0.118c-0.274 0.001-0.544-0.076-0.779-0.223s-0.426-0.358-0.552-0.61c0.245 0.103 0.498 0.206 0.743 0.309 0.296 0.121 0.625 0.117 0.918-0.011s0.525-0.369 0.648-0.673c0.058-0.151 0.087-0.313 0.085-0.476s-0.035-0.324-0.097-0.473c-0.062-0.15-0.152-0.285-0.265-0.399s-0.246-0.203-0.392-0.263l-0.624-0.262c0.108-0.028 0.217-0.038 0.326-0.038l-0.010-0.009z"></path>
    </symbol>

    <symbol id="inputSvg" viewBox="0 0 146 32">
        <path d="M0.516 0.516v30.968l3.407-0.31 1.363-0.31 3.407 0.619h68.17l29.46-0.774 38.71 0.774v-30.968l-8.858 0.516-115.215-0.516-5.991 0.516-14.452-0.516z"></path>
    </symbol>

    <symbol id="errorSvg" viewBox="0 0 32 32">
        <path fill="#dd34dd" style="fill: var(--color1, #dd34dd)" d="M9.582 4.284c-0.146-0.146-1.567-1.501-1.567-1.501l-1.531-1.611-0.656-0.659-1.458 1.465-0.292 0.366-0.292 0.293c-0.182 0.33-0.692 0.842-0.692 0.842l-0.328 0.33c0 0-0.146 0.22-0.255 0.33-0.073 0-0.62 0.403-0.62 0.403l0.109-0.183c0 0 0.692-0.842 0.765-0.915l0.51-0.513c0.036-0.183 0.474-0.696 0.62-0.769 0.073-0.073 0.328-0.403 0.401-0.549l0.474-0.476c0-0.146 0.255-0.256 0.255-0.256l0.547-0.549-0.328-0.33-0.474 0.33-0.437 0.366-0.474 0.476-0.583 0.293-0.364 0.586-0.109 0.842-0.547 0.183-0.51 0.586c0 0 0 0.366-0.109 0.476l-0.401 0.403-0.073 0.513-0.146 0.513 3.244 3.259c0 0 0.729 0.366 0.875 0.586 0.109 0.256 0.401 0.549 0.62 0.769 0.219 0.293 0.802 0.879 0.911 0.989s0.984 1.062 0.984 1.062c0 0 0.583 0.805 0.838 0.915 0.255 0.183 1.385 1.391 1.385 1.391l0.943 0.98-2.689 2.701c0 0-1.968 2.197-2.15 2.38-0.131 0.184-0.451 0.482-0.688 0.703-0.093 0.086-0.172 0.161-0.224 0.212-0.146 0.22-0.583 0.586-0.583 0.586l-4.483 4.503 0.364 0.732 0.219 0.366 0.51 0.366c0 0 0.182 0.403 0.292 0.439 0.219 0.073 0.292 0.659 0.292 0.659l0.474 0.403c0 0 0.364 0.22 0.437 0.439 0.109 0.183 0.656 0.439 0.656 0.439l0.51 0.293 0.51 0.22 0.401 0.549 5.613-5.638c0.182-0.183 0.62-0.696 0.62-0.696l0.547-0.476 0.875-0.659 1.707-1.714c0.109-0.11 1.001-0.933 1.001-0.933s0.63-0.506 0.777-0.695l2.634 2.736c0 0 0.62 0.476 0.692 0.549s0.1 0.174 0.128 0.274c0.027 0.101 0.055 0.201 0.128 0.275l0.474 0.476c0 0 1.749 1.904 1.932 2.014s2.078 2.014 2.223 2.16c0.127 0.026 0.289 0.229 0.426 0.4 0.059 0.074 0.113 0.142 0.157 0.186 0.182 0.183 0.364 0.366 0.729 0.513 0.146 0.098 0.291 0.293 0.405 0.445 0.057 0.076 0.105 0.141 0.142 0.178l1.093 1.098 1.13-0.915 0.292-0.879 0.437-0.146 0.255-0.183 0.619-0.623c0 0 0.437-0.293 0.547-0.403 0.146-0.146 0.401-0.622 0.401-0.622l0.291-0.366 0.51-0.22 0.073-0.366 0.037-0.33-5.977-6.224-2.296-2.233-0.364-0.366-0.291-0.366-0.291-0.293-0.62-0.696-0.884-0.888 3.346-2.954c0 0 2.446-2.225 2.377-2.142l-0.012 0.012c0.006-0.006 0.010-0.010 0.012-0.012l5.442-5.712-0.328-0.403-0.255-0.476-0.364-0.293-0.401-0.183-0.291-0.293-0.146-0.513-0.292-0.293-0.474-0.403-0.729-0.659-0.765-0.769-0.255 0.183-0.364 0.073-0.328-0.256-0.583-0.732-2.041 1.831-1.968 2.197-0.547 0.549-0.765 0.696-0.948 0.952-3.134 3.222c0 0-0.547 0.549-0.583 0.659-0.076 0.126-0.499 0.393-0.753 0.545l-1.692-1.7c0 0-0.364-0.293-0.474-0.403-0.146-0.146-0.437-0.513-0.547-0.696-0.076-0.177-0.291-0.355-0.477-0.508-0.083-0.068-0.16-0.131-0.216-0.188-0.038-0.039-0.11-0.105-0.196-0.186-0.241-0.225-0.598-0.558-0.679-0.693-0.036-0.11-0.2-0.275-0.36-0.435s-0.314-0.316-0.333-0.407c-0.109-0.183-1.057-1.135-1.13-1.208z"></path>
        <path fill="#fff" style="fill: var(--color2, #fff)" d="M11.866 18.874c0 0.059 0.020 0.216 0.020 0.216l-0.039 0.177v0.157l-0.059 0.353-1.022 0.020-0.020 0.098v0.157l0.020 0.255v2.59l-0.177 0.059-0.157 0.059-0.256 0.079c0 0-0.197 0.078-0.256 0.098-0.079 0.039-0.138-0.079-0.138-0.079h-0.157l-0.216 0.118c0 0-0.275 0.098-0.354 0.059-0.039-0.020-0.256 0.039-0.256 0.039s-0.157 0.039-0.236 0.020c-0.059 0-0.138-0.059-0.138-0.059l-0.373 0.059-0.020-1.471v-0.49l0.079-0.235-0.079-0.157c0 0 0-0.451 0-1.059 0.020 0 0.059 0 0.059-0.059-0.039-0.039-0.039-0.196-0.039-0.275-0.020-0.059 0-0.137 0-0.157-0.020-0.020-0.039-0.373-0.039-0.334 0 0.059-0.020 0.334-0.020 0.334l-0.059 0.137-0.020 0.098c0 0 0 0.098-0.039 0.118-0.039 0-0.039 0.078-0.039 0.078s0 0 0 0.020l-1.966 0.059-0.373-0.059-0.256 0.059-0.511 0.059-0.177-0.177-0.020-0.157-0.020-0.177-0.098-0.216 0.059-0.216 0.039-0.255-0.039-0.235 0.039-0.235c0 0 0.039 0.020 0.020-0.039 0-0.039 0-0.059 0-0.078l-0.098-0.039-0.177-0.177 0.334-2.119v-0.177l0.098-0.118-0.020-0.235 0.55-3.335v-0.157l0.079-0.235-0.020-0.216 0.275-1.785 0.059-0.039 0.373-0.020 0.216-0.020h0.138l0.177-0.039 0.157 0.039 0.138 0.098 0.118-0.078h0.177l0.118 0.020 0.098 0.059 0.432 0.078 0.275 0.039v-0.765l0.177-0.078 0.216-0.039 0.432-0.216c0 0 0.098 0.059 0.177 0.059 0.098-0.020 0.177 0 0.256 0s0.236 0 0.236 0c0 0 0.216-0.020 0.275-0.020 0.039 0 0.236 0 0.275 0.020 0.059 0.059 0.256 0.020 0.256 0.020h0.432c0 0 0 0.177 0 0.392-0.079 0.039-0.197 0.157-0.197 0.157s0 0.078 0.020 0.098c0.020 0.039-0.020 0.196-0.020 0.196l-0.020 0.216c0 0-0.059 0.353-0.079 0.392 0 0.059-0.039 0.235-0.039 0.294 0 0.039 0.079 0.196 0.059 0.334-0.020 0.098-0.020 0.294-0.020 0.373-0.039 0.098 0 0.471 0 0.471s0.020 0.314 0.020 0.451c-0.020 0.098-0.020 0.334-0.020 0.373 0 0.059 0 0.314 0 0.392s0.020 0.334 0.020 0.412c0 0.039 0.020 0.294 0.020 0.334-0.020 0.039-0.020 0.216-0.020 0.216 0.079 0.078 0.118-0.118 0.118-0.196 0-0.059 0.039-0.157 0-0.235 0-0.078 0-0.177 0-0.275-0.020-0.098 0-0.412 0-0.451 0-0.059 0-0.334 0-0.412-0.020-0.078 0-0.589 0-0.589l-0.020-0.471v-0.373c0 0 0.020-0.392 0.020-0.412-0.020-0.039 0.039-0.255 0.039-0.334s0.020-0.216 0.020-0.216c0 0-0.020-0.059 0-0.137 0-0.078 0.059-0.098 0.059-0.196 0-0.039 0.020-0.059 0.020-0.078 0 0.039 0 0.098 0.020 0.118 0 0.098 0 0.412 0 0.412s-0.079 0.177-0.079 0.235c0 0.039 0.059 0.373 0.059 0.373s-0.020 1.962 0 2.040c0.020 0.059-0.059 0.137-0.059 0.177 0 0.078 0.079 0.177 0.079 0.177s-0.079 3.1-0.039 3.198c0.020 0.098-0.039 0.118-0.039 0.196 0.039 0.078 0 0.177 0.059 0.255 0.020 0.059 0.020 0.177 0.020 0.177v0.255h0.767l0.059 0.157c-0.020 0-0.059 0-0.059 0-0.020 0-0.216 0-0.256 0.039-0.039 0.020-0.256 0.020-0.256 0.020l-0.216 0.020-0.039 0.157 0.432-0.059c0 0 0.314-0.020 0.432-0.039l0.039 0.039 0.020 0.216 0.020 0.078c0 0 0.059 0.078 0 0.118-0.020 0.078 0.059 0.353 0.059 0.353s0 0.078-0.059 0.157c-0.020 0.059 0 0.137 0 0.177 0.039 0.078 0.157 0.177 0.157 0.177s0 0.118 0 0.177zM7.856 17.501h0.197l-0.020-0.098h-0.236c0 0-0.138 0.020-0.197 0-0.020 0-0.157 0-0.197-0.020-0.039 0-0.314 0-0.314 0l-0.059 0.118 0.314-0.020 0.275 0.020h0.236zM7.993 12.576l0.118-0.118-0.079-0.255v-0.53l-0.334 1.844-0.020 0.157-0.079 0.157 0.020 0.314-0.511 3.061c0.924-0.059 0.924-0.078 0.924-0.078l0.059-0.157-0.059-0.157-0.039-3.924v-0.314z"></path>
        <path fill="#fff" style="fill: var(--color2, #fff)" d="M19.281 20.444c0 0.098 0.079 0.53 0.079 0.588 0 0.020-0.020 0.51-0.020 0.51v0.451l-0.020 0.53c0 0 0 0.235 0 0.294 0 0.020 0 0.451 0 0.451l-0.295-0.039-0.275 0.098-0.432 0.039h-0.275c0 0-0.118-0.020-0.197-0.020-0.098 0.020-0.256-0.059-0.256-0.059s-0.138-0.020-0.197-0.039c-0.020 0-0.020 0-0.059 0h-1.494l-0.177-0.059-0.157 0.059h-0.098l-1.494-0.020-0.039-0.314c0 0-0.039-0.098-0.059-0.177-0.059 0-0.098 0-0.157 0-0.098 0-0.452-0.098-0.511-0.137-0.079-0.039 0.059-0.020-0.079-0.039-0.118-0.039-0.118-0.039-0.118-0.039l-0.256-0.039-0.059-2.256 0.079-0.373c0 0-0.079-0.216-0.079-0.275s0-0.314 0-0.314l0.039-0.961-0.039-2.335c0 0 0.059-0.177 0.079-0.275 0-0.137 0-0.314 0-0.314s-0.039-0.177-0.039-0.275c0-0.078 0.039-2.962 0.039-2.962v-0.334c0 0 0-0.177-0.020-0.255-0.020-0.098 0-1.628 0-1.628s-0.059-0.255-0.020-0.294c0.020-0.078 0.020-0.883 0.020-0.883l0.295-0.020 0.334-0.020 0.039-0.078 0.393 0.020h0.197l1.73 0.098 0.177 0.039 0.157-0.039 0.806 0.039 0.079-0.039h0.118l0.098 0.059h0.079l0.216-0.059 0.236-0.039 0.098 0.039 0.295-0.039 0.373 0.157 0.157 0.039 0.236 0.078 0.118 0.059 0.354 0.020v0.177c-0.098 0-0.216 0-0.216 0l-0.256 0.020-0.059 0.059 0.236 0.059c0 0 0.098 0 0.118 0 0.059 0 0.157 0.020 0.157 0.020h0.020v0.196l-0.098 0.039-0.059 0.098v0.039l0.118 0.078h0.039l0.039 0.902-0.059 1.805-0.020 0.177c0 0 0.079 0.235 0.039 0.275 0 0.059-0.020 0.373-0.020 0.373l0.079 1.354c0 0-0.098 0.314-0.098 0.373s0.020 0.235 0.020 0.235c0 0 0 0.157 0 0.196 0 0.020 0.020 0.314 0.020 0.314l0.039 0.51-0.039 1.138v1.236c0 0 0.039 0.196 0 0.216 0 0.059 0 0.373 0 0.373s0 0.373-0.020 0.432c-0.020 0.039 0.020 0.589 0.020 0.687zM15.251 12.223l0.020-0.785-0.197-0.020 0.039 0.137c0 0 0.039 0.157 0.039 0.216 0 0.039 0 0.294 0 0.294v0.255l-0.039 0.137c0 0-0.039 0.020-0.079 0.078 0 0.020 0 0.118 0 0.177 0 0.078 0.118 0.196 0.118 0.196l-0.039 0.177v1.236l-0.020 0.275v0.51c0.059 0.157 0.059 0.353 0.059 0.51 0 0.059 0.079 0.235 0.079 0.235v-3.1c0 0 0-0.216 0-0.275 0-0.039 0.020-0.255 0.020-0.255zM16.568 17.167l-0.020-0.687v-2.904c0 0 0.079-0.059 0.059-0.098 0-0.059 0.020-0.157 0-0.216-0.039-0.039-0.039-0.137-0.039-0.137v-1.648l-0.806-0.020c0 0-0.177-0.039-0.275-0.039-0.039 0-0.059 0-0.118 0v0.706l-0.020 0.118v0.235l0.020 2.629v0.275l0.039 0.667-0.039 3.159-0.020 0.844c0 0-0.020 0.157-0.020 0.255 0 0.059 0 0.137 0.020 0.216h1.219l0.039-0.235-0.059-0.255c0 0 0.020-2.315 0.020-2.374s0-0.49 0-0.49z"></path>
        <path fill="#fff" style="fill: var(--color2, #fff)" d="M27.721 18.874c0 0.059 0.020 0.216 0.020 0.216l-0.039 0.177v0.157l-0.059 0.353-1.022 0.020-0.020 0.098v0.157l0.020 0.255v2.59l-0.177 0.059-0.157 0.059-0.256 0.079c0 0-0.197 0.078-0.256 0.098-0.079 0.039-0.138-0.079-0.138-0.079h-0.157l-0.216 0.118c0 0-0.275 0.098-0.354 0.059-0.039-0.020-0.256 0.039-0.256 0.039s-0.157 0.039-0.236 0.020c-0.059 0-0.137-0.059-0.137-0.059l-0.374 0.059-0.020-1.471v-0.49l0.079-0.235-0.079-0.157c0 0 0-0.451 0-1.059 0.020 0 0.059 0 0.059-0.059-0.039-0.039-0.039-0.196-0.039-0.275-0.020-0.059 0-0.137 0-0.157-0.020-0.020-0.039-0.373-0.039-0.334 0 0.059-0.020 0.334-0.020 0.334l-0.059 0.137-0.020 0.098c0 0 0 0.098-0.039 0.118-0.039 0-0.039 0.078-0.039 0.078s0 0 0 0.020l-1.966 0.059-0.374-0.059-0.256 0.059-0.511 0.059-0.177-0.177-0.020-0.157-0.020-0.177-0.098-0.216 0.059-0.216 0.039-0.255-0.039-0.235 0.039-0.235c0 0 0.039 0.020 0.020-0.039 0-0.039 0-0.059 0-0.078l-0.098-0.039-0.177-0.177 0.334-2.119v-0.177l0.098-0.118-0.020-0.235 0.55-3.335v-0.157l0.079-0.235-0.020-0.216 0.275-1.785 0.059-0.039 0.373-0.020 0.216-0.020h0.137l0.177-0.039 0.157 0.039 0.138 0.098 0.118-0.078h0.177l0.118 0.020 0.098 0.059 0.433 0.078 0.275 0.039v-0.765l0.177-0.078 0.216-0.039 0.432-0.216c0 0 0.098 0.059 0.177 0.059 0.098-0.020 0.177 0 0.256 0s0.236 0 0.236 0c0 0 0.216-0.020 0.275-0.020 0.039 0 0.236 0 0.275 0.020 0.059 0.059 0.255 0.020 0.255 0.020h0.433c0 0 0 0.177 0 0.392-0.079 0.039-0.197 0.157-0.197 0.157s0 0.078 0.020 0.098c0.020 0.039-0.020 0.196-0.020 0.196l-0.020 0.216c0 0-0.059 0.353-0.079 0.392 0 0.059-0.039 0.235-0.039 0.294 0 0.039 0.079 0.196 0.059 0.334-0.020 0.098-0.020 0.294-0.020 0.373-0.039 0.098 0 0.471 0 0.471s0.020 0.314 0.020 0.451c-0.020 0.098-0.020 0.334-0.020 0.373 0 0.059 0 0.314 0 0.392s0.020 0.334 0.020 0.412c0 0.039 0.020 0.294 0.020 0.334-0.020 0.039-0.020 0.216-0.020 0.216 0.079 0.078 0.118-0.118 0.118-0.196 0-0.059 0.039-0.157 0-0.235 0-0.078 0-0.177 0-0.275-0.020-0.098 0-0.412 0-0.451 0-0.059 0-0.334 0-0.412-0.020-0.078 0-0.589 0-0.589l-0.020-0.471v-0.373c0 0 0.020-0.392 0.020-0.412-0.020-0.039 0.039-0.255 0.039-0.334s0.020-0.216 0.020-0.216c0 0-0.020-0.059 0-0.137 0-0.078 0.059-0.098 0.059-0.196 0-0.039 0.020-0.059 0.020-0.078 0 0.039 0 0.098 0.020 0.118 0 0.098 0 0.412 0 0.412s-0.079 0.177-0.079 0.235c0 0.039 0.059 0.373 0.059 0.373s-0.020 1.962 0 2.040c0.020 0.059-0.059 0.137-0.059 0.177 0 0.078 0.079 0.177 0.079 0.177s-0.079 3.1-0.039 3.198c0.020 0.098-0.039 0.118-0.039 0.196 0.039 0.078 0 0.177 0.059 0.255 0.020 0.059 0.020 0.177 0.020 0.177v0.255h0.767l0.059 0.157c-0.020 0-0.059 0-0.059 0-0.020 0-0.216 0-0.256 0.039-0.039 0.020-0.256 0.020-0.256 0.020l-0.216 0.020-0.039 0.157 0.432-0.059c0 0 0.314-0.020 0.432-0.039l0.039 0.039 0.020 0.216 0.020 0.078c0 0 0.059 0.078 0 0.118-0.020 0.078 0.059 0.353 0.059 0.353s0 0.078-0.059 0.157c-0.020 0.059 0 0.137 0 0.177 0.039 0.078 0.157 0.177 0.157 0.177s0 0.118 0 0.177zM23.711 17.501h0.197l-0.020-0.098h-0.236c0 0-0.138 0.020-0.197 0-0.020 0-0.157 0-0.197-0.020-0.039 0-0.314 0-0.314 0l-0.059 0.118 0.314-0.020 0.275 0.020h0.236zM23.849 12.576l0.118-0.118-0.079-0.255v-0.53l-0.334 1.844-0.020 0.157-0.079 0.157 0.020 0.314-0.511 3.061c0.924-0.059 0.924-0.078 0.924-0.078l0.059-0.157-0.059-0.157-0.039-3.924v-0.314z"></path>
    </symbol>

    <symbol id="loader" viewBox="0 0 32 32">
        <path fill="#fff" style="fill: var(--color1, #fff)" d="M15.999 3.429c-6.943 0-12.571 5.628-12.571 12.571 0 0.631-0.512 1.143-1.143 1.143s-1.143-0.512-1.143-1.143c0-8.205 6.652-14.857 14.857-14.857 0.631 0 1.143 0.512 1.143 1.143s-0.512 1.143-1.143 1.143zM29.713 14.857c0.631 0 1.143 0.512 1.143 1.143 0 8.205-6.652 14.857-14.857 14.857-0.631 0-1.143-0.512-1.143-1.143s0.512-1.143 1.143-1.143c6.943 0 12.571-5.628 12.571-12.571 0-0.631 0.512-1.143 1.143-1.143z"></path>
    </symbol>
</defs>
</svg>
