<svg width="166" height="60" viewBox="0 0 166 60" fill="none" xmlns="http://www.w3.org/2000/svg">
<path id="Bg" d="M1 60L0 1L3.00298 0.230469L3.99907 0L6.72176 0.0461008L9.44445 0.0922017L14.8898 0.184403C14.8898 0.184403 15.4754 0.36116 16.0521 0.503494C16.2408 0.550125 16.4295 0.593094 16.5957 0.624831C16.7707 0.658523 16.9222 0.679763 17.0238 0.679763C17.1392 0.679763 17.2731 0.661697 17.4178 0.634109C17.557 0.607449 17.7063 0.571969 17.8614 0.535138L17.8929 0.527687C18.0529 0.489821 18.2173 0.450937 18.3807 0.419266L18.5606 0.387527L18.7277 0.365067L18.8763 0.35286L18.9936 0.349442C19.1325 0.349442 19.4017 0.296973 19.7314 0.232702C20.5718 0.068912 21.8055 -0.171532 22.2773 0.184403C22.6057 0.349442 40.9917 0.349442 40.9917 0.349442C40.9917 0.349442 43.2909 0.184403 43.7826 0.184403C43.961 0.184403 44.2605 0.196574 44.6152 0.210993C44.9601 0.225015 45.3577 0.241176 45.7465 0.250321C46.4308 0.266434 47.0897 0.261063 47.3947 0.184403C47.5178 0.184403 47.7544 0.174149 48.0496 0.16121C48.9343 0.122391 50.3498 0.0603803 50.8425 0.184403H64.1393L64.0445 0.616043L115.836 0.352372L112.999 5.5C112.999 5.5 118.872 0.847731 119.34 0.803542C119.597 0.779128 119.872 0.741287 120.105 0.682692C120.444 0.511795 120.652 0.429276 120.887 0.389481C121.106 0.352372 121.349 0.352372 121.746 0.352372H125.686L143.581 0.517411L144.013 0.588455L144.633 0.686843C145.158 0.767898 145.718 0.847731 145.879 0.847731C146.207 0.847731 146.535 0.765212 146.863 0.682663C147.192 0.600051 147.52 0.517411 147.849 0.517411C148.31 0.517411 148.772 0.360598 149.175 0.223595L149.177 0.222675C149.49 0.116275 149.768 0.0218062 149.983 0.0218062C150.17 0.0218062 150.479 0.0487965 150.831 0.0796407C151.712 0.156739 152.868 0.257914 153.102 0.0218062C153.759 -0.143232 164.43 0.682692 164.43 0.682692L163.609 2.00398L165.086 3.49055L165.414 4.97711V5.00006H165.575L165.604 6.33063L165.498 6.72003L165.743 8.44561L165.552 8.82891L165.604 8.98418L165.999 26.7715L165.802 27.656L165.999 28.4421L164.879 41.0524L164.895 41.1745L164.914 41.3347C164.919 41.392 164.922 41.4406 164.922 41.4787C164.922 41.8327 165.016 42.2817 165.104 42.6984C165.18 43.0593 165.25 43.3959 165.25 43.6259C165.25 43.9184 165.347 44.3403 165.441 44.7482C165.558 45.2619 165.671 45.7544 165.579 45.9384C165.25 46.5991 165.25 47.9203 165.25 48.5812C165.25 49.0466 165.407 49.6169 165.544 50.1147L165.544 50.1167C165.649 50.5014 165.743 50.8428 165.743 51.0588C165.743 51.3891 165.579 51.7194 165.414 52.0497L165.319 52.246C165.279 52.3278 165.241 52.4096 165.209 52.4914C165.137 52.6745 165.086 52.8576 165.086 53.0407C165.086 53.24 165.096 53.4585 165.105 53.6846C165.137 54.3957 165.171 55.1823 164.922 55.6835C164.803 56.1647 164.856 56.7336 164.894 57.1347L164.896 57.1508C164.91 57.2934 164.922 57.4138 164.922 57.5004C164.922 57.7096 164.776 58.0956 164.607 58.4716C164.375 58.9862 164.102 59.4826 164.102 59.4826L151.461 59.3173C151.461 59.3173 150.036 59.2489 148.844 59.2443C148.181 59.2416 147.591 59.2585 147.356 59.3173C147.196 59.3979 146.608 59.3607 145.971 59.3205L147.499 57L145.212 59.2785C145.016 59.2707 144.829 59.267 144.666 59.2714C144.493 59.2763 144.344 59.2902 144.237 59.3173C143.745 59.4826 140.626 59.3173 140.626 59.3173C140.626 59.3173 139.979 59.2582 139.25 59.2108L138.847 59.1864C138.484 59.1664 138.124 59.1522 137.835 59.1522C137.522 59.1972 137.233 59.2177 136.963 59.227C136.775 59.2333 136.596 59.2345 136.423 59.2348L136.315 59.2348C135.864 59.2347 135.454 59.2347 135.044 59.3173C134.387 59.4826 132.089 59.4826 132.089 59.4826L126.671 59.3173L67.984 59.6476L64.9991 59C64.9991 59 69.4399 52.4614 68.9991 52.5C68.7244 52.5239 64.2513 58.9365 63.9991 59C63.6384 59.1811 63.1422 59.5802 62.889 59.6171C62.6808 59.6476 62.3696 59.5 61.9991 59.5L58.9991 59C59.133 59.0442 61.3366 59.7328 61.4676 59.767L61.5967 59.7982L61.6768 59.8156H34.529C34.2621 59.9054 34.0256 59.9782 33.8369 59.9782C33.6492 59.9782 33.3403 59.9513 32.9864 59.9203L32.6453 59.8908C31.8319 59.8232 30.9228 59.7719 30.7175 59.9782C30.4145 60.0544 27.9784 59.9196 25.4426 59.7521L25.2324 59.8156L1 60Z" fill="white"/>
</svg>
