<svg width="156" height="156" viewBox="0 0 156 156" fill="none" xmlns="http://www.w3.org/2000/svg">
<path d="M46.7107 20.8833C46 20.1693 39.0706 13.5652 39.0706 13.5652L31.6082 5.71167L28.4101 2.49885L21.303 9.63844L19.8816 11.4233L18.4602 12.8513C17.5718 14.4577 15.0843 16.9565 15.0843 16.9565L13.4852 18.5629C13.4852 18.5629 12.7745 19.6339 12.2415 20.1693C11.8861 20.1693 9.22099 22.1327 9.22099 22.1327L9.75402 21.2403C9.75402 21.2403 13.1299 17.135 13.4852 16.778L15.9727 14.2792C16.1504 13.3867 18.2825 10.8879 18.9932 10.5309C19.3486 10.1739 20.5923 8.5675 20.9476 7.85355L23.2574 5.53318C23.2574 4.81923 24.5012 4.28375 24.5012 4.28375L27.1663 1.60641L25.5672 0L23.2574 1.60641L21.1253 3.3913L18.8155 5.71167L15.9727 7.13958L14.1959 9.99542L13.6629 14.1007L10.9978 14.9931L8.51029 17.849C8.51029 17.849 8.5103 19.6339 7.97727 20.1693L6.02282 22.1327L5.66747 24.6316L4.95676 27.1304L20.77 43.016C20.77 43.016 24.3235 44.8009 25.0342 45.8719C25.5672 47.1213 26.9886 48.5492 28.0547 49.6201C29.1208 51.0481 31.9636 53.9039 32.4966 54.4394C33.0297 54.9748 37.2939 59.6156 37.2939 59.6156C37.2939 59.6156 40.1367 63.5423 41.3805 64.0778C42.6242 64.9703 48.1322 70.8604 48.1322 70.8604L52.7305 75.6371L39.6219 88.8057C39.6219 88.8057 30.0273 99.5151 29.1389 100.408C28.5 101.306 26.942 102.759 25.7869 103.836C25.336 104.256 24.9465 104.619 24.697 104.87C23.9863 105.941 21.8542 107.726 21.8542 107.726L0 129.68L1.77676 133.25L2.84282 135.035L5.33029 136.819C5.33029 136.819 6.21868 138.783 6.75171 138.961C7.81776 139.318 8.17313 142.174 8.17313 142.174L10.4829 144.138C10.4829 144.138 12.2597 145.208 12.615 146.279C13.1481 147.172 15.8132 148.421 15.8132 148.421L18.3007 149.849L20.7882 150.92L22.7426 153.597L50.1048 126.11C50.9932 125.218 53.1253 122.719 53.1253 122.719L55.7904 120.398L60.0547 117.186L68.3742 108.828C68.9072 108.293 73.2551 104.282 73.2551 104.282C73.2551 104.282 76.3258 101.814 77.0436 100.893L89.8861 114.233C89.8861 114.233 92.9066 116.554 93.262 116.911C93.6174 117.268 93.7506 117.759 93.8839 118.249C94.0171 118.74 94.1504 119.231 94.5057 119.588L96.8155 121.908C96.8155 121.908 105.344 131.19 106.232 131.725C107.121 132.261 116.36 141.542 117.071 142.256C117.69 142.381 118.482 143.373 119.146 144.204C119.434 144.565 119.698 144.896 119.913 145.112C120.802 146.005 121.69 146.897 123.467 147.611C124.178 148.087 124.888 149.039 125.441 149.779C125.718 150.149 125.954 150.467 126.132 150.645L131.462 156L136.97 151.538L138.392 147.254L140.524 146.54L141.768 145.648L144.788 142.613C144.788 142.613 146.92 141.185 147.453 140.65C148.164 139.936 149.408 137.616 149.408 137.616L150.829 135.831L153.317 134.76L153.672 132.975L153.85 131.368L124.711 101.025L113.517 90.1373L111.74 88.3524L110.319 86.5675L108.898 85.1396L105.877 81.7483L101.569 77.4209L117.883 63.0191C117.883 63.0191 129.808 52.1743 129.469 52.576L129.412 52.6358C129.44 52.6069 129.459 52.5872 129.469 52.576L156 24.7279L154.401 22.7645L153.157 20.4442L151.38 19.0162L149.426 18.1238L148.005 16.6959L147.294 14.197L145.872 12.7691L143.563 10.8057L140.009 7.59291L136.278 3.84462L135.034 4.73707L133.257 5.09405L131.658 3.84463L128.815 0.274827L118.866 9.19932L109.271 19.9087L106.606 22.586L102.875 25.9774L98.2551 30.6181L82.9749 46.3252C82.9749 46.3252 80.3098 49.0025 80.1321 49.538C79.7639 50.1544 77.7004 51.4521 76.4592 52.1958L68.2096 43.9085C68.2096 43.9085 66.4328 42.4806 65.8998 41.9451C65.1891 41.2311 63.7677 39.4462 63.2347 38.5538C62.8658 37.6892 61.8164 36.8246 60.9105 36.0784C60.5073 35.7461 60.1325 35.4374 59.8588 35.1625C59.6713 34.9742 59.3232 34.6492 58.9024 34.2565C57.7277 33.1603 55.987 31.5358 55.5946 30.8787C55.4169 30.3432 54.6174 29.54 53.84 28.7592C53.0627 27.9783 52.3076 27.2197 52.2187 26.7735C51.6857 25.881 47.0661 21.2403 46.7107 20.8833Z" fill="#DD34DD"/>
<path d="M57.8455 92.0117C57.8455 92.2986 57.9413 93.0638 57.9413 93.0638L57.7496 93.9245V94.6897L57.4622 96.4112L52.4793 96.5069L52.3835 96.9851V97.7502L52.4793 98.9936V111.618L51.6169 111.905L50.8503 112.192L49.6046 112.575C49.6046 112.575 48.6464 112.957 48.3589 113.053C47.9756 113.244 47.6882 112.67 47.6882 112.67H46.9216L45.8675 113.244C45.8675 113.244 44.526 113.722 44.1427 113.531C43.951 113.436 42.897 113.722 42.897 113.722C42.897 113.722 42.1304 113.914 41.7471 113.818C41.4596 113.818 41.0763 113.531 41.0763 113.531L39.2557 113.818L39.1599 106.645V105.402V104.254L39.5432 103.106L39.1599 102.341C39.1599 102.341 39.1599 100.141 39.1599 97.1764C39.2557 97.1764 39.4473 97.1764 39.4473 96.8894C39.2557 96.6982 39.2557 95.933 39.2557 95.5504C39.1599 95.2635 39.2557 94.881 39.2557 94.7853C39.1599 94.6897 39.064 92.9681 39.064 93.1594C39.064 93.4463 38.9682 94.7853 38.9682 94.7853L38.6807 95.4548L38.5849 95.933C38.5849 95.933 38.5849 96.4112 38.3933 96.5069C38.2016 96.5069 38.2016 96.8894 38.2016 96.8894C38.2016 96.8894 38.2016 96.8894 38.2016 96.9851L28.6193 97.272L26.7986 96.9851L25.5529 97.272L23.0615 97.5589L22.1991 96.6982L22.1032 95.933L22.0074 95.0722L21.5283 94.0202L21.8158 92.9681L22.0074 91.7248L21.8158 90.5771L22.0074 89.4293C22.0074 89.4293 22.1991 89.525 22.1032 89.2381C22.1032 89.0468 22.1032 88.9511 22.1032 88.8555L21.6241 88.6642L20.7617 87.8034L22.3907 77.4741V76.6133L22.8698 76.0394L22.774 74.8917L25.4571 58.6325V57.8674L25.8404 56.7197L25.7445 55.6676L27.0861 46.9642L27.3736 46.7729L29.1942 46.6773L30.2483 46.5816H30.919L31.7814 46.3903L32.548 46.5816L33.2188 47.0598L33.7937 46.6773H34.6561L35.2311 46.7729L35.7102 47.0598L37.8183 47.4424L39.1599 47.6337V43.9036L40.0223 43.5211L41.0763 43.3298L42.0346 42.8516L43.1845 42.2777C43.1845 42.2777 43.6636 42.5646 44.0469 42.5646C44.526 42.469 44.9093 42.5646 45.2926 42.5646C45.6759 42.5646 46.4425 42.5646 46.4425 42.5646C46.4425 42.5646 47.4965 42.469 47.784 42.469C47.9756 42.469 48.9339 42.469 49.1255 42.5646C49.413 42.8516 50.3712 42.6603 50.3712 42.6603H52.4793C52.4793 42.6603 52.4793 43.5211 52.4793 44.5731C52.0961 44.7644 51.5211 45.3383 51.5211 45.3383C51.5211 45.3383 51.5211 45.7208 51.6169 45.8165C51.7128 46.0078 51.5211 46.7729 51.5211 46.7729L51.4253 47.825C51.4253 47.825 51.1378 49.5465 51.042 49.7378C51.042 50.0247 50.8503 50.8855 50.8503 51.1724C50.8503 51.3637 51.2336 52.1289 51.1378 52.7984C51.042 53.2766 51.042 54.233 51.042 54.6156C50.8503 55.0938 51.042 56.911 51.042 56.911C51.042 56.911 51.1378 58.4413 51.1378 59.1108C51.042 59.589 51.042 60.7367 51.042 60.928C51.042 61.2149 51.042 62.4582 51.042 62.8408C51.042 63.2234 51.1378 64.4667 51.1378 64.8493C51.1378 65.0406 51.2336 66.2839 51.2336 66.4752C51.1378 66.6665 51.1378 67.5273 51.1378 67.5273C51.5211 67.9098 51.7128 66.9534 51.7128 66.5708C51.7128 66.2839 51.9044 65.8057 51.7128 65.4231C51.7128 65.0406 51.7128 64.5624 51.7128 64.0841C51.6169 63.6059 51.7128 62.0757 51.7128 61.8844C51.7128 61.5974 51.7128 60.2585 51.7128 59.8759C51.6169 59.4933 51.7128 57.0066 51.7128 57.0066L51.6169 54.7112V52.894C51.6169 52.894 51.7128 50.9812 51.7128 50.8855C51.6169 50.6942 51.9044 49.6422 51.9044 49.2596C51.9044 48.877 52.0002 48.2075 52.0002 48.2075C52.0002 48.2075 51.9044 47.9206 52.0002 47.538C52.0002 47.1555 52.2877 47.0598 52.2877 46.5816C52.2877 46.3903 52.3835 46.2947 52.3835 46.199C52.3835 46.3903 52.3835 46.6773 52.4793 46.7729C52.4793 47.2511 52.4793 48.7814 52.4793 48.7814C52.4793 48.7814 52.0961 49.6422 52.0961 49.9291C52.0961 50.1204 52.3835 51.7463 52.3835 51.7463C52.3835 51.7463 52.2877 61.3105 52.3835 61.6931C52.4793 61.98 52.0961 62.3626 52.0961 62.5539C52.0961 62.9364 52.4793 63.4147 52.4793 63.4147C52.4793 63.4147 52.0961 78.5261 52.2877 79.0043C52.3835 79.4826 52.0961 79.5782 52.0961 79.9608C52.2877 80.3433 52.0961 80.8215 52.3835 81.2041C52.4793 81.491 52.4793 82.0649 52.4793 82.0649V83.3082H56.2165L56.5039 84.0734C56.4081 84.0734 56.2165 84.0734 56.2165 84.0734C56.1206 84.0734 55.1624 84.0734 54.9708 84.2647C54.7791 84.3603 53.7251 84.3603 53.7251 84.3603L52.671 84.4559L52.4793 85.2211L54.5875 84.9342C54.5875 84.9342 56.1206 84.8385 56.6956 84.7429L56.8872 84.9342L56.9831 85.9862L57.0789 86.3688C57.0789 86.3688 57.3664 86.7514 57.0789 86.9426C56.9831 87.3252 57.3664 88.6642 57.3664 88.6642C57.3664 88.6642 57.3664 89.0468 57.0789 89.4293C56.9831 89.7163 57.0789 90.0988 57.0789 90.2901C57.2705 90.6727 57.8455 91.1509 57.8455 91.1509C57.8455 91.1509 57.8455 91.7248 57.8455 92.0117ZM38.2974 85.3167H39.2557L39.1599 84.8385H38.01C38.01 84.8385 37.3392 84.9342 37.0517 84.8385C36.9559 84.8385 36.2851 84.8385 36.0935 84.7429C35.9019 84.7429 34.5603 84.7429 34.5603 84.7429L34.2729 85.3167L35.806 85.2211L37.1476 85.3167H38.2974ZM38.9682 61.3105L39.5432 60.7367L39.1599 59.4933V56.911L37.5309 65.9013L37.435 66.6665L37.0517 67.4316L37.1476 68.9619L34.6561 83.8821C39.1599 83.5952 39.1599 83.4995 39.1599 83.4995L39.4473 82.7344L39.1599 81.9692L38.9682 62.8408V61.3105Z" fill="white"/>
<path d="M93.9927 99.6631C93.9927 100.141 94.376 102.245 94.376 102.532C94.376 102.628 94.2802 105.019 94.2802 105.019V107.219L94.1843 109.801C94.1843 109.801 94.1843 110.949 94.1843 111.236C94.1843 111.331 94.1843 113.436 94.1843 113.436L92.747 113.244L91.4055 113.722L89.2973 113.914H87.9558C87.9558 113.914 87.3809 113.818 86.9976 113.818C86.5184 113.914 85.7519 113.531 85.7519 113.531C85.7519 113.531 85.0811 113.436 84.7936 113.34C84.6978 113.34 84.6978 113.34 84.5062 113.34H77.2236L76.3611 113.053L75.5946 113.34H75.1154L67.8328 113.244L67.6412 111.714C67.6412 111.714 67.4495 111.236 67.3537 110.853C67.0662 110.853 66.8746 110.853 66.5871 110.853C66.108 110.853 64.3832 110.375 64.0957 110.184C63.7124 109.992 64.3832 110.088 63.7124 109.992C63.1375 109.801 63.1375 109.801 63.1375 109.801L61.8918 109.61L61.6043 98.611L61.9876 96.7938C61.9876 96.7938 61.6043 95.7417 61.6043 95.4548C61.6043 95.1679 61.6043 93.9245 61.6043 93.9245L61.7959 89.2381L61.6043 77.8566C61.6043 77.8566 61.8918 76.9958 61.9876 76.5176C61.9876 75.8481 61.9876 74.9874 61.9876 74.9874C61.9876 74.9874 61.7959 74.1266 61.7959 73.6484C61.7959 73.2658 61.9876 59.2064 61.9876 59.2064V57.5805C61.9876 57.5805 61.9876 56.7197 61.8918 56.3371C61.7959 55.8589 61.8918 48.3988 61.8918 48.3988C61.8918 48.3988 61.6043 47.1555 61.7959 46.9642C61.8918 46.5816 61.8918 42.6603 61.8918 42.6603L63.3291 42.5646L64.9581 42.469L65.1498 42.0864L67.0662 42.1821H68.0245L76.457 42.6603L77.3194 42.8516L78.086 42.6603L82.0147 42.8516L82.398 42.6603H82.973L83.4521 42.9472H83.8354L84.8895 42.6603L86.0393 42.469L86.5184 42.6603L87.9558 42.469L89.7765 43.2341L90.543 43.4254L91.6929 43.808L92.2679 44.0949L93.9927 44.1906V45.0513C93.5136 45.0513 92.9386 45.0513 92.9386 45.0513L91.6929 45.147L91.4055 45.4339L92.5553 45.7208C92.5553 45.7208 93.0345 45.7208 93.1303 45.7208C93.4178 45.7208 93.8969 45.8165 93.8969 45.8165H93.9927V46.7729L93.5136 46.9642L93.2261 47.4424V47.6337L93.801 48.0162H93.9927L94.1843 52.4158L93.8969 61.2149L93.801 62.0757C93.801 62.0757 94.1843 63.2234 93.9927 63.4147C93.9927 63.7016 93.8969 65.2319 93.8969 65.2319L94.2802 71.8312C94.2802 71.8312 93.801 73.3614 93.801 73.6484C93.801 73.9353 93.8969 74.7961 93.8969 74.7961C93.8969 74.7961 93.8969 75.5612 93.8969 75.7525C93.8969 75.8481 93.9927 77.2828 93.9927 77.2828L94.1843 79.7695L93.9927 85.3167V91.3422C93.9927 91.3422 94.1843 92.2986 93.9927 92.3943C93.9927 92.6812 93.9927 94.2115 93.9927 94.2115C93.9927 94.2115 93.9927 96.0287 93.8969 96.3156C93.801 96.5069 93.9927 99.1849 93.9927 99.6631ZM74.3488 59.589L74.4447 55.7633L73.4864 55.6676L73.6781 56.3371C73.6781 56.3371 73.8697 57.1023 73.8697 57.3892C73.8697 57.5805 73.8697 58.8238 73.8697 58.8238V60.0672L73.6781 60.7367C73.6781 60.7367 73.4864 60.8323 73.2948 61.1192C73.2948 61.2149 73.2948 61.6931 73.2948 61.98C73.2948 62.3626 73.8697 62.9364 73.8697 62.9364L73.6781 63.7972V66.4752V67.4316V69.8227L73.5823 71.1617V72.5007V73.6484C73.8697 74.4135 73.8697 75.3699 73.8697 76.1351C73.8697 76.422 74.253 77.2828 74.253 77.2828V63.7972V62.1713C74.253 62.1713 74.253 61.1192 74.253 60.8323C74.253 60.641 74.3488 59.589 74.3488 59.589ZM80.769 83.6908L80.6732 80.3433V66.1883C80.6732 66.1883 81.0565 65.9013 80.9607 65.7101C80.9607 65.4231 81.0565 64.9449 80.9607 64.658C80.769 64.4667 80.769 63.9885 80.769 63.9885V55.9546L76.8403 55.8589C76.8403 55.8589 75.9778 55.6676 75.4987 55.6676C75.3071 55.6676 75.2113 55.6676 74.9238 55.6676V59.1108L74.828 59.6846V60.8323L74.9238 73.6484V74.9874L75.1154 78.2392L74.9238 93.6376L74.828 97.7502C74.828 97.7502 74.7321 98.5154 74.7321 98.9936C74.7321 99.2805 74.7321 99.6631 74.828 100.046H80.5774H80.769L80.9607 98.8979L80.6732 97.6546C80.6732 97.6546 80.769 86.3688 80.769 86.0819C80.769 85.7949 80.769 83.6908 80.769 83.6908Z" fill="white"/>
<path d="M135.141 92.0117C135.141 92.2986 135.237 93.0638 135.237 93.0638L135.045 93.9245V94.6897L134.757 96.4112L129.775 96.5069L129.679 96.9851V97.7502L129.775 98.9936V111.618L128.912 111.905L128.146 112.192L126.9 112.575C126.9 112.575 125.942 112.957 125.654 113.053C125.271 113.244 124.983 112.67 124.983 112.67H124.217L123.163 113.244C123.163 113.244 121.821 113.722 121.438 113.531C121.246 113.436 120.192 113.722 120.192 113.722C120.192 113.722 119.426 113.914 119.042 113.818C118.755 113.818 118.372 113.531 118.372 113.531L116.551 113.818L116.455 106.645V105.402V104.254L116.838 103.106L116.455 102.341C116.455 102.341 116.455 100.141 116.455 97.1764C116.551 97.1764 116.743 97.1764 116.743 96.8894C116.551 96.6982 116.551 95.933 116.551 95.5504C116.455 95.2635 116.551 94.881 116.551 94.7853C116.455 94.6897 116.359 92.9681 116.359 93.1594C116.359 93.4463 116.263 94.7853 116.263 94.7853L115.976 95.4548L115.88 95.933C115.88 95.933 115.88 96.4112 115.689 96.5069C115.497 96.5069 115.497 96.8894 115.497 96.8894C115.497 96.8894 115.497 96.8894 115.497 96.9851L105.915 97.272L104.094 96.9851L102.848 97.272L100.357 97.5589L99.4943 96.6982L99.3985 95.933L99.3027 95.0722L98.8236 94.0202L99.111 92.9681L99.3027 91.7248L99.111 90.5771L99.3027 89.4293C99.3027 89.4293 99.4943 89.525 99.3985 89.2381C99.3985 89.0468 99.3985 88.9511 99.3985 88.8555L98.9194 88.6642L98.057 87.8034L99.686 77.4741V76.6133L100.165 76.0394L100.069 74.8917L102.752 58.6325V57.8674L103.136 56.7197L103.04 55.6676L104.381 46.9642L104.669 46.7729L106.489 46.6773L107.544 46.5816H108.214L109.077 46.3903L109.843 46.5816L110.514 47.0598L111.089 46.6773H111.951L112.526 46.7729L113.005 47.0598L115.114 47.4424L116.455 47.6337V43.9036L117.318 43.5211L118.372 43.3298L119.33 42.8516L120.48 42.2777C120.48 42.2777 120.959 42.5646 121.342 42.5646C121.821 42.469 122.205 42.5646 122.588 42.5646C122.971 42.5646 123.738 42.5646 123.738 42.5646C123.738 42.5646 124.792 42.469 125.079 42.469C125.271 42.469 126.229 42.469 126.421 42.5646C126.708 42.8516 127.666 42.6603 127.666 42.6603H129.775C129.775 42.6603 129.775 43.5211 129.775 44.5731C129.391 44.7644 128.816 45.3383 128.816 45.3383C128.816 45.3383 128.816 45.7208 128.912 45.8165C129.008 46.0078 128.816 46.7729 128.816 46.7729L128.721 47.825C128.721 47.825 128.433 49.5465 128.337 49.7378C128.337 50.0247 128.146 50.8855 128.146 51.1724C128.146 51.3637 128.529 52.1289 128.433 52.7984C128.337 53.2766 128.337 54.233 128.337 54.6156C128.146 55.0938 128.337 56.911 128.337 56.911C128.337 56.911 128.433 58.4413 128.433 59.1108C128.337 59.589 128.337 60.7367 128.337 60.928C128.337 61.2149 128.337 62.4582 128.337 62.8408C128.337 63.2234 128.433 64.4667 128.433 64.8493C128.433 65.0406 128.529 66.2839 128.529 66.4752C128.433 66.6665 128.433 67.5273 128.433 67.5273C128.816 67.9098 129.008 66.9534 129.008 66.5708C129.008 66.2839 129.2 65.8057 129.008 65.4231C129.008 65.0406 129.008 64.5624 129.008 64.0841C128.912 63.6059 129.008 62.0757 129.008 61.8844C129.008 61.5974 129.008 60.2585 129.008 59.8759C128.912 59.4933 129.008 57.0066 129.008 57.0066L128.912 54.7112V52.894C128.912 52.894 129.008 50.9812 129.008 50.8855C128.912 50.6942 129.2 49.6422 129.2 49.2596C129.2 48.877 129.295 48.2075 129.295 48.2075C129.295 48.2075 129.2 47.9206 129.295 47.538C129.295 47.1555 129.583 47.0598 129.583 46.5816C129.583 46.3903 129.679 46.2947 129.679 46.199C129.679 46.3903 129.679 46.6773 129.775 46.7729C129.775 47.2511 129.775 48.7814 129.775 48.7814C129.775 48.7814 129.391 49.6422 129.391 49.9291C129.391 50.1204 129.679 51.7463 129.679 51.7463C129.679 51.7463 129.583 61.3105 129.679 61.6931C129.775 61.98 129.391 62.3626 129.391 62.5539C129.391 62.9364 129.775 63.4147 129.775 63.4147C129.775 63.4147 129.391 78.5261 129.583 79.0043C129.679 79.4826 129.391 79.5782 129.391 79.9608C129.583 80.3433 129.391 80.8215 129.679 81.2041C129.775 81.491 129.775 82.0649 129.775 82.0649V83.3082H133.512L133.799 84.0734C133.703 84.0734 133.512 84.0734 133.512 84.0734C133.416 84.0734 132.458 84.0734 132.266 84.2647C132.074 84.3603 131.02 84.3603 131.02 84.3603L129.966 84.4559L129.775 85.2211L131.883 84.9342C131.883 84.9342 133.416 84.8385 133.991 84.7429L134.182 84.9342L134.278 85.9862L134.374 86.3688C134.374 86.3688 134.662 86.7514 134.374 86.9426C134.278 87.3252 134.662 88.6642 134.662 88.6642C134.662 88.6642 134.662 89.0468 134.374 89.4293C134.278 89.7163 134.374 90.0988 134.374 90.2901C134.566 90.6727 135.141 91.1509 135.141 91.1509C135.141 91.1509 135.141 91.7248 135.141 92.0117ZM115.593 85.3167H116.551L116.455 84.8385H115.305C115.305 84.8385 114.634 84.9342 114.347 84.8385C114.251 84.8385 113.58 84.8385 113.389 84.7429C113.197 84.7429 111.856 84.7429 111.856 84.7429L111.568 85.3167L113.101 85.2211L114.443 85.3167H115.593ZM116.263 61.3105L116.838 60.7367L116.455 59.4933V56.911L114.826 65.9013L114.73 66.6665L114.347 67.4316L114.443 68.9619L111.951 83.8821C116.455 83.5952 116.455 83.4995 116.455 83.4995L116.743 82.7344L116.455 81.9692L116.263 62.8408V61.3105Z" fill="white"/>
</svg>
